<?xml version="1.0" encoding="utf-8"?>
<!-- Generator: Adobe Illustrator 24.2.3, SVG Export Plug-In . SVG Version: 6.00 Build 0)  -->
<svg version="1.1" id="圖層_1" xmlns="http://www.w3.org/2000/svg" xmlns:xlink="http://www.w3.org/1999/xlink" x="0px" y="0px"
	 viewBox="0 0 160 108" style="enable-background:new 0 0 160 108;" xml:space="preserve">
<style type="text/css">
	.st0{fill-rule:evenodd;clip-rule:evenodd;fill:#9EC928;}
	.st1{fill-rule:evenodd;clip-rule:evenodd;fill:#FFFFFF;}
	.st2{fill:#FFFFFF;}
</style>
<g>
	<g>
		<ellipse class="st0" cx="43.4" cy="87.9" rx="12.8" ry="14.6"/>
		<ellipse class="st0" cx="117.8" cy="87.9" rx="12.8" ry="14.6"/>
	</g>
	<rect x="9.2" y="11.3" class="st0" width="142.9" height="81"/>
	<rect x="17.3" y="6.8" class="st0" width="17" height="12.1"/>
	<rect x="127.5" y="6.8" class="st0" width="17.1" height="12.1"/>
	<polygon class="st1" points="9.2,76.6 152.1,76.6 152.1,69.9 9.2,69.9 	"/>
</g>
<g>
	<path class="st2" d="M40.8,60.6l0.6-5.2L43,37.3l0.8-11.9c3.2,0,5.7,0.1,7.5,0.1c1.5,0,3.8,0,6.9-0.1c0.2,1.5,0.4,2.6,0.6,3.4
		c0.2,0.8,0.6,2.3,1.2,4.5c0.6,2.2,1.1,4.2,1.5,5.8c0.4,1.6,0.9,4.4,1.7,8.3c0.8-2.7,1.4-5,2.1-7c0.6-1.9,1.4-4.2,2.3-6.6
		c0.9-2.5,1.5-4.1,1.8-4.9c0.2-0.8,0.6-1.9,1-3.5c2.6,0,5.1,0.1,7.6,0.1c1.7,0,4,0,7-0.1c-0.3,5.8-0.6,10.8-0.6,14.9
		c-0.2,8.2-0.3,13.8-0.3,16.8c0,0.6,0,1.8,0.1,3.5c-2.3,0-3.9-0.1-4.8-0.1c-1.3,0-3,0-4.9,0.1c0.1-1.6,0.3-5.2,0.5-11.1
		c0.2-5.8,0.3-9.6,0.3-11.2c0-0.7,0-1.7-0.1-2.9l-3.4,10.5l-4.9,14.7c-2.2,0-3.8-0.1-4.6-0.1c-1.1,0-2.7,0-4.9,0.1l-3.2-14.2
		l-1.9-7.6c-0.1-0.3-0.1-0.7-0.2-1.1c-0.1-0.4-0.2-1.2-0.4-2.3l-0.7,7.2L50,57.3L50,60.6c-2.4,0-3.9-0.1-4.6-0.1
		C44.5,60.6,43,60.6,40.8,60.6z"/>
	<path class="st2" d="M90.2,60.6l0.5-6.6l0.7-12.9l0.3-9.1c0-1,0-2,0-2.9c0-0.7,0-1.9,0-3.6c2.3,0.1,4.1,0.1,5.5,0.1
		c1.3,0,3.2,0,5.4-0.1c2.3-0.1,4.3-0.1,5.9-0.1c2.3,0,4,0.2,5.1,0.4s2.1,0.8,3,1.4c0.9,0.6,1.6,1.4,2.2,2.2c0.6,0.8,1,1.8,1.3,2.9
		c0.3,1.1,0.4,2.2,0.4,3.3c0,2.3-0.6,4.4-1.7,6.3c-1.1,1.9-2.7,3.3-4.7,4.3c-2,0.9-4.3,1.4-6.8,1.4c-0.9,0-2-0.1-3.2-0.3
		c-0.2-0.8-0.4-2-0.8-3.5c-0.4-1.6-0.7-2.7-0.9-3.5c0.8,0.2,1.6,0.2,2.4,0.2c1.7,0,3-0.4,3.9-1.2c0.9-0.8,1.3-1.8,1.3-3.1
		c0-0.6-0.1-1.1-0.3-1.6s-0.5-0.8-0.9-1.1c-0.4-0.3-0.9-0.5-1.4-0.6s-1.1-0.1-1.7-0.1c-0.6,0-1.3,0-1.9,0.1l-2.2,0.2
		c-0.2,3.3-0.4,7-0.5,11.1c-0.2,7.4-0.3,11.8-0.3,13.3v3.3l-5.1-0.1C94.8,60.6,93,60.6,90.2,60.6z"/>
</g>
</svg>
