<?xml version="1.0" encoding="utf-8"?>
<!-- Generator: Adobe Illustrator 24.2.3, SVG Export Plug-In . SVG Version: 6.00 Build 0)  -->
<svg version="1.1" id="圖層_1" xmlns="http://www.w3.org/2000/svg" xmlns:xlink="http://www.w3.org/1999/xlink" x="0px" y="0px"
	 viewBox="0 0 769.6 402.4" style="enable-background:new 0 0 769.6 402.4;" xml:space="preserve">
<style type="text/css">
	.st0{fill:none;stroke:#000000;stroke-width:0.72;stroke-linecap:round;stroke-linejoin:round;}
	.st1{font-family:'AdobeMingStd-Light-B5pc-H';}
	.st2{font-size:9px;}
	.st3{letter-spacing:25;}
	.st4{fill:none;stroke:#FF0000;stroke-width:0.72;stroke-linecap:round;stroke-linejoin:round;}
	.st5{fill:none;stroke:#000000;stroke-width:0.38;stroke-linecap:round;stroke-linejoin:round;}
	.st6{font-size:16.8px;}
	.st7{fill:none;stroke:#000000;stroke-width:0.72;stroke-linecap:round;stroke-linejoin:bevel;}
	.st8{font-size:6.72px;}
	.st9{fill:none;stroke:#FF3F00;stroke-width:0.84;stroke-linecap:round;stroke-linejoin:round;}
	.st10{fill:none;stroke:#FF3F00;stroke-width:0.84;stroke-linecap:round;stroke-linejoin:bevel;}
	.st11{font-family:'ArialMT';}
	.st12{font-size:5.28px;}
	.st13{letter-spacing:5;}
	.st14{letter-spacing:3;}
	.st15{fill:#057CCE;}
</style>
<line class="st0" x1="757.7" y1="380.4" x2="500.9" y2="380.4"/>
<path class="st0" d="M391,380.4v-0.1 M387.4,380.4l3.6-3.6 M383.8,380.4l7.2-7.2 M380.2,380.4l10.8-10.8 M376.6,380.4l12.4-12.5
	 M373,380.4l12.5-12.5 M369.4,380.4l12.5-12.5 M365.8,380.4l12.5-12.5 M362.2,380.4l12.5-12.5 M358.6,380.4l12.4-12.5 M355,380.4
	l12.5-12.5 M351.5,380.4l12.5-12.5 M347.9,380.4l12.5-12.5 M346.2,378.5l10.6-10.6 M346.2,375l7-7.1 M346.2,371.4l3.4-3.5
	 M390.7,380.4l0.2-0.2 M387.2,380.4l3.7-3.7 M383.6,380.4l7.3-7.3 M380,380.4l11-10.9 M376.4,380.4l12.5-12.5 M372.8,380.4
	l12.5-12.5 M369.2,380.4l12.5-12.5 M365.6,380.4l12.5-12.5 M362,380.4l12.5-12.5 M358.4,380.4l12.5-12.5 M355,380.4l12.5-12.5
	 M351.4,380.4l12.5-12.5 M347.8,380.4l12.5-12.5 M346.2,378.4l10.4-10.4 M346.2,374.9l6.8-7 M346.2,371.3l3.2-3.4 M500.9,0h267.8"/>
<line class="st0" x1="500.9" y1="380.4" x2="313.8" y2="380.4"/>
<path class="st0" d="M0,0h500.9 M2.2,0v342.4"/>
<polyline class="st0" points="2.2,380.4 123.6,380.4 313.8,380.4 "/>
<line class="st0" x1="2.2" y1="380.4" x2="2.2" y2="342.4"/>
<path class="st0" d="M249.7,0v159.4 M242,135.1V135 M269.4,158.5v114.1 M508.4,272.6H235.8"/>
<polyline class="st0" points="235.8,0 235.8,159.4 249.7,159.4 "/>
<polyline class="st0" points="235.8,211.7 235.8,272.6 269.4,272.6 269.4,211.7 235.8,211.7 235.8,159.4 249.7,159.4 249.7,118.2 
	269.4,118.2 269.4,211.7 235.8,211.7 235.8,159.4 "/>
<text transform="matrix(6.123234e-17 -1 1 6.123234e-17 255.24 260.0402)" class="st1 st2">副資</text>
<text transform="matrix(6.123234e-17 -1 1 6.123234e-17 255.24 242.0402)" class="st1 st2">材</text>
<text transform="matrix(6.123234e-17 -1 1 6.123234e-17 255.24 233.1202)" class="st1 st2 st3">室</text>
<text transform="matrix(6.123234e-17 -1 1 6.123234e-17 255.24 198.84)" class="st1 st2">配料室</text>
<text transform="matrix(6.123234e-17 -1 1 6.123234e-17 87.12 14.2804)" class="st1 st2">通</text>
<text transform="matrix(6.123234e-17 -1 1 6.123234e-17 118.92 14.2804)" class="st1 st2">道</text>
<line class="st0" x1="163" y1="380.4" x2="152.8" y2="380.4"/>
<rect x="187" y="374" class="st0" width="8.2" height="6.4"/>
<rect x="195.1" y="371.5" class="st0" width="17.8" height="8.9"/>
<rect x="209.2" y="338.4" class="st0" width="10.1" height="21.6"/>
<rect x="199" y="338.4" class="st0" width="10.2" height="21.6"/>
<rect x="278.3" y="338.4" class="st0" width="10.2" height="21.6"/>
<rect x="268.2" y="338.4" class="st0" width="10.1" height="21.6"/>
<rect x="338.5" y="319.6" class="st0" width="7.7" height="60.8"/>
<rect x="319.6" y="370.3" class="st0" width="11.4" height="10.1"/>
<rect x="319.6" y="343.7" class="st0" width="11.4" height="10.1"/>
<rect x="313.2" y="359.3" class="st0" width="6.4" height="15.2"/>
<rect x="292" y="371.5" class="st0" width="19" height="8.9"/>
<rect x="281.8" y="371.5" class="st0" width="10.2" height="8.9"/>
<rect x="270.4" y="371.5" class="st0" width="11.4" height="8.9"/>
<rect x="255.1" y="371.5" class="st0" width="15.2" height="8.9"/>
<rect x="235.7" y="371.5" class="st0" width="11.4" height="8.9"/>
<path class="st0" d="M187,374l8.2,6.4 M187,380.4l8.2-6.4"/>
<line class="st4" x1="768.7" y1="0" x2="768.7" y2="15.1"/>
<line class="st0" x1="757.7" y1="380.4" x2="768.7" y2="380.4"/>
<line class="st0" x1="768.7" y1="380.4" x2="768.7" y2="0"/>
<line class="st5" x1="2.2" y1="380.4" x2="2.2" y2="296.8"/>
<rect x="3.7" y="300" class="st5" width="10.1" height="31.7"/>
<line class="st5" x1="3.7" y1="315.8" x2="13.8" y2="315.8"/>
<rect x="438.7" y="320.8" class="st5" width="69.7" height="59.6"/>
<polyline class="st5" points="438.7,320.8 438.7,321.5 459,321.5 459,320.8 438.7,320.8 438.7,272.6 "/>
<line class="st5" x1="508.4" y1="320.8" x2="508.4" y2="268.8"/>
<polygon class="st5" points="508.4,320.8 509.2,320.8 509,300.5 508.4,300.5 "/>
<rect x="438.1" y="272.6" class="st5" width="0.6" height="20.3"/>
<path class="st0" d="M631.2,277V66.5 M533.9,278.8h77"/>
<polyline class="st0" points="631.2,278.8 633,278.8 633,68.3 653.9,68.3 653.9,18.2 680.4,18.2 680.4,6.1 "/>
<polyline class="st0" points="631.2,66.5 652,66.5 652,16.3 678.5,16.3 "/>
<line class="st0" x1="633" y1="89.2" x2="633" y2="108.2"/>
<line class="st0" x1="678.5" y1="16.3" x2="678.5" y2="4.2"/>
<path class="st0" d="M612.7,89.2H633 M633,108.2h-20.3"/>
<line class="st0" x1="633" y1="110.2" x2="610.9" y2="110.2"/>
<path class="st0" d="M610.9,110.2V87.2 M612.7,108.2V89.2"/>
<path class="st0" d="M673.2,380.4l29.9-29.8 M728.2,322l22.8-22.8 M669.6,380.4l29.9-29.8 M724.6,322l22.8-22.8 M666.1,380.4
	l29.8-29.8 M721,322l22.8-22.8 M662.5,380.4l29.8-29.8 M717.4,322l22.8-22.8 M658.9,380.4l29.8-29.8 M713.8,322l22.8-22.8
	 M655.3,380.4l29.8-29.8 M710.2,322l22.8-22.8 M652.8,379.3l28.7-28.7 M706.6,322l22.8-22.8 M652.8,375.7l25.2-25.1 M703,322
	l22.9-22.8 M652.8,372.2l21.6-21.5 M699.4,322l22.9-22.8 M652.8,368.5l18-17.9 M695.9,322l22.8-22.8 M652.8,365l14.4-14.4
	 M692.3,322l22.8-22.8 M652.8,361.4l12.5-12.6 M688.7,322l22.8-22.8 M652.8,357.8l12.5-12.5 M685.1,322l22.8-22.8 M652.8,354.2
	l12.5-12.5 M681.5,322l22.8-22.8 M652.8,350.6l12.5-12.5 M677.9,322l22.8-22.8 M652.8,347l12.5-12.5 M674.3,321.9l22.8-22.8
	 M652.8,343.4l12.5-12.4 M670.7,322l22.9-22.8 M652.8,339.9l12.5-12.5 M667.1,322l22.9-22.8 M652.8,336.2l12.5-12.5 M652.8,332.8
	l33.6-33.6 M652.8,329.2l30-30 M652.8,325.6l26.4-26.4 M652.8,322l22.8-22.8 M652.8,318.4l19.2-19.2 M652.8,314.8l15.6-15.6
	 M652.8,311.2l12-12 M652.8,307.6l8.5-8.4 M652.8,304l4.9-4.8 M652.8,300.4l1.3-1.2 M752,380.4l1.6-1.6 M748.4,380.4l5.2-5.2
	 M744.8,380.4l8.8-8.6 M741.2,380.4l12.4-12.2 M737.6,380.4l16-15.8 M734,380.4l19.6-19.4 M730.6,380.4l23-23 M727,380.4l26.6-26.6
	 M723.4,380.4l30.2-30.2 M719.8,380.4l33.8-33.8 M716.2,380.4l37.4-37.4 M712.6,380.4l41-40.9 M709,380.4l44.6-44.5 M738.7,347
	l14.9-14.8 M705.4,380.4l29.9-29.8 M738.7,343.6l14.9-14.9 M701.8,380.4l29.9-29.8 M738.7,340l14.9-14.9 M698.3,380.4l29.7-29.8
	 M738.7,336.4l14.9-14.9 M694.7,380.4l29.8-29.8 M738.7,332.8l14.9-14.9 M691.1,380.4l29.8-29.8 M738.7,329.2l14.9-14.9
	 M687.5,380.4l29.8-29.8 M738.7,325.6l14.9-14.9 M683.9,380.4l29.8-29.8 M738.7,322l14.9-14.8 M680.3,380.4l29.7-29.8 M735.1,322
	l18.5-18.4 M676.7,380.4l29.9-29.8 M731.6,322l22.1-22 M673.1,380.4l29.9-29.7 M728,322l22.9-22.8 M669.5,380.4l29.9-29.8
	 M724.4,322l22.8-22.8 M666,380.4l29.8-29.8 M720.8,322l22.8-22.8 M662.4,380.4l29.8-29.8 M717.2,322l22.8-22.8 M658.8,380.4
	l29.8-29.8 M713.6,322l22.8-22.8 M655.2,380.4l29.8-29.8 M710,322l22.8-22.8 M652.8,379.2l28.6-28.6 M706.4,322l22.8-22.8
	 M652.8,375.6l25-25 M702.8,322l22.9-22.8 M652.8,372l21.5-21.4 M699.3,322l22.9-22.8 M652.8,368.4l17.9-17.8 M695.7,322l22.9-22.8
	 M652.8,364.8l14.3-14.2 M692.2,322l22.8-22.8 M652.8,361.3l12.5-12.6 M688.6,322l22.8-22.8 M652.8,357.7l12.5-12.5 M685,322
	l22.8-22.8 M652.8,354.2l12.5-12.5 M681.4,322l22.8-22.8 M652.8,350.5l12.5-12.5 M677.8,322l22.8-22.8 M652.8,346.9l12.5-12.5
	 M674.2,322l22.8-22.8 M652.8,343.3l12.5-12.5 M670.6,322l22.8-22.8 M652.8,339.7l12.5-12.5 M667,322l22.9-22.8 M652.8,336.2
	l12.5-12.5 M652.8,332.6l33.5-33.4 M652.8,329l29.9-29.9 M652.8,325.4l26.3-26.3 M652.8,321.8l22.7-22.7 M652.8,318.2l19.1-19.1
	 M652.8,314.6l15.5-15.5 M652.8,311l11.9-11.9 M652.8,307.4l8.3-8.3 M652.8,303.8l4.8-4.7 M652.8,300.2l1.2-1.1 M680.4,2.9h88.3
	 M610.9,87.2H633"/>
<path class="st0" d="M752.2,380.4l1.4-1.4 M748.6,380.4l5-4.9 M745,380.4l8.6-8.5 M741.4,380.4l12.2-12.1 M737.8,380.4l15.8-15.7
	 M734.3,380.4l19.3-19.3 M730.7,380.4l22.9-22.9 M727.1,380.4l26.5-26.5 M723.5,380.4l30.1-30.1 M719.9,380.4l33.7-33.7
	 M716.3,380.4l37.3-37.2 M712.7,380.4l40.9-40.8 M709.1,380.4l44.5-44.4 M738.7,347.3l14.9-14.9 M705.5,380.4l29.9-29.8
	 M738.7,343.6l14.9-14.8 M702,380.4l29.8-29.8 M738.8,340.1l14.8-14.9 M698.4,380.4l29.8-29.8 M738.7,336.5l14.9-14.9 M694.8,380.4
	l29.8-29.8 M738.7,332.9l14.9-14.9 M691.2,380.4l29.8-29.8 M738.8,329.3l14.8-14.9 M687.6,380.4l29.8-29.8 M738.7,325.6l14.9-14.8
	 M684,380.4l29.8-29.8 M738.8,322.1l14.9-14.8 M680.4,380.4l29.9-29.8 M735.3,322l18.4-18.2 M676.8,380.4l29.9-29.8 M731.7,322
	l22-21.8"/>
<rect x="652.8" y="299.2" class="st0" width="100.8" height="81.2"/>
<text transform="matrix(1 0 0 1 668.52 343.2)" class="st1 st6">辦公</text>
<text transform="matrix(1 0 0 1 702.12 343.2)" class="st1 st6">區</text>
<text transform="matrix(1 0 0 1 718.77 343.2)" class="st1 st6">域</text>
<path class="st0" d="M610.9,277v1.8 M631.2,268.8v10 M533.9,268.8h-25.4 M631.2,110.2v158.6"/>
<line class="st5" x1="533.9" y1="278.8" x2="533.9" y2="268.8"/>
<rect x="610.9" y="277.8" class="st0" width="20.3" height="1"/>
<polyline class="st0" points="631.2,68.3 455,68.3 455,134 574.6,134 574.6,277 "/>
<path class="st0" d="M602.9,240.1l4-4 M605.6,233.8l1.6-1.4 M599.2,240.3l4.4-4.6 M605.6,230.4l1.6-1.6 M595.6,240.3l4.4-4.5
	 M605.5,226.8l1.3-1.3 M592,240.4l4.4-4.6 M604.4,224.4l1.2-1.2 M588.4,240.4l4.4-4.6 M600.8,224.4l2.6-2.8 M584.8,240.4l4.4-4.6
	 M597.2,224.4l3.1-3.1 M581.2,240.4l4.4-4.6 M593.6,224.4l3.1-3.1 M577.6,240.4l4.6-4.6 M590,224.4l3.1-3.1 M574.6,239.8l4-4
	 M586.4,224.4l3.1-3.1 M574.6,236.1l1.6-1.6 M582.8,224.4l3.1-3.1 M574.6,232.5l1.6-1.6 M579.3,224.4l3-3.1 M574.6,229l1.6-1.7
	 M574.6,225.4l4.1-4.2 M574.6,221.8l0.6-0.6 M602.8,240.1l4.1-4.1 M605.6,233.7l1.6-1.4 M599.2,240.3l4.4-4.6 M605.6,230.2l1.6-1.6
	 M595.5,240.3l4.4-4.6 M605.6,226.6l1.3-1.3 M591.9,240.3l4.4-4.6 M604.3,224.3l1.3-1.3 M588.3,240.3l4.4-4.6 M600.7,224.3l2.8-2.8
	 M584.7,240.3l4.4-4.6 M597,224.4l3.1-3.1 M581,240.4l4.4-4.6 M593.4,224.4l3.1-3.1 M577.4,240.4l4.6-4.6 M589.8,224.4l3.1-3.1
	 M574.6,239.6l3.8-3.8 M586.2,224.4l3.1-3.1 M574.6,236l1.6-1.6 M582.6,224.4l3.1-3.1 M574.6,232.4l1.6-1.6 M579,224.4l3.1-3.1
	 M574.6,229l1.6-1.7 M574.6,225.4l4-4.1 M574.6,221.8l0.4-0.5"/>
<polyline class="st7" points="601.3,240.2 602.8,240 604.1,239.5 605.3,238.6 606.2,237.4 606.7,236 607,234.6 "/>
<line class="st0" x1="607.1" y1="234.6" x2="607.1" y2="227"/>
<polyline class="st7" points="607,227 606.7,225.6 606.2,224.2 605.3,223.1 604.1,222.1 602.8,221.6 601.3,221.4 "/>
<polyline class="st0" points="601.3,221.3 574.6,221.3 574.6,240.4 601.3,240.4 "/>
<text transform="matrix(1 0 0 1 577.44 232.92)" class="st1 st8">凸出軌道</text>
<path class="st0" d="M346.2,295.1H164.4 M164.4,338.4h174.1 M438.7,273.4H235.8 M346.2,297.3H164.4"/>
<rect x="391" y="334.6" class="st0" width="47.8" height="45.8"/>
<text transform="matrix(1 0 0 1 398.28 363.72)" class="st1 st6">電梯</text>
<path class="st0" d="M346.2,295.1v24.5 M164.4,380.4v-85.3 M391,367.9h-44.8"/>
<rect x="344.8" y="297.2" class="st5" width="1.4" height="20.3"/>
<polygon class="st5" points="164.5,317.5 165.8,317.5 165.8,297.2 164.4,297.2 "/>
<path class="st0" d="M28.2,43.6l25.1-25 M28.2,40.1l21.5-21.5 M28.2,36.5l17.9-17.9 M28.2,32.9l14.3-14.3 M28.2,29.3l10.7-10.7
	 M28.2,25.7l7.2-7.1 M28.2,22.1l3.6-3.5 M106.8,273.4l2.9-2.9 M103.2,273.4l6.5-6.5 M99.6,273.4l10.1-10.1 M96,273.4l13.7-13.6
	 M92.4,273.4l17.3-17.2 M88.9,273.4l20.8-20.8 M85.3,273.4l24.4-24.4 M81.7,273.4l28-28 M78.1,273.4l31.6-31.6 M74.5,273.4
	l35.2-35.2 M70.9,273.4l38.8-38.8 M67.3,273.4l42.4-42.4 M63.7,273.4l46-46 M60.1,273.4l49.6-49.4 M56.7,273.4l53-53 M53,273.4
	l56.6-56.6 M49.4,273.4l60.2-60.2 M45.8,273.4l63.8-63.8 M42.2,273.4l67.4-67.4 M38.7,273.4l71-71 M35,273.4l74.6-74.6 M31.4,273.4
	l78.2-78.2 M28.2,273l81.5-81.4 M28.2,269.5l81.5-81.5 M28.2,265.9l81.5-81.5 M28.2,262.3l81.5-81.5 M28.2,258.7l81.5-81.5
	 M28.2,255.1l81.5-81.5 M28.2,251.5l81.5-81.5 M28.2,247.9l81.5-81.5 M28.2,244.3l81.5-81.5 M28.2,240.7l81.5-81.4 M28.2,237.2
	l81.5-81.5 M106.1,155.8l3.6-3.6 M28.2,233.6l75.6-75.6 M106.1,152.2l3.6-3.7 M28.2,230l72-72 M106.1,148.6l3.6-3.7 M28.2,226.4
	L96.6,158 M106.1,145l3.6-3.7 M28.2,222.8L93,158 M106.1,141.4l3.6-3.7 M28.2,219.2L89.4,158 M106.1,137.8l3.6-3.7 M28.2,215.6
	L85.8,158 M106.1,134.2l3.6-3.7 M28.2,212l54.1-54 M106.1,130.6l3.6-3.7 M28.2,208.4L78.7,158 M103.7,129.3l6-5.9 M28.2,205l46.9-47
	 M100.2,129.3l9.5-9.5 M28.2,201.4L71.5,158 M96.6,129.4l13.1-13.1 M28.2,197.8L67.9,158 M93,129.4l16.7-16.7 M28.2,194.2L64.3,158
	 M89.4,129.4l20.3-20.3 M28.2,190.6L60.7,158 M85.8,129.4l23.9-23.9 M28.2,187l28.9-29 M82.2,129.4l27.5-27.5 M28.2,183.4L53.5,158
	 M78.6,129.4l31.1-31.1 M28.2,179.8L50,158 M75,129.3l34.7-34.7 M28.2,176.2L46.4,158 M71.4,129.3l38.2-38.1 M28.2,172.6L42.8,158
	 M67.9,129.3l41.8-41.7 M28.2,169.1l11-11 M64.3,129.4L109.7,84 M28.2,165.5l7.4-7.5 M60.7,129.3l49-49 M28.2,161.9l4.4-4.4
	 M57.1,129.4l52.6-52.6 M28.2,158.3l4.4-4.4 M53.5,129.4l56.2-56.2 M28.2,154.7l4.4-4.3 M49.9,129.4l59.8-59.8 M28.2,151.1l4.4-4.3
	 M46.3,129.4L109.7,66 M28.2,147.5l4.4-4.3 M42.7,129.4l67-67 M28.2,143.9l4.4-4.3 M39.1,129.4l70.6-70.4 M28.2,140.3l4.4-4.3
	 M35.6,129.4l74-74 M28.2,136.8l4.4-4.4 M28.2,133.2l81.5-81.5 M28.2,129.6l81.5-81.5 M28.2,126l81.5-81.5 M28.2,122.4l81.5-81.5
	 M28.2,118.8l81.5-81.5 M28.2,115.2l81.5-81.5 M28.2,111.6l81.5-81.5 M28.2,108l81.5-81.5 M28.2,104.5L109.7,23 M28.2,100.9
	l81.5-81.5 M28.2,97.3l78.7-78.7 M28.2,93.7l75.1-75.1 M28.2,90.1l71.6-71.5 M28.2,86.5l68-67.9 M28.2,82.9l64.4-64.3 M28.2,79.3
	L89,18.6 M28.2,75.7l57.2-57.1 M28.2,72.1l53.6-53.5 M28.2,68.6l50-50 M28.2,65l46.4-46.4 M28.2,61.4L71,18.6 M28.2,57.8l39.4-39.2
	 M28.2,54.2L64,18.6 M28.2,50.6l32.2-32 M28.2,47l28.6-28.4 M28.2,43.4l25-24.8 M28.2,39.8l21.4-21.2 M28.2,36.4L46,18.6 M28.2,32.8
	l14.2-14.2 M28.2,29.2l10.6-10.6 M28.2,25.6l7-7 M28.2,22l3.5-3.4"/>
<path class="st0" d="M106.9,273.4l2.8-2.8 M103.3,273.4l6.4-6.4 M99.7,273.4l10-10 M96.1,273.4l13.6-13.4 M92.7,273.4l17-17
	 M89,273.4l20.6-20.6 M85.4,273.4l24.2-24.2 M81.8,273.4l27.8-27.8 M78.2,273.4l31.4-31.4 M74.7,273.4l35-35 M71,273.4l38.6-38.6
	 M67.4,273.4l42.2-42.2 M63.8,273.4l45.8-45.7 M60.2,273.4l49.4-49.4 M56.8,273.4l52.9-52.9 M53.2,273.4l56.5-56.5 M49.6,273.4
	l60.1-60.1 M46,273.4l63.7-63.7 M42.4,273.4l67.3-67.4 M38.8,273.4l70.9-70.9 M35.2,273.4l74.5-74.5 M31.6,273.4l78.1-78
	 M28.2,273.2l81.5-81.5 M28.2,269.6l81.5-81.5 M28.2,266l81.5-81.5 M28.2,262.4l81.5-81.4 M28.2,258.8l81.5-81.5 M28.2,255.2
	l81.5-81.5 M28.2,251.6l81.5-81.5 M28.2,248l81.5-81.5 M28.2,244.4l81.5-81.4 M28.2,241l81.5-81.5 M28.2,237.4l81.5-81.5
	 M106.1,155.9l3.6-3.6 M28.2,233.8l75.7-75.8 M106.1,152.4l3.6-3.7 M28.2,230.2l72.1-72.2 M106.1,148.8l3.6-3.7 M28.2,226.6
	L96.7,158 M106.1,145.2l3.6-3.7 M28.2,223l64.9-65 M106.1,141.6l3.6-3.7 M28.2,219.4L89.5,158 M106.1,138l3.6-3.7 M28.2,215.8
	L85.9,158 M106.1,134.4l3.6-3.7 M28.2,212.2L82.4,158 M106.1,130.8l3.6-3.6 M28.2,208.6L78.8,158 M103.8,129.3l5.9-5.8 M28.2,205.1
	l47-47 M100.3,129.4l9.4-9.4 M28.2,201.5L71.6,158 M96.7,129.3l13-13 M28.2,197.9L68,158 M93.1,129.3l16.6-16.6 M28.2,194.3
	L64.4,158 M89.5,129.3l20.2-20.2 M28.2,190.7L60.8,158 M85.9,129.3l23.8-23.8 M28.2,187.1l29-29 M82.3,129.4l27.4-27.4 M28.2,183.5
	L53.6,158 M78.7,129.3l31-31 M28.2,179.9l22-21.8 M75.2,129.4l34.6-34.4 M28.2,176.3L46.6,158 M71.6,129.3l38.2-38 M28.2,172.8
	L43,158 M68,129.4l41.6-41.6 M28.2,169.2L39.4,158 M64.4,129.3l45.2-45.2 M28.2,165.6l7.6-7.6 M60.8,129.3l48.8-48.8 M28.2,162
	l4.4-4.4 M57.2,129.4l52.4-52.4 M28.2,158.4l4.4-4.4 M53.6,129.4l56-56 M28.2,154.8l4.4-4.3 M50,129.4l59.6-59.6 M28.2,151.2
	l4.4-4.3 M46.4,129.4l63.2-63.2 M28.2,147.6l4.4-4.3 M42.8,129.4l66.8-66.8 M28.2,144l4.4-4.3 M39.2,129.4L109.7,59 M28.2,140.5
	l4.4-4.4 M35.8,129.4l73.9-73.9 M28.2,136.9l4.4-4.4 M28.2,133.3l81.5-81.5 M28.2,129.7l81.5-81.5 M28.2,126.1l81.5-81.5
	 M28.2,122.5L109.7,41 M28.2,118.9l81.5-81.5 M28.2,115.3l81.5-81.5 M28.2,111.7l81.5-81.5 M28.2,108.1l81.5-81.4 M28.2,104.6
	l81.5-81.5 M28.2,101l81.5-81.5 M28.2,97.4L107,18.6 M28.2,93.8l75.2-75.2 M28.2,90.2L100,18.6 M28.2,86.6l68.2-68 M28.2,83
	l64.6-64.4 M28.2,79.4l61-60.8 M28.2,75.8l57.4-57.2 M28.2,72.4L82,18.6 M28.2,68.8l50.2-50.2 M28.2,65.2l46.6-46.6 M28.2,61.6
	l43-43 M28.2,58l39.5-39.4 M28.2,54.4l35.9-35.8 M28.2,50.8l32.3-32.2 M28.2,47.2l28.7-28.6"/>
<rect x="28.2" y="18.6" class="st0" width="81.5" height="254.8"/>
<text transform="matrix(1 0 0 1 35.76 150.6)" class="st1 st6">料架</text>
<text transform="matrix(1 0 0 1 69.36 150.6)" class="st1 st6">區</text>
<text transform="matrix(1 0 0 1 86.01 150.6)" class="st1 st6">域</text>
<line class="st9" x1="438.1" y1="282.8" x2="88.1" y2="282.8"/>
<polyline class="st10" points="158.8,282.8 157.1,283.1 155.5,283.6 154.1,284.5 152.9,285.7 151.9,287.2 151.4,288.7 151.2,290.4 
	"/>
<polyline class="st10" points="88.1,282.8 86.4,283.1 84.8,283.6 83.4,284.5 82.2,285.7 81.2,287.2 80.8,288.7 80.5,290.4 "/>
<path class="st9" d="M379.2,282.8H446 M385,325v-42.2 M226.8,282.8v-225"/>
<polyline class="st10" points="379.2,282.8 377.6,283 376.2,283.4 374.9,284.2 373.8,285.1 "/>
<line class="st9" x1="312.4" y1="304.9" x2="351.4" y2="304.9"/>
<polyline class="st10" points="347.3,305 345.6,305.2 344,305.8 342.7,306.6 "/>
<line class="st9" x1="356.9" y1="302.6" x2="373.8" y2="285.1"/>
<polyline class="st10" points="351.4,304.9 352.9,304.8 354.4,304.3 355.7,303.6 356.8,302.6 "/>
<line class="st9" x1="189.2" y1="321" x2="321.2" y2="321"/>
<polyline class="st10" points="184.7,319.3 186,320.2 187.6,320.8 189.2,320.9 "/>
<polyline class="st10" points="247.2,317.8 248.4,319.1 249.8,320 251.5,320.6 253.3,320.9 "/>
<path class="st9" d="M276.1,304.9h14.8 M217.9,304.9H234"/>
<polyline class="st10" points="276.1,305 274.4,305.3 272.8,305.8 271.3,306.7 270.1,307.9 "/>
<line class="st9" x1="342.7" y1="306.5" x2="325.9" y2="319.4"/>
<polyline class="st10" points="321.2,320.9 322.9,320.8 324.5,320.2 325.8,319.3 "/>
<line class="st9" x1="240.1" y1="308.2" x2="247.1" y2="317.8"/>
<polyline class="st10" points="240.1,308.2 238.9,306.8 237.5,305.9 235.8,305.3 234,305 "/>
<line class="st9" x1="262.2" y1="318" x2="270.1" y2="307.9"/>
<polyline class="st10" points="256.2,320.9 257.9,320.6 259.6,320.2 261,319.2 262.2,318 "/>
<line class="st9" x1="125.9" y1="304.9" x2="196" y2="304.9"/>
<polyline class="st10" points="167.9,306.6 166.6,305.8 165,305.2 163.3,305 "/>
<path class="st9" d="M502.8,306.8h140.3 M105.5,358.8h-25 M125.8,358.8H151 M105.4,345.3l-25,0.1 M125.8,345.3H151 M105.4,331.8h-25
	 M125.8,331.8H151 M105.4,318.4h-25 M125.7,318.4h25.2 M105.3,305h-25 M125.7,305h25.2 M150.9,290.4v68.4 M80.5,290.4v68.4
	 M184.5,319.3l-16.6-12.7"/>
<polyline class="st10" points="499.7,306.1 501.2,306.7 502.8,306.8 "/>
<line class="st9" x1="449.2" y1="283.4" x2="499.7" y2="306.2"/>
<polyline class="st10" points="449.2,283.6 447.6,283 446,282.8 "/>
<path class="st9" d="M526.8,371.2h108.6 M533.6,328.4v-21.6"/>
<polyline class="st10" points="635.4,371 637.1,370.8 638.6,370.3 640.1,369.4 641.3,368.2 642.2,366.7 642.7,365.2 643,363.5 "/>
<polyline class="st10" points="519.2,363.5 519.5,365.2 520,366.7 520.9,368.2 522.1,369.4 523.6,370.3 525.1,370.8 526.8,371 "/>
<path class="st9" d="M627.7,328.4v-26.5 M614.3,348.7v22.4 M614.3,328.4v-21.6 M600.8,348.7v22.4 M600.8,328.4v-21.6 M587.4,348.7
	v22.4 M587.4,328.4v-21.6 M574,348.7v22.4 M574,328.4v-21.6 M560.6,348.7v22.4 M560.6,328.4v-21.6 M547.1,348.7v22.4 M547.1,328.4
	v-21.6 M533.7,348.7v22.4 M519.2,363.5v-58.3"/>
<line class="st10" x1="627.7" y1="301.9" x2="627.2" y2="299.4"/>
<path class="st9" d="M724.7,266.6h-67.4 M643.1,363.5v-65.8 M627.7,348.7v22.4"/>
<polyline class="st10" points="724.7,266.5 726.4,266.3 727.9,265.8 729.4,264.8 730.6,263.6 731.5,262.2 732,260.6 732.2,259 "/>
<path class="st9" d="M724.7,98.6H596.9 M681.6,135h-24.4 M681.6,154.2h-24.4 M681.6,173.5h-24.4 M681.6,192.8h-24.4 M681.6,212
	h-24.4 M681.6,231.3h-24.4 M681.6,250.6h-24.4"/>
<polyline class="st10" points="732.2,106.3 732,104.6 731.5,103.1 730.6,101.6 729.4,100.4 727.9,99.5 726.4,99 724.7,98.8 "/>
<path class="st9" d="M657.2,98.6v178.7 M681.6,115.7h-24.4"/>
<polyline class="st10" points="655,282.7 655.9,281.5 656.6,280.2 657.1,278.8 657.2,277.3 "/>
<path class="st9" d="M560.8,79.4l14.4,16.7 M522.6,76.8H555"/>
<polyline class="st10" points="560.8,79.4 559.6,78.4 558.1,77.5 556.6,76.9 555,76.8 "/>
<line class="st9" x1="600" y1="98.6" x2="600" y2="181.1"/>
<polyline class="st10" points="600.1,118 600.4,119.9 601.1,121.6 "/>
<line class="st9" x1="622" y1="282.8" x2="622" y2="162.2"/>
<polyline class="st10" points="622,224.5 621.7,222.6 621,220.8 "/>
<polyline class="st10" points="622,162.2 621.7,160.3 621,158.6 "/>
<path class="st9" d="M622.4,285.4l4.9,14 M621.1,158.5L601,121.7"/>
<line class="st10" x1="622.1" y1="282.8" x2="622.6" y2="285.4"/>
<line class="st9" x1="601" y1="184.8" x2="621" y2="220.8"/>
<polyline class="st10" points="600.1,181.1 600.4,183 601.1,184.8 "/>
<line class="st9" x1="581.8" y1="283.4" x2="560.3" y2="283.4"/>
<line class="st10" x1="560.3" y1="283.4" x2="559" y2="283.6"/>
<path class="st0" d="M642.1,399.1l0.5-0.5 M641.4,399.1l1.2-1.2 M640.7,399.1l1.9-1.8 M640,399.1l2.6-2.5 M639.2,399.1l3.4-3.2
	 M638.5,399.1l3.8-3.7 M637.8,399.1l3.8-3.7 M637.1,399.1l3.8-3.7 M636.4,399.1l3.8-3.7 M635.6,399.1l3.8-3.7 M634.9,399.1l3.8-3.7
	 M634.2,399.1l3.8-3.7 M633.4,399.1l3.8-3.7 M632.7,399.1l3.8-3.7 M632,399.1l3.8-3.7 M631.3,399.1l3.8-3.7 M630.6,399.1l3.8-3.7
	 M629.8,399.1l3.8-3.7 M629.8,398.5l3.2-3.1 M629.9,397.8l2.4-2.4 M629.9,397.1l1.7-1.7 M629.9,396.4l1-1 M629.9,395.6l0.2-0.2
	 M642.1,399.1l0.5-0.5 M641.4,399.1l1.2-1.2 M640.7,399.1l1.9-1.9 M640,399.1l2.6-2.6 M639.3,399.1l3.4-3.4 M638.6,399.1l3.8-3.7
	 M637.8,399.1l3.8-3.7 M637.1,399.1l3.8-3.7 M636.4,399.1l3.8-3.7 M635.7,399.1l3.8-3.7 M635,399.1l3.8-3.7 M634.2,399.1l3.8-3.7
	 M633.4,399.1l3.8-3.7 M632.7,399.1l3.8-3.7 M632,399.1l3.8-3.7 M631.3,399.1l3.8-3.7 M630.6,399.1l3.8-3.7 M629.8,399.1l3.8-3.7
	 M629.8,398.4l3.1-3 M629.8,397.7l2.4-2.3 M629.8,397.1l1.7-1.7 M629.8,396.4l1-1 M629.8,395.6l0.2-0.2"/>
<rect x="617.3" y="395.4" class="st0" width="12.6" height="3.7"/>
<rect x="629.9" y="395.4" class="st0" width="12.7" height="3.7"/>
<path class="st0" d="M667.4,399.1l0.5-0.5 M666.7,399.1l1.2-1.2 M666.1,399.1l1.8-1.8 M665.4,399.1l2.5-2.5 M664.7,399.1l3.2-3.2
	 M663.9,399.1l3.7-3.7 M663.2,399.1l3.8-3.7 M662.6,399.1l3.7-3.7 M661.8,399.1l3.7-3.7 M661.1,399.1l3.7-3.7 M660.4,399.1l3.7-3.7
	 M659.7,399.1l3.7-3.7 M659,399.1l3.7-3.7 M658.2,399.1l3.7-3.7 M657.5,399.1l3.7-3.7 M656.8,399.1l3.8-3.7 M656,399.1l3.8-3.7
	 M655.3,399.1l3.8-3.7 M655.3,398.5l3.1-3.1 M655.3,397.8l2.4-2.4 M655.3,397.1l1.7-1.7 M655.3,396.4l1-1 M655.3,395.6l0.2-0.2
	 M667.4,399.1l0.5-0.5 M666.7,399.1l1.2-1.2 M666,399.1l1.9-1.9 M665.3,399.1l2.6-2.6 M664.6,399.1l3.4-3.4 M663.8,399.1l3.8-3.7
	 M663.2,399.1l3.8-3.7 M662.6,399.1l3.7-3.7 M661.8,399.1l3.7-3.7 M661.1,399.1l3.7-3.7 M660.4,399.1l3.7-3.7 M659.7,399.1l3.7-3.7
	 M659,399.1l3.7-3.7 M658.2,399.1l3.7-3.7 M657.5,399.1l3.7-3.7 M656.8,399.1l3.7-3.7 M656,399.1l3.7-3.7 M655.3,399.1l3.7-3.7
	 M655.3,398.4l3-3 M655.3,397.7l2.4-2.3 M655.3,397.1l1.7-1.7 M655.3,396.4l1-1 M655.3,395.6l0.2-0.2"/>
<rect x="642.6" y="395.4" class="st0" width="12.7" height="3.7"/>
<rect x="655.3" y="395.4" class="st0" width="12.6" height="3.7"/>
<path class="st0" d="M692.9,399.1l0.5-0.5 M692.2,399.1l1.2-1.2 M691.4,399.1l1.9-1.8 M690.7,399.1l2.6-2.5 M690,399.1l3.4-3.2
	 M689.3,399.1l3.8-3.7 M688.6,399.1l3.8-3.7 M687.8,399.1l3.8-3.7 M687.1,399.1l3.9-3.7 M686.4,399.1l3.8-3.7 M685.7,399.1l3.8-3.7
	 M685,399.1l3.8-3.7 M684.3,399.1l3.8-3.7 M683.6,399.1l3.8-3.7 M682.8,399.1l3.8-3.7 M682.1,399.1l3.8-3.7 M681.4,399.1l3.8-3.7
	 M680.7,399.1l3.8-3.7 M680.7,398.5l3.1-3.1 M680.7,397.8l2.4-2.4 M680.7,397.1l1.7-1.7 M680.7,396.4l1-1 M680.7,395.6l0.2-0.2
	 M692.9,399.1l0.5-0.5 M692.2,399.1l1.2-1.2 M691.5,399.1l1.9-1.9 M690.8,399.1l2.6-2.6 M690,399.1l3.4-3.4 M689.3,399.1l3.8-3.7
	 M688.6,399.1l3.8-3.7 M687.8,399.1l3.8-3.7 M687.1,399.1l3.9-3.7 M686.4,399.1l3.8-3.7 M685.7,399.1l3.8-3.7 M685,399.1l3.8-3.7
	 M684.3,399.1l3.8-3.7 M683.6,399.1l3.8-3.7 M682.8,399.1l3.8-3.7 M682.1,399.1l3.8-3.7 M681.4,399.1l3.8-3.7 M680.7,399.1l3.8-3.7
	 M680.7,398.4l3.1-3 M680.7,397.7l2.4-2.3 M680.7,397.1l1.7-1.7 M680.7,396.4l1-1 M680.7,395.6l0.2-0.2"/>
<rect x="667.9" y="395.4" class="st0" width="12.7" height="3.7"/>
<rect x="680.6" y="395.4" class="st0" width="12.7" height="3.7"/>
<path class="st0" d="M718.2,399.1l0.5-0.5 M717.5,399.1l1.2-1.2 M716.8,399.1l1.9-1.8 M716,399.1l2.6-2.5 M715.3,399.1l3.4-3.2
	 M714.6,399.1l3.8-3.7 M713.9,399.1l3.8-3.7 M713.2,399.1l3.8-3.7 M712.4,399.1l3.8-3.7 M711.7,399.1l3.8-3.7 M711,399.1l3.8-3.7
	 M710.3,399.1l3.8-3.7 M709.6,399.1l3.8-3.7 M708.8,399.1l3.8-3.7 M708.1,399.1l3.9-3.7 M707.6,399.1l3.7-3.7 M706.8,399.1l3.7-3.7
	 M706.1,399.1l3.7-3.7 M706.1,398.5l3-3.1 M706.1,397.8l2.3-2.4 M706.1,397.1l1.6-1.7 M706.1,396.4l0.8-1 M706.1,395.6l0.1-0.2
	 M718.2,399.1l0.5-0.5 M717.5,399.1l1.2-1.2 M716.8,399.1l1.9-1.9 M716,399.1l2.6-2.6 M715.3,399.1l3.4-3.4 M714.6,399.1l3.8-3.7
	 M713.8,399.1l3.8-3.7 M713.1,399.1l3.9-3.7 M712.4,399.1l3.8-3.7 M711.7,399.1l3.8-3.7 M711,399.1l3.8-3.7 M710.3,399.1l3.8-3.7
	 M709.6,399.1l3.8-3.7 M708.8,399.1l3.8-3.7 M708.1,399.1l3.9-3.7 M707.4,399.1l3.8-3.7 M706.7,399.1l3.8-3.7 M706.1,399.1l3.7-3.7
	 M706.1,398.4l3-3 M706.1,397.7l2.3-2.3 M706.1,397.1l1.6-1.7 M706.1,396.4l0.8-1 M706.1,395.6l0.1-0.2"/>
<rect x="693.4" y="395.4" class="st0" width="12.7" height="3.7"/>
<rect x="706.1" y="395.4" class="st0" width="12.6" height="3.7"/>
<path class="st0" d="M743.6,399.1l0.5-0.5 M742.9,399.1l1.2-1.2 M742.2,399.1l1.9-1.8 M741.5,399.1l2.6-2.5 M740.8,399.1l3.4-3.2
	 M740,399.1l3.7-3.7 M739.3,399.1l3.7-3.7 M738.6,399.1l3.7-3.7 M737.8,399.1l3.7-3.7 M737.1,399.1l3.7-3.7 M736.4,399.1l3.7-3.7
	 M735.7,399.1l3.7-3.7 M735,399.1l3.8-3.7 M734.3,399.1l3.8-3.7 M733.6,399.1l3.8-3.7 M732.8,399.1l3.8-3.7 M732.1,399.1l3.9-3.7
	 M731.4,399.1l3.8-3.7 M731.4,398.5l3.1-3.1 M731.4,397.8l2.4-2.4 M731.4,397.1l1.7-1.7 M731.4,396.4l1-1 M731.4,395.6l0.2-0.2
	 M743.6,399.1l0.6-0.5 M742.8,399.1l1.3-1.2 M742.2,399.1l1.9-1.9 M741.5,399.1l2.6-2.6 M740.8,399.1l3.4-3.4 M740,399.1l3.7-3.7
	 M739.3,399.1l3.7-3.7 M738.6,399.1l3.7-3.7 M737.8,399.1l3.7-3.7 M737.1,399.1l3.7-3.7 M736.4,399.1l3.7-3.7 M735.7,399.1l3.7-3.7
	 M735,399.1l3.7-3.7 M734.3,399.1l3.7-3.7 M733.6,399.1l3.7-3.7 M732.8,399.1l3.7-3.7 M732.1,399.1l3.9-3.7 M731.4,399.1l3.8-3.7
	 M731.4,398.4l3.1-3 M731.4,397.7l2.4-2.3 M731.4,397.1l1.7-1.7 M731.4,396.4l1-1 M731.4,395.6l0.2-0.2"/>
<rect x="718.7" y="395.4" class="st0" width="12.7" height="3.7"/>
<rect x="731.4" y="395.4" class="st0" width="12.7" height="3.7"/>
<text transform="matrix(1 0 0 1 619.19 394.44)" class="st11 st12">1</text>
<text transform="matrix(1 0 0 1 622.18 394.44)" class="st11 st12 st13">m</text>
<text transform="matrix(1 0 0 1 632.82 394.44)" class="st11 st12">2</text>
<text transform="matrix(1 0 0 1 635.81 394.44)" class="st11 st12 st13">m</text>
<text transform="matrix(1 0 0 1 645.92 394.44)" class="st11 st12">3</text>
<text transform="matrix(1 0 0 1 648.91 394.44)" class="st11 st12 st13">m</text>
<text transform="matrix(1 0 0 1 659.33 394.44)" class="st11 st12">4</text>
<text transform="matrix(1 0 0 1 662.27 394.44)" class="st11 st12 st13">m</text>
<text transform="matrix(1 0 0 1 672.43 394.44)" class="st11 st12">5</text>
<text transform="matrix(1 0 0 1 675.43 394.44)" class="st11 st12 st13">m</text>
<text transform="matrix(1 0 0 1 685.69 394.44)" class="st11 st12">6</text>
<text transform="matrix(1 0 0 1 688.68 394.44)" class="st11 st12 st13">m</text>
<text transform="matrix(1 0 0 1 698.84 394.44)" class="st11 st12">7</text>
<text transform="matrix(1 0 0 1 701.84 394.44)" class="st11 st12 st13">m</text>
<text transform="matrix(1 0 0 1 712.1 394.44)" class="st11 st12">8</text>
<text transform="matrix(1 0 0 1 715.04 394.44)" class="st11 st12 st13">m</text>
<text transform="matrix(1 0 0 1 725.36 394.44)" class="st11 st12">9</text>
<text transform="matrix(1 0 0 1 728.3 394.44)" class="st11 st12 st14">m</text>
<text transform="matrix(1 0 0 1 736.77 394.44)" class="st11 st12">10</text>
<text transform="matrix(1 0 0 1 742.75 394.44)" class="st11 st12">m</text>
<path class="st9" d="M645.4,292.3l9.6-9.5 M732.2,106.3V259 M732.2,115.7h-25.3 M732.2,135H708 M732.2,154.2H708 M732.2,173.5H708
	 M732.2,192.8H708 M732.2,212H708 M732.2,231.3H708 M732.2,250.6h-30.8"/>
<polyline class="st10" points="645.4,292.3 644.4,293.5 643.7,294.8 643.2,296.3 643.1,297.7 "/>
<path class="st9" d="M681.6,98.6H580.9 M226.9,229.1h-22.8 M226.9,172.1h-22.8 M226.9,115h-22.8 M226.8,57.8H204"/>
<polyline class="st10" points="575.2,96 576.4,97.1 577.8,97.9 579.4,98.5 580.9,98.6 "/>
<path class="st9" d="M584.2,154.4l36.8,66.4 M583.2,150.7V93.8"/>
<polyline class="st10" points="583.2,150.7 583.4,152.6 584.2,154.4 "/>
<line class="st9" x1="559" y1="283.4" x2="532.9" y2="288"/>
<polyline class="st10" points="532.9,288 531.1,288.5 529.6,289.4 528.2,290.9 "/>
<line class="st9" x1="528.2" y1="290.8" x2="520.8" y2="300.5"/>
<polyline class="st10" points="520.8,300.6 520,301.9 519.5,303.5 519.2,305.2 "/>
<path class="st15" d="M576.8,281.6h1.5c0.8,0,1.3,0.5,1.3,1.3c0,0.7-0.5,1.3-1.3,1.3h-0.8v1.4h-0.6V281.6z M578.2,283.6
	c0.4,0,0.7-0.3,0.7-0.7s-0.3-0.7-0.7-0.7h-0.7v1.5H578.2z"/>
<path class="st15" d="M574.1,280.6c0-0.6,0.4-1,1-1h6c0.6,0,1,0.4,1,1v6c0,0.6-0.4,1-1,1h-6c-0.6,0-1-0.4-1-1V280.6z M581.6,280.6
	c0-0.3-0.2-0.5-0.5-0.5h-6c-0.3,0-0.5,0.2-0.5,0.5v6c0,0.3,0.2,0.5,0.5,0.5h6c0.3,0,0.5-0.2,0.5-0.5V280.6z"/>
</svg>
