<?xml version="1.0" encoding="utf-8"?>
<!-- Generator: Adobe Illustrator 24.2.3, SVG Export Plug-In . SVG Version: 6.00 Build 0)  -->
<svg version="1.1" id="圖層_1" xmlns="http://www.w3.org/2000/svg" xmlns:xlink="http://www.w3.org/1999/xlink" x="0px" y="0px"
	 viewBox="0 0 817.9 429.8" style="enable-background:new 0 0 817.9 429.8;" xml:space="preserve">
<style type="text/css">
	.st0{fill:none;stroke:#000000;stroke-width:0.72;stroke-linecap:round;stroke-linejoin:round;}
	.st1{clip-path:url(#SVGID_2_);}
	.st2{fill-rule:evenodd;clip-rule:evenodd;}
	.st3{fill:none;stroke:#FF0000;stroke-width:0.72;stroke-linecap:round;stroke-linejoin:round;}
	.st4{fill:none;stroke:#5CB872;stroke-width:0.72;stroke-linecap:round;stroke-linejoin:round;}
	.st5{fill:none;stroke:#000000;stroke-width:0.12;stroke-linecap:round;stroke-linejoin:round;}
	.st6{fill:none;stroke:#000000;stroke-width:0.72;stroke-linecap:round;stroke-linejoin:bevel;}
	.st7{fill:none;stroke:#FF0000;stroke-width:0.84;stroke-linecap:round;stroke-linejoin:bevel;}
	.st8{fill:none;stroke:#FF0000;stroke-width:0.84;stroke-linecap:round;stroke-linejoin:round;}
</style>
<line class="st0" x1="516.8" y1="16.2" x2="795.1" y2="16.2"/>
<line class="st0" x1="356.1" y1="405.6" x2="357.7" y2="404"/>
<line class="st0" x1="356.1" y1="409.3" x2="361.4" y2="404"/>
<line class="st0" x1="357.7" y1="411.3" x2="365.1" y2="404"/>
<line class="st0" x1="361.5" y1="411.3" x2="368.9" y2="404"/>
<line class="st0" x1="365.2" y1="411.3" x2="372.6" y2="404"/>
<line class="st0" x1="369" y1="411.3" x2="376.3" y2="404"/>
<line class="st0" x1="372.7" y1="411.3" x2="380" y2="404"/>
<line class="st0" x1="376.4" y1="411.3" x2="383.8" y2="404"/>
<line class="st0" x1="380.1" y1="411.3" x2="387.5" y2="404"/>
<line class="st0" x1="383.8" y1="411.3" x2="391.2" y2="404"/>
<line class="st0" x1="387.5" y1="411.3" x2="394.9" y2="404"/>
<line class="st0" x1="391.3" y1="411.3" x2="398.6" y2="404"/>
<line class="st0" x1="395" y1="411.3" x2="402.4" y2="404"/>
<line class="st0" x1="398.8" y1="411.3" x2="402.7" y2="407.4"/>
<line class="st0" x1="402.5" y1="411.3" x2="402.7" y2="411.2"/>
<line class="st0" x1="356.1" y1="405.7" x2="357.8" y2="404"/>
<line class="st0" x1="356.1" y1="409.4" x2="361.6" y2="404"/>
<line class="st0" x1="357.9" y1="411.3" x2="365.3" y2="404"/>
<line class="st0" x1="361.6" y1="411.3" x2="369" y2="404"/>
<line class="st0" x1="365.4" y1="411.3" x2="372.7" y2="404"/>
<line class="st0" x1="369.1" y1="411.3" x2="376.5" y2="404"/>
<line class="st0" x1="372.8" y1="411.3" x2="380.2" y2="404"/>
<line class="st0" x1="376.5" y1="411.3" x2="383.9" y2="404"/>
<line class="st0" x1="380.2" y1="411.3" x2="387.6" y2="404"/>
<line class="st0" x1="384" y1="411.3" x2="391.3" y2="404"/>
<line class="st0" x1="387.7" y1="411.3" x2="395" y2="404"/>
<line class="st0" x1="391.5" y1="411.3" x2="398.8" y2="404"/>
<line class="st0" x1="395.2" y1="411.3" x2="402.5" y2="404"/>
<line class="st0" x1="398.9" y1="411.3" x2="402.7" y2="407.6"/>
<line class="st0" x1="402.6" y1="411.3" x2="402.7" y2="411.3"/>
<g>
	<g>
		<defs>
			<rect id="SVGID_1_" x="10.2" y="15.7" width="507.2" height="0.9"/>
		</defs>
		<clipPath id="SVGID_2_">
			<use xlink:href="#SVGID_1_"  style="overflow:visible;"/>
		</clipPath>
		<g class="st1">
			<line class="st0" x1="1.1" y1="16.2" x2="516.8" y2="16.2"/>
		</g>
	</g>
</g>
<line class="st0" x1="524.7" y1="299.4" x2="241.5" y2="299.4"/>
<line class="st0" x1="276.4" y1="180.8" x2="276.4" y2="299.4"/>
<line class="st0" x1="256" y1="16.2" x2="256" y2="181.8"/>
<polyline class="st0" points="241.5,16.2 241.5,181.8 256,181.8 "/>
<polygon class="st0" points="241.5,236.2 241.5,299.4 276.4,299.4 276.4,236.2 241.5,181.8 256,181.8 256,139 276.4,139 
	276.4,236.2 241.5,236.2 241.5,181.8 "/>
<polyline class="st2" points="261.6,280.1 261.7,280.1 261.7,280.1 261.9,280 261.8,279.3 261.7,279.4 261.7,279.6 261.7,279.8 "/>
<polyline class="st2" points="261.6,283.7 261.6,284.3 261.7,284.1 261.7,284.1 261.6,283.9 "/>
<polyline class="st2" points="261.4,281.2 261.5,282.2 261.6,282.2 261.8,282 262,282 262.1,281.8 262.1,281.7 261.9,281.4 
	261.7,281.3 261.5,281.3 "/>
<polyline class="st2" points="261.1,282.2 261.1,282.6 261.2,282.8 261.2,282.9 261.2,281.9 261.1,282.1 "/>
<path class="st2" d="M260.5,283.4v1l0.1-0.1v-0.7L260.5,283.4"/>
<polyline class="st2" points="260.4,282.9 260.5,283.4 261.2,283.4 261.2,283.6 261.3,283.8 261.2,281.9 261.2,281.9 261.2,282.9 
	"/>
<polyline class="st2" points="260.1,283.5 260.2,283.7 260.2,283.8 260.2,284 260.2,284.2 260.3,284.4 260.3,281.9 260.2,281.7 
	260.2,281.7 "/>
<polyline class="st2" points="259.9,282.2 259.9,282.5 260,282.6 260,282.8 260,282.9 260,281.7 260,281.9 259.9,282.1 "/>
<polyline class="st2" points="259.6,284.2 259.6,284.4 259.6,284.4 "/>
<path class="st2" d="M259.4,285.2L259.4,285.2l0.2-0.1l0.2-0.1l0.2-0.1h0.2l0.2-0.1h0.2l0.2-0.1l0.9-0.1l0.2-0.1v-0.1l0.1-0.1
	l-0.1-0.1h-0.1l-0.2-0.1v-0.6l-0.1-1.1l-0.1-0.2V282l-0.1-1l-0.1,3.1h-0.4l-0.2,0.1h-0.2v-1c0-0.4-0.1-0.9-0.2-1.2v2.2l-0.1,0.1
	h-0.5l-0.1-0.2V284l-0.1-0.2v-0.2l-0.1-0.2v-0.1"/>
<polyline class="st2" points="259.3,284 259.3,284.3 259.3,284.4 259.3,284.6 259.3,282.5 259.3,282.3 259.3,282 "/>
<polyline class="st2" points="259.2,285.1 259.2,285.2 259.4,285.2 259.5,283.5 259.6,283.4 259.8,283.4 260.1,283.4 260.1,281.7 
	260,281.7 260,282.9 259.9,282.9 259.6,282.8 259.5,282.8 259.3,282.9 259.3,284.7 259.3,284.7 259.3,284.9 "/>
<path class="st2" d="M258.9,281.6v0.1c0.2,0.7,0.3,1.4,0.4,2.1l0.1,0.1v-2.1l0.1-0.1l0.1-0.1h0.7v1.8l0.1-1.8h0.5l0.1,0.1h0.3
	l0.1,0.1l0.1,1.9v0.5l0.1-3.1h-0.2c-0.6-0.2-1.2,0-1.9-0.2h-0.1l-0.1,0.2l-0.1,0.2L258.9,281.6"/>
<polyline class="st2" points="257.1,283.9 257.2,284.1 257.2,284.1 257.2,282.9 257.1,282.8 257.1,282.6 "/>
<path class="st2" d="M257,284.5L257,284.5l0.1,0.1l0.2-0.2h0.1l0.2-0.1h0.2l0.5-0.1l0.2-0.1l0.1-0.1l-0.1-0.1v-0.1h-0.1v-0.4
	l-0.1-0.8v-0.2l-0.1-0.2V282l-0.1-0.1H258v1.9h0l-0.2,0.1h-0.2l-0.1,0.1v-0.1c-0.2-0.1,0-0.4-0.2-0.8v1l-0.1,0.1l-0.1,0.1"/>
<path class="st2" d="M256.9,280.5l0.1,0.1l0.2-0.1h0.1l0.2-0.1h0.2l0.2-0.1h0.8l0.2,0.1c0.7,0,0.4,0.2,1.1-0.1l0.2-0.1l0.1-0.1
	l-0.1-0.1l-0.2-0.1h-0.1l-0.1-0.1h-1.1l-0.2-0.1h-1.2l-0.1,0.1l-0.1,0.2l-0.1,0.2"/>
<path class="st2" d="M256.8,282.2L256.8,282.2l0.1,0.2l0.1,0.2l0.1,0.2v0.2l0.1,0.2v0.2l0.1,0.2v0.1l0.1,0.2v-1.4l0.1-0.1h0.1
	l0.2,0.1h0.1l0.4,0.1v0.1c0,0.4,0.2,0.8,0.2,1.2V282l-0.1,0.2v-0.1l-0.4-0.2l-0.4-0.4h-0.1l-0.1,0.1l-0.1,0.2l-0.1,0.1l-0.1,0.2"/>
<path class="st2" d="M255.6,282l0.1,0.1v0.1c0.1,0.3,0.2,0.6,0.2,0.8l0.1,0.2v0.2l0.1,0.2v0.2l0.1,0.2v0.5l0.1,0.1h0.1l0.1-0.2
	l0.1-0.2v-0.4l-0.1-0.2v-0.4l-0.1-0.2v-0.2c-0.1-0.4-0.1-0.8-0.2-1.2v-0.1l-0.1-0.1l-0.1,0.1l-0.1,0.1v0.1l-0.1,0.2"/>
<path class="st2" d="M255.2,279v0.2h0.2l0.2-0.1c0.3-0.1,0.6-0.1,0.8-0.1h0.4c0.4,0.1,0.9-0.2,1.3,0h2l0.2,0.1c0.4,0,0.8,0,1.2,0.1
	l0.2,0.2l0.1,0.7l0.1-0.1l0.4-0.4l0.2-0.1l0.3-0.3l0.1-0.1V279l-0.2-0.2h-0.1l-0.1-0.1l-0.2-0.1l-0.2-0.1c-0.7,0-1.2,0.1-1.9,0.1
	h-0.8c-0.8,0-1.3-0.1-2.1-0.1h-0.1l-0.2-0.1h-0.4l-0.2-0.1l-0.2-0.1l-0.1-0.1l0,0l-0.2-0.1h-0.1l-0.3,0.3v0.1l-0.1,0.2l-0.1,0.2"/>
<path class="st2" d="M261.6,271.7L261.6,271.7L261.6,271.7l0.2-0.1l0.1-0.1l0.1-0.1l0.2-0.1l0.1-0.2l0.2-0.2l0.4-0.2l0.1-0.1
	l0.1-0.1v-0.1l0.1-0.1l-0.1-0.1l-0.1-0.1h-0.4l-0.1,0.1l-0.1,0.1l-0.1,0.1c-0.4,0.5-0.2,0.5-0.5,0.9l-0.1,0.2v0.1"/>
<polyline class="st2" points="261.4,273.6 261.5,273.5 261.4,273.3 261.4,273.2 "/>
<path class="st2" d="M261.4,273v0.2h0.1c0.3,0.1,0.6,0.4,0.8,0.7l0.1,0.2h0.1l0.1,0.2l0.1,0.1l0.1,0.2l0.1,0.1l0.1,0.2l0.1-0.1v-0.1
	c-0.1-0.3-0.2-0.5-0.3-0.7l-0.1-0.2l-0.1-0.2c-0.2-0.3-0.4-0.6-0.7-0.9l-0.1-0.2l-0.1-0.1l-0.1,0.1l-0.1,0.1l-0.1,0.2l-0.1,0.1"/>
<polyline class="st2" points="261.2,270.4 261.2,270.9 261.4,270.9 261.4,270.8 261.5,270.7 261.5,270.6 261.3,270.5 "/>
<polyline class="st2" points="260.9,271.3 260.9,271.7 261,271.9 261,272 261,272.2 261,271 260.9,271.1 "/>
<polyline class="st2" points="260.4,272.6 260.4,273.5 260.4,273.5 260.5,273.3 260.5,273 260.4,272.9 "/>
<path class="st2" d="M260.2,273.9L260.2,273.9c0.5,0,1.1,0.3,1.4-0.2v-0.1l-0.2-0.1V273c0-0.7-0.1-1.4-0.2-2.1l-0.1-0.5l-0.1,3.2h0
	l-0.1-0.1h-0.4v-0.9c-0.1-0.5-0.1-1.1-0.1-1.6l-0.1-0.1"/>
<path class="st2" d="M260,271.2L260,271.2c0,0.8,0.1,1.6,0.2,2.3v-2.6h0.4l0.2,0.1h0.2l0.1,1.2c0,0.4,0.1,0.9,0.1,1.3v0.1l0.1-3.2
	l-0.2-0.1h-1l-0.1,0.6v0.2"/>
<polyline class="st2" points="259.6,272.9 259.6,273.5 259.6,273.3 259.6,273.1 "/>
<path class="st2" d="M259.1,271.3L259.1,271.3c0.1,0.7,0.2,1.4,0.2,2.1l0.1,0.2V271h0.6l0.1-0.6h-0.2l-0.2,0.1h-0.2l-0.2-0.1v0.6
	l-0.1,0.1"/>
<path class="st2" d="M258.3,273.9L258.3,273.9l0.1,0.2l0.1-0.1l0.1-0.1l0.2-0.1h1.2l0.1,0.1h0.1v-0.4h-0.7v-0.6
	c0-0.6-0.1-1.3-0.2-1.9v2.5h-0.1l-0.3-0.1h-0.3v-0.2c-0.1-0.6-0.2-1.2-0.2-1.9v-0.1l-0.1,2.3l-0.1,0.1"/>
<path class="st2" d="M258,270.9L258,270.9c0.1,0.8,0.4,1.8,0.4,2.6v0.1l0.1-2.3v-0.1l0.1-0.2h0.1l0.1-0.1h0.5v-0.7h-0.4l-0.1-0.1
	h-0.2l-0.1-0.1l-0.1,0.1l-0.2,0.4l-0.1,0.2"/>
<path class="st2" d="M257,273.4l0.1,0.1c0.1,0.5,0.3,1.4,0.4,1.9l0.1,0.1l0.1-0.1l0.1-0.1v-0.1l0.1-0.2l0.1-0.1v-0.1l-0.1-0.2v-0.1
	l-0.1-0.2l-0.1-0.2c-0.1-0.3-0.1-0.7-0.2-1V273l-0.1-0.1h-0.1l-0.1,0.2l-0.1,0.1"/>
<polyline class="st2" points="256.8,272 256.9,272.1 257.1,272.2 257.2,272.3 257.4,272.5 257.5,272.6 257.6,272.8 257.7,272.9 
	257.8,273.1 257.9,273.2 258,273.3 258,273 257.9,272.8 257.8,272.6 257.8,272.5 257.6,272.3 257.6,272.2 257.5,272 257.4,271.9 
	257.4,271.8 257.2,271.7 257,271.6 256.9,271.5 256.9,271.5 "/>
<path class="st2" d="M256.1,271.7l0.2,0.1l0.1,0.1h0.2l0.2,0.1l0.1,0.1l0.1-0.5l0.1-0.2l0.1-0.2l0.1-0.1l0.1-0.2l0.1-0.1l0.2-0.2
	l0.1-0.2l0.1-0.1l0.1-0.1l0.1-0.1V270l0.1-0.2v-0.4l-0.1-0.4l-0.1-0.2l-0.1-0.1v0.1l-0.1,0.2l-0.1,0.2l-0.1,0.2v0.2l-0.1,0.2
	l-0.1,0.1v0.1l-0.1,0.1l-0.1,0.1c-0.1,0.4-0.3,0.7-0.5,1l-0.1,0.2v0.1l-0.1-0.1h-0.2l-0.2,0.1L256.1,271.7"/>
<polyline class="st2" points="255.9,271.5 255.9,272.2 255.9,272.1 256,272 255.9,271.8 "/>
<polyline class="st2" points="255.6,271.8 255.7,272 255.7,272 255.7,270.4 255.6,270.3 "/>
<polyline class="st2" points="255.6,273.8 255.6,273.9 255.7,274 255.7,274.2 255.7,274.4 255.8,274.5 255.8,274.7 255.9,274.8 
	255.9,275 255.9,275.2 256,275.3 256.1,275.2 256.1,275.1 256.2,275 256.2,274.6 256.1,274.4 256.1,274.2 256,273.7 256,273.5 
	255.9,273.3 255.8,273.3 255.7,273.5 255.6,273.7 "/>
<path class="st2" d="M255.2,270.2l0.1,0.1c0.1,0.4,0.2,0.9,0.3,1.3l0.1,0.2v-1.5l0.1-0.1l0.1,0.1l0.2,0.1l0.1,0.1l0.2,0.1l0.2,0.1
	v-0.1c-0.2-0.3-0.4-0.6-0.5-0.9l-0.1-0.2h-0.1l-0.1-0.1l-0.1,0.1l-0.1,0.1l-0.1,0.2l-0.1,0.2l-0.1,0.2"/>
<polyline class="st2" points="254.8,272.2 254.9,272.3 255.1,272.3 255.3,272.4 255.5,272.4 255.7,272.6 255.9,272.6 256,272.7 
	256.1,272.7 256.5,273 256.6,273 256.6,273.1 256.6,273 256.5,272.8 256.5,272.7 256.3,272.5 256.1,272.4 256,272.3 255.9,272.2 
	255.9,271.5 255.9,271.4 255.8,271.2 255.7,271 255.7,270.8 255.7,270.6 255.7,272 255.6,272 255.4,271.8 255.2,271.7 255.1,271.7 
	254.9,271.8 254.8,272 254.8,272 "/>
<polyline class="st2" points="261.7,262.4 261.8,262.5 262,262.4 262,261.6 262,261.6 261.9,261.8 261.9,261.9 261.9,262.1 "/>
<path class="st2" d="M259.2,265.8l0.2,0.1c0.6,0.4,1.2,0.8,1.7,1.3l0.1,0.2l0.1-0.1c-0.1-0.6-1.3-1.6-1.9-1.9l-0.2-0.1"/>
<polyline class="st2" points="259.1,264.2 259.1,264.8 259.1,264.8 259.2,264.7 259.4,264.6 259.7,264.3 259.9,264.2 260,263.9 
	260,263.9 259.9,263.7 259.8,263.7 259.5,263.7 259.3,263.7 259.3,263.8 259.1,264 "/>
<path class="st2" d="M258.8,261.8l0.2,0.1c0.2,0.2,0.6,0.5,0.8,0.7v0.1l0.1,0.1c0.4,0.4,0.8,0.9,1.1,1.4l0.1,0.1l0.1-0.1l-0.1-0.1
	c-0.4-1.5-1.1-1.8-2.2-2.7l-0.2-0.1"/>
<path class="st2" d="M258.1,264.8l0.1,0.5l0.1,0.1l0.2,0.1l0.2,0.1l0.2,0.1l0.1,0.1l0.2,0.1v-0.5h0.2c0.5,0,1,0,1.4,0.1h0.4l0.1,0.1
	h0.3l0.1,0.1h0.5l0.2-0.1l0.2-0.1l0.1-0.1l0.1-0.1l-0.1-0.1l-0.2-0.1l-0.1-0.1l-0.2-0.1h-3.3v-0.7l-0.1,0.2l-0.1,0.2l-0.1,0.2
	l-0.1,0.1h-0.4l-0.2-0.1"/>
<path class="st2" d="M258.1,260.8l0.1,0.7l0.1,0.1l0.2,0.1l0.4,0.2v-0.5h1.4l0.2,0.1h0.7l0.2,0.1h0.3l0.1,0.1h0.1l0.1,0.1v0.7
	l0.2-0.2c0.3-0.3,0.5-0.5,0.8-0.7v-0.1l-0.1-0.1c-0.5-0.3-0.3-0.3-0.9-0.3h-3.8"/>
<polyline class="st2" points="257.5,264.2 257.5,264.3 257.6,264.5 257.6,264.6 257.6,264.8 257.7,263.6 257.6,263.8 257.5,264 "/>
<path class="st2" d="M257.4,259.8L257.4,259.8c0,0.6,0.2,0.5,0.1,1l0.1,0.1l0.1-1.6l-0.2,0.2L257.4,259.8"/>
<path class="st2" d="M255.1,265.2v0.1l0.1,0.1c0.7-0.2,1.5-0.3,2.3-0.2h0.2v0.1c0.1,0.6,0.2,1.1,0.3,1.7l0.1,0.1l0.2-0.1v-0.1
	l0.1-0.2c0-0.5-0.1-0.6-0.1-1l-0.1-0.2v-0.1l-0.1-0.5l-0.1-0.1l-0.1-0.2v-0.2v-0.2l-0.1-0.1V264l-0.1-0.1l-0.1-0.1h-0.1l-0.1,1.1
	H257l-0.2-0.1h-0.5l-0.2-0.1H256l-0.1-0.1h-0.2l-0.2,0.1l-0.1,0.2l-0.1,0.1L255.1,265.2"/>
<path class="st2" d="M255.1,261.3l0.1,0.1l0.2,0.1h0.1l0.2-0.1l0.1-0.1l0.2-0.1l0.2-0.1h1.6v0.1l0.1,0.2v0.2l0.1,0.2v0.2l0.1,0.2
	v0.2l0.1,0.2v0.2l0.1,0.2v0.2l0.1,0.1l0.1,0.1l0.1-0.1l0.1-0.2c0.3-0.6-0.1-1.2-0.1-1.9v-0.1l-0.1-0.7l-0.1-0.2v-0.5l-0.1-0.2v-0.6
	l-0.1-0.2l-0.1-0.1H258l-0.1,0.1l-0.1,1.6l-0.1-0.1c-0.5,0-1,0-1.4-0.1l-0.2-0.1v-0.1l-0.2-0.1c-0.3,0.1-0.5,0.3-0.5,0.6l-0.1,0.2"
	/>
<path class="st2" d="M262.5,250.4v1.6c0.1-0.4,0.1-0.8,0.1-1.1v-0.2"/>
<path class="st2" d="M261.9,251.2L261.9,251.2c0.1,0.8,0.2,1.5,0.3,2.2v-2.9l-0.1,0.2l-0.1,0.2l-0.1,0.2"/>
<path class="st2" d="M261.2,255.3l0.1-0.1V254"/>
<polyline class="st2" points="260.6,252.6 260.6,252.8 260.7,252.9 260.7,253.1 260.8,253.3 260.8,253.5 260.8,253.5 260.9,252.1 
	260.8,252.2 260.7,252.3 260.6,252.5 "/>
<path class="st2" d="M259.8,253.6l0.1,0.6l0.1-0.1h0.1l0.1-0.1l0.7-0.1v0.2l0.1,0.2v0.2l0.1,0.2v0.5l0.1,0.1h0.1l0.1-0.1l0.1-1.3
	l0.8-0.1l0.1,0.2c0,0.8,0.1,1.6,0.2,2.3v0.2l0.1,0.1l0.1-0.1l0.1-0.2c0.3-0.5-0.1-1.1-0.1-1.8v-0.2l-0.1-0.2v-0.5l-0.1-0.2v-1.3
	l-0.1-0.1v-1.7l-0.1-0.1l-0.1,0.1l-0.1,0.1v3h-0.9l-0.1-0.3V253l-0.1-0.3v-0.2l-0.1-0.2v-0.1l-0.1-0.1V252l-0.1-0.1h-0.1l-0.1,1.4
	h-0.7l-0.2-0.1l-0.1,0.1"/>
<polyline class="st2" points="259.5,254.4 259.5,254.6 259.5,254.7 259.6,255.7 259.7,255.8 259.9,255.8 260,255.7 260.2,255.6 
	260.2,255.5 260.1,255.2 260.1,255.1 260,255 260,254.8 259.9,254.6 259.9,254.2 259.8,253.6 259.8,253.7 259.8,253.8 259.5,252.6 
	259.5,252.5 "/>
<path class="st2" d="M258.7,253L258.7,253l0.1,0.1l0.1-0.1l0.1-0.1l0.1-0.1l0.1-0.1v0.1c0,0.5,0.1,1,0.2,1.5v-1.7h0.1l0.1-0.1
	l0.2-0.1l0.1-0.1l0.1-0.1l0.1-0.2l-0.1-0.2h-0.1c-0.5-0.2-0.9,0.5-1,0.8l-0.1,0.2"/>
<path class="st2" d="M257.6,252.8v0.2l0.1,0.1c0,0.3,0.2,0.4,0.1,0.9l0.1,0.2v0.2c0.1,0.3,0.1,0.6,0.1,0.9v0.2l0.1,0.1h0.1l0.1-0.2
	l0.1-0.1v-0.8h0.1l0.1,0.1l0.2,0.1l0.2,0.2l0.2,0.1l0.4,0.4l0.1,0.2l0.1,0.1l0.1,0.2l-0.1-1l-0.1,0.1l-0.1-0.1l-0.7-0.9l-0.1-0.1
	h-0.1l-0.2,0.1l-0.1,0.1h-0.1v-0.4l-0.1-0.2v-0.1l-0.1-0.3v-0.2l-0.1-0.2v-0.2l-0.1-0.1v-0.1l-0.1-0.1l-0.2,0.2l-0.1,0.1l-0.1,0.2"
	/>
<polyline class="st2" points="256.5,254.4 256.5,254.6 256.6,254.7 256.6,255.8 256.6,255.9 256.6,256 256.6,252.8 256.6,252.6 
	256.6,252 256.5,251.9 256.5,251.6 "/>
<path class="st2" d="M256.3,256.2l0.1,0.1l0.1,0.1c0.5,0.1,0.8,0.4,1.3,0.5h0.1l0.2-0.1c0.4-0.4-0.5-0.7-0.8-0.8l-0.2-0.1H257v-0.4
	l-0.1-0.1v-0.2l-0.1-0.2v-0.2l-0.1-0.2v-0.2l-0.1-0.2V254l-0.1-0.2v-0.4l-0.1-0.2L256.3,256.2L256.3,256.2l-0.2,0"/>
<path class="st2" d="M256.1,251.2v0.2c0.2,0.9,0.3,2,0.4,2.8v-2.7l0.1-0.1l0.1,0.1h0.1l0.2,0.1l0.2,0.1l0.2,0.2l0.1-0.1l-0.1-0.1
	l-0.1-0.2l-0.1-0.2l-0.1-0.4l-0.1-0.1v-0.2l-0.1-0.2l-0.2-0.1h-0.1l-0.1,0.1l-0.1,0.2L256,251l-0.1,0.2"/>
<polyline class="st2" points="255.3,254.3 255.4,254.4 255.5,254.4 255.6,254.4 255.8,254.3 256.1,254.1 256.3,253.9 256.5,253.8 
	256.5,253.5 256.1,253.4 256,253.4 255.8,253.5 255.7,253.5 255.6,253.7 255.5,253.8 255.4,254.2 "/>
<polyline class="st2" points="261.4,221.8 261.6,221.7 261.8,221.7 261.9,221.6 262,221.5 261.9,221.4 261.7,221.4 261.7,221.3 
	261.7,220.7 261.5,219.5 261.5,219 "/>
<polyline class="st2" points="261.1,219.2 261.1,219.3 261.1,219.5 261.1,219.8 261.2,220 261.2,220.2 261.2,218.9 261.1,219 "/>
<polyline class="st2" points="260.1,219.7 260.1,219.8 260.2,219.9 260.4,220.5 260.4,220.7 260.4,220.9 260.5,221 260.5,221 
	260.6,220.8 260.6,220.4 260.6,220.1 260.6,219.9 260.5,219.8 260.5,219.6 260.5,219.6 260.5,219.3 260.4,219.2 260.3,219.1 
	260.2,219.1 260.2,219.3 260.1,219.5 "/>
<path class="st2" d="M259.7,214.2l0.1,0.1c1.1,0.1,1.6,0.2,1.6,1.5l0.1,1.3l0.1-0.1l0.2-0.2l0.1-0.1l0.1-0.2v-0.2l0.1-0.2V215
	l-0.1-0.2v-0.2l-0.1-0.2l-0.2-0.4l-0.1-0.2l-0.1-0.1h-0.2l-0.2,0.1l-0.1,0.1l-0.2,0.1l-0.2,0.1h-0.2l-0.2,0.1l-0.2,0.1h-0.1"/>
<path class="st2" d="M258.2,217.5l0.1,0.1h0.1l0.4-0.1h1.6l0.2-0.1h0.4l0.4-0.1l0.1-0.1l0.2-0.1l-0.1-1.3v0.1l-0.1,0.2v0.2l-0.1,0.1
	l-0.1,0.2l-0.1,0.1l-0.1,0.1l-0.1,0.1l-0.2,0.1l-0.2,0.1h-0.2c-0.5,0-1,0-1.4-0.1l-0.1-0.1h-0.1v-0.2l-0.2-0.8v-0.4l-0.1-0.1
	l-0.1,1.6l-0.1,0.1l-0.1,0.2"/>
<path class="st2" d="M258,221.8l0.1-0.1c1-0.2,2-0.2,3,0.1h0.2v-0.5h-0.1c-0.4,0-0.9-0.1-1.3-0.1h-0.1l-0.1-0.2l0,0l-0.1,0.2h-0.8
	l-0.3-0.1h-0.4V221l-0.1-0.2v-0.1"/>
<path class="st2" d="M257.9,219.4l0.1,0.5h0.2c0.6,0.1,0.5-0.1,0.9-0.1l0.2-0.1l-0.2-0.6v0.2l-0.1,0.1l-0.2,0.1H258"/>
<path class="st2" d="M257.9,218.1v0.8l0.1-0.1l0.1-0.1h0.1l0.1-0.1h0.7l0.1,0.1v0.4l0.2,0.6l0.1-0.1l0.1-0.2l0.1-0.1v-0.7h0.4
	c0.3,0,0.7,0,1,0.1l0.2,0.1l0.1,0.1c-0.1,0.8,0,1.6,0.1,2.4v0.5h0.1l0.1-2.8l0.4-0.2h0.1l0.1-0.1v-0.1l-0.4-0.4l-0.2-0.1h-0.2
	l-0.2-0.1H261l-0.3,0.1h-2.6L258,218l0,0"/>
<path class="st2" d="M257.8,221.7L257.8,221.7l0.1,0.2l0.1-0.1l0.1-1.1h0.1c0.5,0.1,1,0.2,1.4,0.5l0.1,0.1l0.1-0.2l-0.1-0.2
	c-0.4-0.2-0.5-0.4-0.9-0.5h-0.2l-0.2-0.1h-0.2l-0.1-0.1l-0.1-0.1v-0.3l-0.1-0.5v2l-0.1,0.1"/>
<path class="st2" d="M257.4,218.7L257.4,218.7c0,0.5,0.4,0.9,0.3,1.3l0.1,0.2l0.1-2.1l-0.1,0.1l-0.2,0.2l-0.1,0.2"/>
<polyline class="st2" points="256.8,217.5 256.8,217.7 256.9,217.8 257,217.7 257,217.5 257.1,217.4 257.1,217.3 257,217.1 
	257,216.9 257,216.7 256.9,216.5 256.8,216.2 256.8,216 256.8,215.9 "/>
<polyline class="st2" points="256.6,221.5 256.6,221.3 256.6,220.8 256.6,220.8 "/>
<path class="st2" d="M256.5,219.3l0.1,0.5h1.1l-0.1-0.5H257l-0.2-0.1h-0.3"/>
<path class="st2" d="M256.2,215.6L256.2,215.6c0.3,0.5,0.4,1.1,0.5,1.6v-1.4l0.1-0.1c0.4,0,0.8,0,1.1,0.2l0.2,0.1l0.1,0.2v0.1
	l0.1,0.4v0.2l0.1,0.2l0.1-1.6h-0.1l-0.2,0.2l-0.7-0.2c-0.5-0.2-1-1.1-1.3,0L256.2,215.6"/>
<path class="st2" d="M255.7,218.6L255.7,218.6c0.3,1,0.5,2,0.5,3.1l0.1,0.1h0.1l0.1-0.2l0.1-0.1v-0.7l0.1-0.1l0.2-0.1h1v0.1l0.1,0.2
	v0.4l0.1,0.1v-3.3l-0.1,0.1l-0.1,2.1H257l-0.2-0.1l-0.1-0.1l-0.1,0.1l-0.1-0.1v-0.2l-0.1-0.5h-0.1V219c-0.1-0.3-0.1-0.8-0.3-1h0
	l-0.1,0.2l-0.1,0.1l-0.1,0.2"/>
<polyline class="st2" points="259.5,206.3 259.5,206.8 262.6,206.8 262.7,206.7 262.9,206.7 262.9,206.6 262.9,206.6 262.7,206.5 
	262.4,206.4 262,206.4 261.9,206.3 261.2,206.3 261.1,206.3 260.5,206.3 "/>
<polyline class="st2" points="259.1,210 259.2,210 259.4,209.9 259.5,209.9 259.6,209.8 259.8,209.7 260,209.6 260.2,209.5 
	260.4,209.4 260.4,209.3 260.5,209.2 260.5,209.1 260.4,209 260.4,209 260.2,209 260,209 259.8,209 259.7,209.1 259.6,209.3 
	259.3,209.5 259.3,209.7 259.1,209.9 "/>
<path class="st2" d="M259.1,211.8L259.1,211.8c0.8,0.3,1.4,0.6,2,1.1l0.1,0.2l0.1-0.1l-0.1-0.2c-0.4-0.6-0.9-1.1-1.6-1.4l-0.1-0.1
	l-0.1,0.1l-0.2,0.1L259.1,211.8"/>
<path class="st2" d="M258.8,205.4v0.3c0.2,0.4,0.1,0.9,0.3,1.4v0.4c0.1,0.4,0.1,1,0.2,1.4v0.1l0.1,0.1l0.1-0.1l0.1-0.2v-0.1l0.1-0.4
	v-0.1l-0.1-0.2v-0.2l-0.1-0.2l-0.1-0.2v-0.2l-0.1-0.2l0,0c-0.1-0.8-0.1-1.3-0.2-2v-0.2l-0.1-0.1h-0.1l-0.1,0.1l-0.1,0.2l-0.1,0.2"/>
<polyline class="st2" points="258.5,213 258.5,212.9 258.7,212.7 258.7,212.7 258.8,212.4 258.8,212.1 258.7,211.7 258.6,211.5 
	258.5,211.2 258.5,211.1 258.5,210.8 258.5,210.8 "/>
<path class="st2" d="M257.9,209.4v0.1c0.1,1,0.5,2.2,0.5,3.3l0.1,0.1v-2.2h0.2c0.9,0,1.8,0.1,2.6,0.2h0.1v0.1h0.2l0.1,0.1l0.1-0.1
	h0.1l0.2-0.1l0.2-0.1l0.2-0.1l0.1-0.1l-0.1-0.1l-0.4-0.2h-0.2l-0.2-0.1h-3.5v-0.1c0-0.3-0.1-0.9-0.1-1.1v0l-0.1-0.1h0l-0.1,0.1
	l-0.1,0.2"/>
<polyline class="st2" points="257.6,208.4 257.7,208.5 257.8,208.5 258,208.4 258.1,208.2 258.3,208.1 258.4,208 258.5,207.9 
	258.5,207.9 258.6,207.7 258.5,207.6 258.4,207.5 258,207.5 257.9,207.6 257.9,207.6 257.8,207.8 257.7,208.1 257.6,208.2 "/>
<polyline class="st2" points="256.6,212.3 256.7,212.3 256.8,212.3 256.8,212.3 257,212.1 257.2,212 257.4,211.9 257.5,211.8 
	257.6,211.7 257.6,211.5 257.6,211.4 257.5,211.3 257.4,211.2 257.2,211.3 257,211.3 256.9,211.4 256.9,211.5 256.8,211.6 
	256.7,211.8 256.6,212 256.6,212.1 "/>
<path class="st2" d="M256.2,209.3l0.1,0.1h0.1l0.1,0.1l0.2,0.1l0.2,0.1h0.1l0.2,0.1l0.2,0.1l0.2,0.1h0.1l-0.1-0.1
	c-0.3-0.3-0.4-0.7-0.7-1l-0.1-0.1l-0.1,0.1l-0.2,0.4"/>
<polyline class="st2" points="256.1,208.3 256.2,208.4 256.3,208.3 256.4,208.2 256.8,208 256.9,207.9 256.9,207.8 257,207.8 
	257,207.6 257,207.4 256.9,207.3 256.7,207.3 256.5,207.3 256.4,207.5 256.2,208 256.1,208.1 "/>
<path class="st2" d="M255.1,210.8l0.1,0.1l0.1,0.1l0.2-0.1l0.1-0.1l0.2-0.1h0.2l0.1-0.1h2l-0.1-0.4l-0.2-0.1c-0.7,0-1.3-0.1-2-0.2
	l-0.1-0.1l-0.1,0.1l-0.2,0.1l-0.2,0.4l-0.1,0.2"/>
<path class="st2" d="M255,206.8L255,206.8l0.1,0.1c0.3-0.1,0.6-0.1,0.8-0.1h3l-0.1-0.5h-2.4l-0.2-0.1h-0.5l-0.2-0.1h-0.1l-0.1-0.1
	h-0.1l-0.1,0.1l-0.1,0.2l-0.1,0.1l-0.1,0.2"/>
<path class="st2" d="M262.4,196.3v1.6c0.1-0.4,0.1-0.8,0.1-1.1v-0.2"/>
<path class="st2" d="M261.8,197.1L261.8,197.1c0.1,0.8,0.2,1.5,0.3,2.2v-2.9l-0.1,0.2l-0.1,0.2l-0.1,0.2"/>
<path class="st2" d="M261.2,201.2l0.1-0.1V200"/>
<polyline class="st2" points="260.6,198.5 260.6,198.7 260.6,198.8 260.6,199 260.7,199.2 260.7,199.4 260.8,199.4 260.8,198 
	260.7,198.1 260.6,198.2 260.6,198.4 "/>
<path class="st2" d="M259.8,199.5l0.1,0.6l0.1-0.1h0.1l0.1-0.1l0.7-0.1v0.2l0.1,0.2v0.2l0.1,0.2v0.5l0.1,0.1h0.1l0.1-0.1l0.1-1.3
	l0.8-0.1l0.1,0.2c0,0.8,0.1,1.6,0.2,2.3v0.2l0.1,0.1l0.1-0.1l0.1-0.2c0.3-0.5-0.1-1.1-0.1-1.8v-0.2l-0.1-0.2v-0.5l-0.1-0.2V198
	l-0.1-0.1v-1.7l-0.1-0.1l-0.1,0.1l-0.1,0.1v3h-0.9l-0.1-0.3v-0.1l-0.1-0.3v-0.2l-0.1-0.2v-0.1l-0.1-0.1v-0.1l-0.1-0.1h-0.1l-0.1,1.4
	h-0.7l-0.2-0.1l-0.1,0.1"/>
<polyline class="st2" points="259.4,200.3 259.4,200.4 259.5,200.6 259.5,201.6 259.6,201.7 260,201.6 260.1,201.5 260.2,201.3 
	260,201.1 260,201 260,200.9 259.9,200.7 259.9,200.4 259.8,200.1 259.8,199.5 259.7,199.6 259.7,199.7 259.4,198.5 259.4,198.4 "/>
<path class="st2" d="M258.6,198.9L258.6,198.9l0.1,0.1l0.1-0.1l0.1-0.1l0.1-0.1l0.1-0.1v0.1c0,0.5,0.1,1,0.2,1.5v-1.7h0.1l0.1-0.1
	l0.2-0.1l0.1-0.1l0.1-0.1l0.1-0.2l-0.1-0.2h-0.1c-0.5-0.2-0.9,0.5-1,0.8l-0.1,0.2"/>
<path class="st2" d="M257.5,198.6v0.2l0.1,0.1c0,0.3,0.2,0.4,0.1,0.9l0.1,0.2v0.2c0.1,0.3,0.1,0.6,0.1,0.9v0.2l0.1,0.1h0.1l0.1-0.2
	l0.1-0.1v-0.8h0.1l0.1,0.1l0.2,0.1l0.2,0.2l0.2,0.1l0.2,0.2l0.1,0.1l0.1,0.2l0.1,0.1l0.1,0.2l-0.1-1l-0.1,0.1l-0.1-0.1l-0.7-0.9
	l-0.1-0.1h-0.1l-0.2,0.1l-0.1,0.1h-0.1v-0.4l-0.1-0.2v-0.1l-0.1-0.3v-0.2l-0.1-0.2v-0.2l-0.1-0.1V198l-0.1-0.1l-0.1,0.1l-0.1,0.1
	l-0.1,0.1l-0.1,0.2"/>
<polyline class="st2" points="256.5,200.3 256.5,200.4 256.5,200.6 256.5,201.6 256.6,201.8 256.6,201.9 256.6,198.6 256.5,198.5 
	256.5,197.9 256.5,197.7 256.5,197.4 "/>
<path class="st2" d="M256.3,202.1l0.1,0.1l0.1,0.1c0.5,0.1,0.8,0.4,1.3,0.5h0.1l0.2-0.1c0.4-0.4-0.5-0.7-0.8-0.8l-0.2-0.1H257v-0.4
	l-0.1-0.1v-0.2l-0.1-0.2v-0.2l-0.1-0.2v-0.2l-0.1-0.2v-0.2l-0.1-0.2v-0.4l-0.1-0.2L256.3,202.1L256.3,202.1l-0.2,0"/>
<path class="st2" d="M256,197.1v0.2c0.2,0.9,0.3,2,0.4,2.8v-2.7l0.1-0.1l0.1,0.1h0.1l0.2,0.1l0.2,0.1l0.2,0.2l0.1-0.1l-0.1-0.1
	l-0.1-0.2l-0.2-0.5l-0.1-0.1v-0.2l-0.1-0.2l-0.2-0.1h-0.1l-0.1,0.1l-0.1,0.2l-0.4,0.4l-0.1,0.2"/>
<polyline class="st2" points="255.2,200.2 255.4,200.3 255.4,200.3 255.6,200.3 255.7,200.1 256.1,200 256.3,199.8 256.4,199.7 
	256.4,199.4 256.2,199.3 256,199.2 255.9,199.3 255.7,199.4 255.6,199.4 255.6,199.5 255.4,199.7 255.3,200.1 "/>
<path class="st2" d="M86.7,27.5l0.1,1.3v-0.2c0.3-1,0.7-1.9,1.1-2.9l0.1-0.2l0.2-0.2l0.1-0.2c0.1-0.5,0.2-0.3,0.2-0.8l-0.1-0.1V24
	c-0.2-0.5-0.4-1-0.5-1.5l-0.1-0.2l-0.1-0.1h-0.1v0.1c0,1.7-0.2,3.4-0.6,5l-0.1,0.2"/>
<polyline class="st2" points="86.3,30.3 86.5,30.5 86.6,30.4 86.8,30.3 86.9,30.1 86.9,29.9 86.8,29.7 86.8,29.6 86.7,29.3 
	86.7,28.8 86.7,27.5 86.6,27.8 86.5,28.1 86.4,28.4 86.4,30.2 "/>
<polyline class="st2" points="86,24.9 86.1,24.9 86.2,24.8 86.2,24.7 86.3,24.6 86.5,24.5 86.7,24.3 86.8,24.2 86.9,24 86.6,23.7 
	86.5,23.6 86.3,23.6 86.1,23.6 86.1,24.3 86.1,24.5 86,24.8 "/>
<path class="st2" d="M85.2,26.7L85.2,26.7c0.1-0.4,0.2-0.3,0.1-0.8v-0.2"/>
<path class="st2" d="M85.2,27.2l0.2,0.1c0.6,0,0.5,0.2,1.1-0.1l0.1-0.1L86.5,27l-0.2-0.1h-0.5l-0.1-0.1h-0.6"/>
<polyline class="st2" points="84.9,26.2 84.9,26.4 85,26.6 85,26.7 85,24.3 84.9,24 "/>
<polyline class="st2" points="84.6,24.6 84.6,24.6 84.7,24.9 84.7,24.9 84.7,25.1 84.7,25.2 84.7,24 84.7,24.2 84.6,24.5 "/>
<polyline class="st2" points="84.2,26.7 84.2,26.6 84.3,26.5 84.3,26.1 84.2,26 84.2,25.8 "/>
<path class="st2" d="M84.2,25.2v1.5l0.1-1h0.6V26l0.1,0.2V24h0.5l0.2,0.1h0.2l0.1,0.1l0.1,0.1l0.1-0.7h-1.3L84.7,24v1.2"/>
<path class="st2" d="M84,26.6v0.2l0.1,0.4h1.1v-0.4l0.1-1H86l0.2-0.1h0.2l0.2-0.1l0.1-0.1l-0.1-0.1l-0.2-0.1h-0.2H86h-1v-0.1
	c0-0.4-0.1-0.1-0.1-0.7v-0.1v2.5h-0.8v-1.6V25v-0.4L84,24.4v-0.2V24"/>
<path class="st2" d="M84,30.3v-0.2c0.2-0.4,0-0.5,0-0.8v-0.2"/>
<polyline class="st2" points="83.7,24.6 83.7,24.6 83.8,24.9 83.8,25.1 83.8,25.2 83.8,24 83.8,24.2 83.7,24.5 "/>
<polyline class="st2" points="83.2,28.8 83.3,28.8 83.3,29 83.4,29.1 83.5,29.4 83.7,29.6 83.8,30 83.8,30.2 83.8,30.2 83.9,30.3 
	83.9,30.3 83.9,29.1 84,29.1 84.2,29.1 84.3,29.2 84.6,29.3 84.7,29.4 84.8,29.4 84.9,29.3 85,29.1 85.2,29 85.6,28.9 85.8,28.8 
	85.9,28.8 86.3,28.8 86.3,28.8 86.3,29.6 86.4,29.7 86.4,30.2 86.4,28.4 86.3,28.5 86.3,28.6 86.3,28.5 86.2,28.5 86.1,28.5 
	85.9,28.4 85.8,28.4 85.6,28.4 85.5,28.4 85.3,28.5 85.2,28.6 85,28.7 84.9,28.8 84.8,29 84.8,29.1 84.7,29 84.4,28.8 84.2,28.5 
	84,28.4 83.9,28.2 83.9,28.2 83.7,28.1 83.7,28.2 83.5,28.3 83.5,28.4 83.3,28.5 83.3,28.7 "/>
<path class="st2" d="M83.1,27.3l0.1-0.1c0.2-0.1,0.5-0.2,0.8-0.1h0.1L84,26.7h-0.1c-0.8,0.1-0.6-0.3-0.7-0.8v-0.2"/>
<path class="st2" d="M83,26.2v0.5l0.1,0.2v-1.7c0-0.4-0.1-0.3-0.1-0.8v-0.1"/>
<polyline class="st2" points="82.9,27.2 83.1,27.3 83.2,25.7 83.9,25.8 83.8,24 83.8,25.2 83.1,25.2 83.1,26.9 83,27 "/>
<polyline class="st2" points="82.5,24 82.5,24.1 82.6,24.3 82.6,24.3 82.6,24.5 82.7,24.7 82.8,24.9 82.8,25.1 82.8,25.6 82.9,25.5 
	82.9,25.7 82.9,25.8 82.9,26 83,26.2 83,24.3 83.1,24.2 83.1,24.1 83.7,24.1 83.8,24 83.9,25.8 83.9,26 83.9,26.1 84,26.3 84,26.6 
	84,24 84.7,24 84.8,23.6 83.4,23.6 83.3,23.5 83.2,23.4 83,23.4 82.9,23.4 82.8,23.6 82.7,23.7 82.6,23.9 "/>
<path class="st2" d="M82,26.3L82,26.3L82,26.3c0.3-0.2,0.6-0.4,0.8-0.7v-0.4l-0.2-0.1h-0.1l-0.2,0.1l-0.1,0.1l-0.1-0.1L82,25.5
	l0,0.4v0.2"/>
<path class="st2" d="M81.4,29.7L81.4,29.7l0.2,0.1l0.1-0.1l0.7-0.7l0.1-0.2c0-0.5,0-0.3-0.4-0.5L82,28.4l-0.2,0.1v0.1l-0.1,0.1
	l-0.1,0.2l0,0.1l-0.1,0.1v0.2l-0.1,0.2"/>
<polyline class="st2" points="81.1,26.5 81.1,26.7 81.2,26.9 81.2,27.2 81.3,27.3 81.4,27.2 81.5,27 81.6,26.9 81.6,26.7 81.6,26.5 
	81.5,26.3 81.4,26.1 81.4,25.9 81.3,25.7 81.2,25.5 81.2,25.4 81.2,25.2 81.2,25.1 81.1,24.9 "/>
<path class="st2" d="M80.7,24.7l0.1,0.2V25l0.2,0.7v0.2l0.1,0.1v0.2l0.1,0.2V25l0.1-0.1l0.1,0.1c0.4,0.2,0.4,0.4,0.7,0.5l0.1,0.1
	l0.1-0.3l-0.4-0.6l-0.1-0.2l-0.1-0.1l-0.1-0.2L81.4,24l-0.1-0.1l-0.1-0.1h-0.1L81,23.9l-0.2,0.2l-0.1,0.2l-0.1,0.2"/>
<path class="st2" d="M119.9,27v1.4c0.2-1,0.7-1.9,1-2.8l0.1-0.2l0.1-0.5l0.1-0.2v-0.2l0.1-0.1v-0.3l-0.1-0.1v-0.1
	c-0.2-0.5-0.3-0.9-0.5-1.3l-0.1-0.2l-0.1-0.2l-0.1-0.1h-0.1l-0.1,0.1c-0.1,0.8-0.1,1.6-0.1,2.4V25l-0.1,0.1v0.4l-0.1,0.1v0.2
	l-0.1,0.1v0.2l-0.1,0.2v0.1l-0.1,0.2l-0.1,0.2"/>
<polyline class="st2" points="119.5,30.3 119.5,30.3 119.6,30.5 119.7,30.5 119.8,30.4 119.9,30.2 120.1,30 120.1,29.9 120.1,29.8 
	120,29.6 119.9,29.4 119.9,29.3 119.9,29.1 119.9,27 119.8,27.2 119.8,27.4 119.7,27.6 119.7,27.8 119.5,28.2 119.5,30.1 "/>
<polyline class="st2" points="119.3,26 119.4,26.6 119.4,26.2 "/>
<polyline class="st2" points="119.2,27 119.4,26.9 119.5,26.8 119.6,26.7 119.4,26.6 119.3,26 119.3,24.9 119.2,24.7 119.2,24.5 "/>
<polyline class="st2" points="118.8,24.8 118.8,24.9 118.9,25.1 118.9,25.3 118.9,25.4 118.9,25.5 118.9,24.5 118.9,24.6 "/>
<polyline class="st2" points="118.4,25.8 118.4,26.6 118.5,26.4 118.5,26 "/>
<path class="st2" d="M118.2,26.3l0.1,0.2V27h0.1l0.2,0.1h0.2l0.2,0.1h0.2v-0.5h-0.6v-0.8c-0.1-0.4-0.2-0.8-0.2-1.1l-0.1-0.2"/>
<polyline class="st2" points="117.8,24.9 117.9,25.1 117.9,25.2 118,25.5 118,24.5 117.9,24.6 117.9,24.8 "/>
<polyline class="st2" points="117.5,25.8 117.6,26.5 117.6,26 "/>
<polyline class="st2" points="117.2,30.3 117.2,30.2 117.4,30 117.4,29.6 117.3,29.4 117.2,29.3 117.2,29.1 "/>
<polyline class="st2" points="116.9,24.9 117,25.2 117.1,25.4 117.1,25.5 117.1,24.5 117,24.6 116.9,24.8 "/>
<path class="st2" d="M116.7,27l0.2-0.1h1.4v-0.4h-0.4l-0.2-0.1h-0.1l-0.1-0.7c-0.1-0.3-0.1-0.9-0.2-1.1l-0.1-0.2v2h-0.6"/>
<path class="st2" d="M116.6,28.8L116.6,28.8l0.2,0.4l0.3,0.9v0.1l0.1,0.1v-1.2l0.1-0.1l0.1,0.1h0.1l0.2,0.1l0.2,0.1l0,0l0.1-0.1h0.1
	l0.4-0.2l0.2-0.1l0.2-0.1l0.1-0.1h0.4v0.6l0.1,0.2v-1.3l-0.1,0.2v0.2l-0.1-0.1l-0.1-0.1l-0.2-0.1h-0.4l-0.2,0.1l-0.1,0.1l-0.3,0.3
	v0.1l0,0.1l-0.1-0.1c-0.3-0.2-0.5-0.4-0.7-0.7l-0.2-0.1l-0.2,0.2l-0.1,0.2L116.6,28.8"/>
<polyline class="st2" points="116.3,27 116.3,27 116.5,27.1 116.5,27.1 116.7,27 116.7,26.1 116.6,26 116.6,25.7 116.5,25.5 
	116.5,25.3 116.5,24.8 116.5,26.7 116.4,26.7 116.4,26.8 "/>
<path class="st2" d="M116.1,24.5l0.1,0.1c0.1,0.4,0.1,0.8,0.2,1.3v-2l-0.1,0.2l-0.1,0.2L116.1,24.5"/>
<polyline class="st2" points="115.5,27.8 115.6,27.5 115.6,27.5 115.7,27.3 115.7,26.9 115.6,26.7 115.6,26.5 115.6,26.3 
	115.6,26.1 115.5,26 "/>
<path class="st2" d="M114.8,23.6v0.2c0.2,1.2,0.4,2.6,0.5,3.8l0.1,0.1h0.1V26h0.2l0.2,0.1l0.1,0.1l0.2,0.1l0.2,0.1v0.2l0.1,0.1v-1.8
	c0-0.4,0.2-0.3,0.4-0.3l0.2-0.1v1.1l0.1,0.2l0.1,0.2v0.2l0.1,0.2v-1.8h0.8l0.1,1.1l0.1,0.2v0.2l0.1,0.2v0.2l0.1-1.8h0.7v1.1
	c0.1,0.3,0.1,0.7,0.1,1V27l0.2-0.1v-2.5h0.2l0.2-0.1v-0.1l0.1-0.1L120,24l-0.2-0.1c-0.3-0.2-0.6-0.1-1-0.1h-1.6l-0.1-0.1l-0.2-0.1
	h-0.1l-0.1,0.1V26l-0.1-0.1l-0.2-0.1l-0.2-0.2l-0.1-0.1l-0.1-0.1l-0.1-0.1l-0.1,0.1l-0.1,0.1v-0.1c-0.1-0.7-0.1-1.7-0.2-2.3
	l-0.1-0.1l-0.1,0.1l-0.1,0.1l-0.1,0.2l-0.1,0.2"/>
<path class="st2" d="M114.5,29.7l0.1,0.1l0.1-0.1l0.1-0.1l0.2-0.1l0.5-0.5l0.1-0.2v-0.1l-0.1-0.1c-0.6-0.4-0.7,0.1-0.8,0.5l-0.1,0.2
	l-0.1,0.2"/>
<path class="st2" d="M113.7,27l0.1,0.1l0.1-0.1h0.1c0.2-0.3,0.7-0.4,0.8-0.8v-0.1l-0.1-0.1l-0.1-0.1h-0.3l-0.2,0.1l-0.2,0.2
	l-0.1,0.1l-0.1,0.2l-0.1,0.2v0.1"/>
<path class="st2" d="M113.3,24.5l0.2,0.1c0.4,0.1,0.8,0.3,1.1,0.6l0.2,0.1v-0.1l-0.1-0.2c-0.3-0.3-0.1-0.2-0.5-0.7l-0.1-0.1
	l-0.1-0.1V24l-0.1-0.2l-0.1-0.1h-0.1l-0.1,0.1l-0.1,0.2l-0.1,0.1l-0.1,0.2"/>
<rect x="190.8" y="404.8" class="st0" width="8.5" height="6.5"/>
<rect x="199.2" y="402.2" class="st0" width="18.4" height="9.2"/>
<rect x="213.8" y="367.7" class="st0" width="10.6" height="22.4"/>
<rect x="203.2" y="367.7" class="st0" width="10.6" height="22.4"/>
<rect x="285.7" y="367.7" class="st0" width="10.5" height="22.4"/>
<rect x="275.1" y="367.7" class="st0" width="10.6" height="22.4"/>
<line class="st0" x1="190.8" y1="411.3" x2="199.2" y2="404.8"/>
<line class="st0" x1="190.8" y1="404.8" x2="199.2" y2="411.3"/>
<line class="st3" x1="795.1" y1="16.2" x2="795.1" y2="32"/>
<line class="st4" x1="783.6" y1="411.3" x2="795.1" y2="411.3"/>
<line class="st0" x1="795.1" y1="411.3" x2="795.1" y2="16.2"/>
<rect x="452.3" y="349.5" class="st5" width="72.4" height="61.9"/>
<polygon class="st5" points="452.3,349.5 452.3,350.1 473.4,350.1 473.4,349.5 452.3,299.4 "/>
<line class="st5" x1="524.7" y1="349.5" x2="524.8" y2="295.4"/>
<rect x="524.7" y="328.4" class="st5" width="0.7" height="21.1"/>
<rect x="451.6" y="299.4" class="st5" width="0.7" height="21.1"/>
<line class="st5" x1="601.8" y1="411.3" x2="591.2" y2="411.3"/>
<line class="st0" x1="551.1" y1="305.9" x2="631.1" y2="305.9"/>
<line class="st0" x1="652.2" y1="303.9" x2="652.2" y2="85.2"/>
<polyline class="st0" points="652.2,305.9 654.2,305.9 654.2,87.2 675.8,87.2 675.8,35.2 703.3,35.2 703.3,22.6 "/>
<line class="st0" x1="779.3" y1="22.6" x2="779.3" y2="411.3"/>
<line class="st0" x1="10.2" y1="411.3" x2="795.1" y2="411.3"/>
<line class="st0" x1="551.1" y1="303.9" x2="631.1" y2="303.9"/>
<polyline class="st0" points="652.2,85.2 673.9,85.2 673.9,33.2 701.3,33.2 "/>
<line class="st0" x1="654.2" y1="108.9" x2="654.2" y2="128.6"/>
<line class="st0" x1="701.3" y1="33.2" x2="701.3" y2="20.6"/>
<line class="st0" x1="654.2" y1="128.6" x2="633.1" y2="128.6"/>
<line class="st0" x1="633.1" y1="108.9" x2="654.2" y2="108.9"/>
<line class="st0" x1="654.2" y1="130.6" x2="631.1" y2="130.6"/>
<line class="st0" x1="633.1" y1="128.6" x2="633.1" y2="108.9"/>
<line class="st0" x1="631.1" y1="130.6" x2="631.1" y2="106.9"/>
<line class="st0" x1="631.1" y1="106.9" x2="654.2" y2="106.9"/>
<line class="st0" x1="703.3" y1="19.3" x2="795.1" y2="19.3"/>
<line class="st0" x1="674.7" y1="328.1" x2="675.9" y2="326.9"/>
<line class="st0" x1="674.7" y1="331.9" x2="679.6" y2="326.9"/>
<line class="st0" x1="674.7" y1="335.6" x2="683.3" y2="326.9"/>
<line class="st0" x1="674.7" y1="339.3" x2="687.1" y2="326.9"/>
<line class="st0" x1="674.7" y1="343.1" x2="690.8" y2="326.9"/>
<line class="st0" x1="674.7" y1="346.8" x2="694.5" y2="326.9"/>
<line class="st0" x1="674.7" y1="350.5" x2="698.2" y2="326.9"/>
<line class="st0" x1="674.7" y1="354.2" x2="702" y2="326.9"/>
<line class="st0" x1="674.7" y1="357.9" x2="705.7" y2="326.9"/>
<line class="st0" x1="674.7" y1="361.7" x2="709.4" y2="326.9"/>
<line class="st0" x1="674.7" y1="365.4" x2="687.7" y2="352.4"/>
<line class="st0" x1="689.4" y1="350.7" x2="713.2" y2="326.9"/>
<line class="st0" x1="674.7" y1="369.2" x2="687.7" y2="356.1"/>
<line class="st0" x1="693.1" y1="350.7" x2="716.9" y2="326.9"/>
<line class="st0" x1="674.7" y1="372.9" x2="687.7" y2="359.9"/>
<line class="st0" x1="696.9" y1="350.7" x2="720.6" y2="326.9"/>
<line class="st0" x1="674.7" y1="376.6" x2="687.7" y2="363.6"/>
<line class="st0" x1="700.6" y1="350.7" x2="724.3" y2="326.9"/>
<line class="st0" x1="674.7" y1="380.3" x2="687.7" y2="367.3"/>
<line class="st0" x1="704.3" y1="350.7" x2="728" y2="326.9"/>
<line class="st0" x1="674.7" y1="384" x2="687.7" y2="371"/>
<line class="st0" x1="708.1" y1="350.7" x2="731.8" y2="326.9"/>
<line class="st0" x1="674.7" y1="387.8" x2="687.7" y2="374.8"/>
<line class="st0" x1="711.8" y1="350.7" x2="735.5" y2="326.9"/>
<line class="st0" x1="674.7" y1="391.5" x2="687.7" y2="378.5"/>
<line class="st0" x1="715.5" y1="350.7" x2="739.2" y2="326.9"/>
<line class="st0" x1="674.7" y1="395.2" x2="689.5" y2="380.4"/>
<line class="st0" x1="719.2" y1="350.7" x2="742.9" y2="326.9"/>
<line class="st0" x1="674.7" y1="398.9" x2="693.2" y2="380.4"/>
<line class="st0" x1="723" y1="350.7" x2="746.7" y2="326.9"/>
<line class="st0" x1="674.7" y1="402.6" x2="696.9" y2="380.4"/>
<line class="st0" x1="726.7" y1="350.7" x2="750.4" y2="326.9"/>
<line class="st0" x1="674.7" y1="406.4" x2="700.7" y2="380.4"/>
<line class="st0" x1="730.4" y1="350.7" x2="754.2" y2="326.9"/>
<line class="st0" x1="674.7" y1="410.1" x2="704.4" y2="380.4"/>
<line class="st0" x1="734.2" y1="350.7" x2="757.9" y2="326.9"/>
<line class="st0" x1="677.2" y1="411.3" x2="708.1" y2="380.4"/>
<line class="st0" x1="737.9" y1="350.7" x2="761.6" y2="326.9"/>
<line class="st0" x1="680.9" y1="411.3" x2="711.8" y2="380.4"/>
<line class="st0" x1="741.6" y1="350.7" x2="765.3" y2="326.9"/>
<line class="st0" x1="684.6" y1="411.3" x2="715.6" y2="380.4"/>
<line class="st0" x1="745.3" y1="350.7" x2="769" y2="326.9"/>
<line class="st0" x1="688.3" y1="411.3" x2="719.3" y2="380.4"/>
<line class="st0" x1="749" y1="350.7" x2="772.8" y2="326.9"/>
<line class="st0" x1="692" y1="411.3" x2="723" y2="380.4"/>
<line class="st0" x1="752.8" y1="350.7" x2="776.5" y2="326.9"/>
<line class="st0" x1="695.8" y1="411.3" x2="726.7" y2="380.4"/>
<line class="st0" x1="756.5" y1="350.7" x2="779.3" y2="327.8"/>
<line class="st0" x1="699.5" y1="411.3" x2="730.5" y2="380.4"/>
<line class="st0" x1="760.2" y1="350.7" x2="779.3" y2="331.5"/>
<line class="st0" x1="703.2" y1="411.3" x2="734.2" y2="380.4"/>
<line class="st0" x1="763.9" y1="350.7" x2="779.3" y2="335.3"/>
<line class="st0" x1="707" y1="411.3" x2="738" y2="380.4"/>
<line class="st0" x1="763.9" y1="354.4" x2="779.3" y2="339"/>
<line class="st0" x1="710.7" y1="411.3" x2="741.7" y2="380.4"/>
<line class="st0" x1="763.9" y1="358.1" x2="779.3" y2="342.7"/>
<line class="st0" x1="714.4" y1="411.3" x2="745.4" y2="380.4"/>
<line class="st0" x1="763.9" y1="361.8" x2="779.3" y2="346.4"/>
<line class="st0" x1="718.2" y1="411.3" x2="749.1" y2="380.4"/>
<line class="st0" x1="763.9" y1="365.6" x2="779.3" y2="350.1"/>
<line class="st0" x1="721.9" y1="411.3" x2="752.8" y2="380.4"/>
<line class="st0" x1="763.9" y1="369.3" x2="779.3" y2="353.9"/>
<line class="st0" x1="725.6" y1="411.3" x2="756.5" y2="380.4"/>
<line class="st0" x1="763.9" y1="373.1" x2="779.3" y2="357.6"/>
<line class="st0" x1="729.3" y1="411.3" x2="760.3" y2="380.4"/>
<line class="st0" x1="763.9" y1="376.8" x2="779.3" y2="361.4"/>
<line class="st0" x1="733" y1="411.3" x2="779.3" y2="365.1"/>
<line class="st0" x1="736.8" y1="411.3" x2="779.3" y2="368.8"/>
<line class="st0" x1="740.5" y1="411.3" x2="779.3" y2="372.5"/>
<line class="st0" x1="744.2" y1="411.3" x2="779.3" y2="376.2"/>
<line class="st0" x1="748" y1="411.3" x2="779.3" y2="380"/>
<line class="st0" x1="751.7" y1="411.3" x2="779.3" y2="383.7"/>
<line class="st0" x1="755.4" y1="411.3" x2="779.3" y2="387.4"/>
<line class="st0" x1="759.1" y1="411.3" x2="779.3" y2="391.2"/>
<line class="st0" x1="762.8" y1="411.3" x2="779.3" y2="394.9"/>
<line class="st0" x1="766.6" y1="411.3" x2="779.3" y2="398.6"/>
<line class="st0" x1="770.3" y1="411.3" x2="779.3" y2="402.3"/>
<line class="st0" x1="774" y1="411.3" x2="779.3" y2="406.1"/>
<line class="st0" x1="777.8" y1="411.3" x2="779.3" y2="409.8"/>
<line class="st0" x1="674.7" y1="328.3" x2="676" y2="326.9"/>
<line class="st0" x1="674.7" y1="332" x2="679.8" y2="326.9"/>
<line class="st0" x1="674.7" y1="335.7" x2="683.5" y2="326.9"/>
<line class="st0" x1="674.7" y1="339.5" x2="687.2" y2="326.9"/>
<line class="st0" x1="674.7" y1="343.2" x2="690.9" y2="326.9"/>
<line class="st0" x1="674.7" y1="346.9" x2="694.6" y2="326.9"/>
<line class="st0" x1="674.7" y1="350.6" x2="698.3" y2="326.9"/>
<line class="st0" x1="674.7" y1="354.3" x2="702.1" y2="326.9"/>
<line class="st0" x1="674.7" y1="358.1" x2="705.8" y2="326.9"/>
<line class="st0" x1="674.7" y1="361.8" x2="709.6" y2="326.9"/>
<line class="st0" x1="674.7" y1="365.6" x2="687.7" y2="352.5"/>
<line class="st0" x1="689.5" y1="350.7" x2="713.3" y2="326.9"/>
<line class="st0" x1="674.7" y1="369.3" x2="687.7" y2="356.3"/>
<line class="st0" x1="693.3" y1="350.7" x2="717" y2="326.9"/>
<line class="st0" x1="674.7" y1="373" x2="687.7" y2="360"/>
<line class="st0" x1="697" y1="350.7" x2="720.7" y2="326.9"/>
<line class="st0" x1="674.7" y1="376.7" x2="687.7" y2="363.7"/>
<line class="st0" x1="700.8" y1="350.7" x2="724.5" y2="326.9"/>
<line class="st0" x1="674.7" y1="380.4" x2="687.7" y2="367.5"/>
<line class="st0" x1="704.5" y1="350.7" x2="728.2" y2="326.9"/>
<line class="st0" x1="674.7" y1="384.2" x2="687.7" y2="371.2"/>
<line class="st0" x1="708.2" y1="350.7" x2="731.9" y2="326.9"/>
<line class="st0" x1="674.7" y1="387.9" x2="687.7" y2="374.9"/>
<line class="st0" x1="711.9" y1="350.7" x2="735.6" y2="326.9"/>
<line class="st0" x1="674.7" y1="391.6" x2="687.7" y2="378.6"/>
<line class="st0" x1="715.6" y1="350.7" x2="739.4" y2="326.9"/>
<line class="st0" x1="674.7" y1="395.3" x2="689.6" y2="380.4"/>
<line class="st0" x1="719.3" y1="350.7" x2="743.1" y2="326.9"/>
<line class="st0" x1="674.7" y1="399" x2="693.4" y2="380.4"/>
<line class="st0" x1="723.1" y1="350.7" x2="746.8" y2="326.9"/>
<line class="st0" x1="674.7" y1="402.8" x2="697.1" y2="380.4"/>
<line class="st0" x1="726.8" y1="350.7" x2="750.5" y2="326.9"/>
<line class="st0" x1="674.7" y1="406.5" x2="700.8" y2="380.4"/>
<line class="st0" x1="730.6" y1="350.7" x2="754.3" y2="326.9"/>
<line class="st0" x1="674.7" y1="410.3" x2="704.5" y2="380.4"/>
<line class="st0" x1="734.3" y1="350.7" x2="758" y2="326.9"/>
<line class="st0" x1="677.3" y1="411.3" x2="708.2" y2="380.4"/>
<line class="st0" x1="738" y1="350.7" x2="761.7" y2="326.9"/>
<line class="st0" x1="681" y1="411.3" x2="712" y2="380.4"/>
<line class="st0" x1="741.7" y1="350.7" x2="765.4" y2="326.9"/>
<line class="st0" x1="684.7" y1="411.3" x2="715.7" y2="380.4"/>
<line class="st0" x1="745.5" y1="350.7" x2="769.2" y2="326.9"/>
<line class="st0" x1="688.5" y1="411.3" x2="719.4" y2="380.4"/>
<line class="st0" x1="749.2" y1="350.7" x2="772.9" y2="326.9"/>
<line class="st0" x1="692.2" y1="411.3" x2="723.1" y2="380.4"/>
<line class="st0" x1="752.9" y1="350.7" x2="776.7" y2="326.9"/>
<line class="st0" x1="695.9" y1="411.3" x2="726.8" y2="380.4"/>
<line class="st0" x1="756.6" y1="350.7" x2="779.3" y2="327.9"/>
<line class="st0" x1="699.7" y1="411.3" x2="730.6" y2="380.4"/>
<line class="st0" x1="760.3" y1="350.7" x2="779.3" y2="331.7"/>
<line class="st0" x1="703.4" y1="411.3" x2="734.3" y2="380.4"/>
<line class="st0" x1="763.9" y1="350.8" x2="779.3" y2="335.4"/>
<line class="st0" x1="707.1" y1="411.3" x2="738.1" y2="380.4"/>
<line class="st0" x1="763.9" y1="354.5" x2="779.3" y2="339.1"/>
<line class="st0" x1="710.8" y1="411.3" x2="741.8" y2="380.4"/>
<line class="st0" x1="763.9" y1="358.2" x2="779.3" y2="342.8"/>
<line class="st0" x1="714.5" y1="411.3" x2="745.5" y2="380.4"/>
<line class="st0" x1="763.9" y1="362" x2="779.3" y2="346.6"/>
<line class="st0" x1="718.3" y1="411.3" x2="749.2" y2="380.4"/>
<line class="st0" x1="763.9" y1="365.7" x2="779.3" y2="350.3"/>
<line class="st0" x1="722" y1="411.3" x2="753" y2="380.4"/>
<line class="st0" x1="763.9" y1="369.5" x2="779.3" y2="354"/>
<line class="st0" x1="725.7" y1="411.3" x2="756.7" y2="380.4"/>
<line class="st0" x1="763.9" y1="373.2" x2="779.3" y2="357.8"/>
<line class="st0" x1="729.4" y1="411.3" x2="760.4" y2="380.4"/>
<line class="st0" x1="763.9" y1="376.9" x2="779.3" y2="361.5"/>
<line class="st0" x1="733.2" y1="411.3" x2="779.3" y2="365.2"/>
<line class="st0" x1="736.9" y1="411.3" x2="779.3" y2="368.9"/>
<line class="st0" x1="740.7" y1="411.3" x2="779.3" y2="372.6"/>
<line class="st0" x1="744.4" y1="411.3" x2="779.3" y2="376.4"/>
<line class="st0" x1="748.1" y1="411.3" x2="779.3" y2="380.1"/>
<line class="st0" x1="751.8" y1="411.3" x2="779.3" y2="383.9"/>
<line class="st0" x1="755.5" y1="411.3" x2="779.3" y2="387.6"/>
<line class="st0" x1="759.2" y1="411.3" x2="779.3" y2="391.3"/>
<line class="st0" x1="763" y1="411.3" x2="779.3" y2="395"/>
<line class="st0" x1="766.7" y1="411.3" x2="779.3" y2="398.7"/>
<line class="st0" x1="770.4" y1="411.3" x2="779.3" y2="402.5"/>
<line class="st0" x1="774.2" y1="411.3" x2="779.3" y2="406.2"/>
<line class="st0" x1="777.9" y1="411.3" x2="779.3" y2="409.9"/>
<rect x="674.7" y="326.9" class="st0" width="104.6" height="84.4"/>
<path class="st2" d="M698.2,372.6l0.3,0.8l0.2,0.1c0.6,0.1,1.3-0.1,1.8-0.4l0.2-0.2l-1.7-0.3h-0.4"/>
<path class="st2" d="M698.5,362.9v0.4c-0.2,3.5-0.3,6.5-2.2,9.5l-0.2,0.2l0.7,0.5l0.1-0.1c1.9-2.9,2.3-6.7,2.5-10.1l0.1-0.4h1.2"/>
<path class="st2" d="M702.8,361.6l-0.5,0.4l0.1,0.3c0.3,0.9,0.5,1.8,0.7,2.6l0.1,0.4h0.9V365c-0.3-1-0.5-2-0.8-3l-0.1-0.4h2.9"/>
<path class="st2" d="M693.4,361.5l-0.6,0.4l0.1,0.3c0.2,1,0.4,1.7,0.5,2.7l0.1,0.4h0.8l-0.1-0.4l-0.5-3.1l-0.1-0.4h2.5"/>
<path class="st2" d="M699.4,358.4h-0.8v0.2c0,1.1-0.1,2-0.1,3.1l-0.1,0.4h-1v0.8h3.1v0.7c-0.1,1.3,0,2.6-0.1,3.8v0.8
	c-0.1,1.2-0.1,2.7-0.3,3.9l-0.1,0.1v0.1l-0.2,0.2l-0.1,0.1l-0.3,0.1H699l1.7,0.3l0.2-0.3l0.1-0.3l0.1-0.1v-0.4l0.1-0.2v-0.3l0.1-0.3
	v-0.4c0-0.8,0.1-1.6,0.1-2.5V368l0.1-0.4v-0.4c0-1.5,0.1-3,0.1-4.5v-0.6h-2v-0.2c0-0.9,0.1-1.7,0.1-2.7v-0.4"/>
<path class="st2" d="M694.7,358.3l-0.8,0.2l0.1,0.2c0.2,0.6,0.4,1,0.5,1.7l0.1,0.3h-2.2v0.8h3.8v0.1c-0.2,1.1-0.5,2.3-0.8,3.4
	l-0.1,0.4h-3.1v0.8h2.4v0.2c0,0.7,0,1.4-0.1,2.1v0.3h-2v0.8h1.8v0.1c-0.3,1.1-0.8,2.1-1.4,3.1l-0.2,0.3l0.7,0.5l0.2-0.2
	c0.7-1,1.3-2.2,1.6-3.4l0.1-0.3h1.9v-0.8h-1.7v-0.1c0.1-0.7,0.1-1.3,0.1-2v-0.4h2v-0.8h-1.2l0.1-0.2c0.3-0.9,0.5-1.8,0.7-2.7
	l0.1-0.4l-0.5-0.4h0.9v-0.8h-1.9l-0.1-0.1c-0.1-0.6-0.3-1.1-0.5-1.7l-0.1-0.4"/>
<path class="st2" d="M704.4,358.3l-0.8,0.2v0.1c0.2,0.5,0.4,1.1,0.5,1.6l0.2,0.5H702v0.8h4v0.1c-0.2,1.1-0.5,2.2-0.9,3.3l-0.1,0.4
	h-2.9v0.9h1.9v2.5h-1.9v0.9h1.9v4h0.9v-4h2v-0.9h-2v-2.5h2.4v-0.9h-1.4l0.1-0.2c0.3-0.9,0.6-1.8,0.8-2.7l0.1-0.3l-0.7-0.5h1v-0.8
	h-1.9l-0.1-0.3c-0.2-0.5-0.5-1.3-0.6-1.9l-0.1-0.2"/>
<path class="st2" d="M717.7,371.5l-0.4,0.1c-1.3,0.3-2.7,0.5-4.1,0.6l-0.3,0.1h5.6c0.9-0.2,1.8-0.4,2.7-0.6l0.4-0.1"/>
<path class="st2" d="M719.9,367l-0.8,0.5v0.1c0.7,0.9,1.4,1.9,2,2.9l0.1,0.2h-0.1c-1,0.3-2,0.5-3.1,0.7l-0.4,0.1l4,0.1
	c0.4,0.6,0.7,1.2,0.9,1.8l0.2,0.4l0.8-0.4l-0.1-0.3c-0.9-1.9-1.9-3.6-3.1-5.3l-0.2-0.3"/>
<path class="st2" d="M716.7,363.4l-0.2,0.4c-1.2,3-2.8,5.8-4.7,8.4l-0.2,0.2l0.3,0.9h0.2c2.1-0.3,4.1-0.5,6.1-0.9l0.4-0.1H713
	l0.1-0.2c1.7-2.4,3.2-5,4.3-7.8l0.2-0.4"/>
<path class="st2" d="M720,358.6h-1.9v0.9h1.1l0.1,0.4c0.9,2.4,2.5,4.5,4.6,6.1l0.3,0.2l0.5-0.7l-0.1-0.1c-2.1-1.5-3.7-3.6-4.6-6.1
	l-0.1-0.4"/>
<path class="st2" d="M714.8,358.4l-0.1,0.3c-0.9,2.7-2.6,5.1-4.9,6.8l-0.3,0.2l0.7,0.7h0.1c1.1-0.8,2.1-1.7,2.9-2.8l0.2-0.2l0.2-0.3
	c0.8-1.1,1.5-2.3,1.9-3.6l0.1-0.3l0.1-0.4"/>
<polyline class="st2" points="741,366.3 736.5,366.3 736.5,370.7 737.3,369.9 737.3,367.2 740,367.2 "/>
<polyline class="st2" points="741,366.3 740,367.2 740,369.9 737.3,369.9 736.5,370.7 741,370.7 "/>
<polyline class="st2" points="734.8,366.3 730.3,366.3 730.3,370.7 731.2,369.8 731.2,367.2 733.9,367.2 "/>
<polyline class="st2" points="734.8,366.3 733.9,367.2 733.9,369.8 731.2,369.8 730.3,370.7 734.8,370.7 "/>
<polyline class="st2" points="739,361.1 731.8,361.1 731.8,364.8 732.8,363.9 732.8,361.9 738.1,361.9 "/>
<polyline class="st2" points="739,361.1 738.1,361.9 738.1,363.9 732.8,363.9 731.8,364.8 739,364.8 "/>
<path class="st2" d="M741.8,358.8H727v0.8h1.1v11.7c-0.1,1,0.6,1.8,1.6,1.9c0.1,0,0.1,0,0.2,0h12.2v-0.9H730l-0.3-0.1l-0.3-0.2
	l-0.1-0.1l-0.2-0.3l-0.1-0.3v-11.8h12.8"/>
<path class="st2" d="M754.6,370.7l-0.2,0.2c-0.7,0.7-1.4,1.3-2.2,1.7l-0.4,0.2l0.7,0.8l0.2-0.1c1.1-0.7,2-1.5,2.9-2.5l0.2-0.2"/>
<path class="st2" d="M758.8,369.9l-0.1,0.4c-0.1,0.7-0.3,1.5-0.5,2.2l-0.2,0.1l1.1,0.1l0.1-0.2c0.2-0.6,0.4-1.1,0.4-1.7l0.1-0.4"/>
<path class="st2" d="M754.1,369.2L754.1,369.2c-1.7,0.6-3.4,1.2-5.1,1.7l-0.2,0.1l0.2,1l0.2-0.1c1.6-0.4,3-1.1,4.6-1.6l0.4-0.1"/>
<polyline class="st2" points="748.8,369.1 748.8,369.2 748,369.5 747.7,369.6 747.4,369.8 747.2,369.9 748.9,370 "/>
<polyline class="st2" points="753.2,363.5 749.6,363.5 749.6,368.1 750.4,367.2 750.4,364.4 752.3,364.4 "/>
<polyline class="st2" points="753.2,363.5 752.3,364.4 752.3,367.2 750.4,367.2 749.6,368.1 753.2,368.1 "/>
<path class="st2" d="M757.9,363.5l-0.1,0.3c-0.3,1.6-0.9,3.1-1.6,4.6l-0.1,0.3l-0.8,0.1v0.3c0.3,1,0.2,0.5-0.4,1.4l-0.2,0.2l1.1,0.2
	l0.2,0.5c0.5,1.2,2,3.5,3.1,1.4l0.1-0.1l-1.1-0.1H758l-0.3-0.2v-0.1l-0.2-0.2l-0.2-0.3l-0.2-0.4l-0.1-0.1l-0.2-0.6l-0.1-0.4
	l-0.1-0.3l0.1-0.1c1-1.8,1.7-3.8,2.2-5.8l0.1-0.4"/>
<polyline class="st2" points="757.3,358.5 756.6,359.1 756.8,359.3 757.1,359.5 757.3,359.8 757.5,360 757.8,360.3 757.9,360.6 
	758.6,359.9 758.5,359.7 758.2,359.4 757.5,358.7 "/>
<path class="st2" d="M747.2,358.4h-0.9v4.3h-1.7v0.9h1.7v6.7l-0.1,0.1l-0.6,0.2l-0.3,0.2l-0.3,0.1l-0.4,0.2l-0.4,0.1l0.3,0.9
	l0.2-0.1c1.3-0.5,2.5-1.1,3.7-1.8l0.4-0.2l-1.7-0.1v-6.3h1.5v-0.9h-1.5"/>
<path class="st2" d="M755.4,358.3h-0.8v0.2c-0.1,0.7-0.1,1.3,0,2v0.4h-5.9v0.8h5.9v0.1c0.1,2.2,0.3,4.5,0.6,6.7l0.1,0.2l0.8-0.1
	l-0.1-0.3c-0.3-2-0.5-4.1-0.5-6.2v-0.4h4v-0.8h-4v-0.1c-0.1-0.5-0.1-1-0.1-1.6v-0.4"/>
<line class="st0" x1="652.2" y1="130.6" x2="652.2" y2="295.4"/>
<line class="st0" x1="551.1" y1="295.4" x2="524.8" y2="295.4"/>
<line class="st0" x1="652.2" y1="295.4" x2="652.2" y2="305.9"/>
<line class="st0" x1="631.1" y1="303.9" x2="631.1" y2="305.9"/>
<line class="st5" x1="551.1" y1="305.9" x2="551.1" y2="295.4"/>
<rect x="631.1" y="304.8" class="st0" width="21.1" height="1"/>
<polyline class="st0" points="652.2,87.2 469.2,87.2 469.2,155.4 593.4,155.4 593.4,303.9 "/>
<line class="st0" x1="593.4" y1="246.5" x2="593.8" y2="246.1"/>
<line class="st0" x1="593.4" y1="250.3" x2="597.5" y2="246.1"/>
<line class="st0" x1="593.4" y1="254" x2="595" y2="252.3"/>
<line class="st0" x1="598.1" y1="249.3" x2="601.3" y2="246.1"/>
<line class="st0" x1="593.4" y1="257.7" x2="595" y2="256.1"/>
<line class="st0" x1="601.8" y1="249.3" x2="605" y2="246.1"/>
<line class="st0" x1="593.4" y1="261.5" x2="595" y2="259.8"/>
<line class="st0" x1="605.5" y1="249.3" x2="608.7" y2="246.1"/>
<line class="st0" x1="593.4" y1="265.2" x2="597.4" y2="261.2"/>
<line class="st0" x1="609.2" y1="249.3" x2="612.5" y2="246.1"/>
<line class="st0" x1="596.4" y1="265.8" x2="601.1" y2="261.2"/>
<line class="st0" x1="613" y1="249.3" x2="616.2" y2="246.1"/>
<line class="st0" x1="600.1" y1="265.8" x2="604.8" y2="261.2"/>
<line class="st0" x1="616.7" y1="249.3" x2="619.9" y2="246.1"/>
<line class="st0" x1="603.8" y1="265.8" x2="608.5" y2="261.2"/>
<line class="st0" x1="620.4" y1="249.3" x2="623.3" y2="246.5"/>
<line class="st0" x1="607.6" y1="265.8" x2="612.2" y2="261.2"/>
<line class="st0" x1="624.1" y1="249.3" x2="625.5" y2="248"/>
<line class="st0" x1="611.3" y1="265.8" x2="616" y2="261.2"/>
<line class="st0" x1="625.6" y1="251.6" x2="626.9" y2="250.3"/>
<line class="st0" x1="615.1" y1="265.8" x2="619.7" y2="261.2"/>
<line class="st0" x1="625.6" y1="255.3" x2="627.1" y2="253.8"/>
<line class="st0" x1="618.8" y1="265.8" x2="623.4" y2="261.2"/>
<line class="st0" x1="625.6" y1="259.1" x2="627.1" y2="257.5"/>
<line class="st0" x1="622.7" y1="265.7" x2="627" y2="261.4"/>
<line class="st0" x1="593.4" y1="246.7" x2="594" y2="246.1"/>
<line class="st0" x1="593.4" y1="250.4" x2="597.7" y2="246.1"/>
<line class="st0" x1="593.4" y1="254.1" x2="595" y2="252.5"/>
<line class="st0" x1="598.2" y1="249.3" x2="601.4" y2="246.1"/>
<line class="st0" x1="593.4" y1="257.9" x2="595" y2="256.2"/>
<line class="st0" x1="601.9" y1="249.3" x2="605.2" y2="246.1"/>
<line class="st0" x1="593.4" y1="261.6" x2="595" y2="259.9"/>
<line class="st0" x1="605.7" y1="249.3" x2="608.9" y2="246.1"/>
<line class="st0" x1="593.4" y1="265.3" x2="597.5" y2="261.2"/>
<line class="st0" x1="609.4" y1="249.3" x2="612.6" y2="246.1"/>
<line class="st0" x1="596.5" y1="265.8" x2="601.2" y2="261.2"/>
<line class="st0" x1="613.1" y1="249.3" x2="616.3" y2="246.1"/>
<line class="st0" x1="600.3" y1="265.8" x2="604.9" y2="261.2"/>
<line class="st0" x1="616.8" y1="249.3" x2="620" y2="246.1"/>
<line class="st0" x1="604" y1="265.8" x2="608.7" y2="261.2"/>
<line class="st0" x1="620.5" y1="249.3" x2="623.3" y2="246.5"/>
<line class="st0" x1="607.8" y1="265.8" x2="612.4" y2="261.2"/>
<line class="st0" x1="624.3" y1="249.3" x2="625.6" y2="248"/>
<line class="st0" x1="611.5" y1="265.8" x2="616.1" y2="261.2"/>
<line class="st0" x1="625.6" y1="251.8" x2="627" y2="250.4"/>
<line class="st0" x1="615.2" y1="265.8" x2="619.8" y2="261.2"/>
<line class="st0" x1="625.6" y1="255.5" x2="627.1" y2="253.9"/>
<line class="st0" x1="618.9" y1="265.8" x2="623.5" y2="261.2"/>
<line class="st0" x1="625.6" y1="259.2" x2="627.1" y2="257.6"/>
<line class="st0" x1="622.9" y1="265.7" x2="627" y2="261.6"/>
<path class="st6" d="M621.2,265.8l1-0.1c2.4-0.5,4.3-2.4,4.8-4.8l0.1-1"/>
<line class="st0" x1="627.1" y1="260" x2="627.1" y2="252"/>
<path class="st6" d="M627.1,252l-0.1-1c-0.5-2.4-2.4-4.3-4.8-4.8l-1-0.1"/>
<polyline class="st0" points="621.2,246.1 593.4,246.1 593.4,265.8 621.2,265.8 "/>
<polyline class="st2" points="601.3,252.6 598.4,252.6 598.4,254.7 597.1,254.7 597.1,258.5 597.5,258.5 597.5,258 602.2,258 
	597.5,257.6 597.5,255.1 598.8,255.1 598.8,252.9 600.9,252.9 "/>
<polyline class="st2" points="601.3,252.6 600.9,252.9 600.9,255.1 602.2,255.1 602.2,257.6 597.5,257.6 602.2,258 602.2,258.5 
	602.6,258.5 602.6,254.7 601.3,254.7 "/>
<polyline class="st2" points="604.6,255.9 604.2,255.9 604.2,258.2 604.6,257.9 "/>
<polyline class="st2" points="609.5,255.8 609.1,255.8 609.1,257.9 604.6,257.9 604.2,258.2 609.1,258.2 609.1,258.5 609.5,258.5 
	"/>
<polyline class="st2" points="604.9,252.9 604.5,252.9 604.5,255.2 607,254.8 604.9,254.8 "/>
<polyline class="st2" points="609.1,252.9 608.8,252.9 608.8,254.8 607,254.8 604.5,255.2 606.7,255.2 606.7,257.9 607,257.9 
	607,255.2 609.1,255.2 "/>
<polyline class="st2" points="607,252.4 606.7,252.4 606.7,254.8 604.9,254.8 607,254.8 "/>
<path class="st2" d="M616.5,256.7v0.1c0,0.4,0,0.8-0.1,1.1l0,0h-0.1l-0.1,0.1h-0.7l0.1,0.1c0.2,0.2,0.6,0.3,0.9,0.1l0.1-0.1V258
	l0.1-0.1l0.1-0.1l0.1-0.2v-0.4l0.1-0.1v-0.5"/>
<polyline class="st2" points="612.2,255.5 612.2,256.2 612.5,256.2 612.5,255.5 613.2,255.5 "/>
<polyline class="st2" points="612.5,254.3 612.2,254.3 612.2,255.1 611.5,255.1 612.5,255.1 "/>
<path class="st2" d="M614.5,254.1v0.3c0,0.6-0.1,1.3-0.2,1.9v0.2l-0.1,0.1c-0.1,0.5-0.4,1-0.7,1.5l-0.1,0.1l-0.1,0.1l0.3,0.2
	l0.1-0.1l0.1-0.1l0.3-0.6l0.1-0.2l0.1-0.1c0.1-0.2,0.2-0.4,0.2-0.7v-0.1l0.1-0.1v-0.1l0.1-0.1c0-0.5,0.1-0.1,0.1-0.7l0.1-0.1v-0.1
	c0-0.5,0.1-0.3,0.1-0.8v-0.5h0.8"/>
<polyline class="st2" points="613.6,254 613.2,254.3 613.2,255.1 612.5,255.1 612.2,255.5 613.2,255.5 613.2,256.2 611.5,256.2 
	611.1,256.5 612.2,256.5 612.2,257.2 610.8,257.2 610.8,257.5 612.2,257.5 612.2,258.5 612.5,258.5 612.5,257.5 613.7,257.5 
	613.7,257.2 612.5,257.2 612.5,256.5 613.6,256.5 "/>
<path class="st2" d="M615,252.4h-0.4v1l-0.1,0.2v0.2h-0.7v0.4h1.9l-0.2,3.7v0.2h0.7L616,258h-0.1l-0.1-0.1v-0.8l0.1-0.1v-0.3
	c0-0.8,0.1-1.7,0.1-2.5V254l0.1-0.2h-1.2"/>
<polyline class="st2" points="612.5,252.4 612.2,252.4 612.2,253.1 610.9,253.1 610.9,253.4 612.2,253.4 612.2,254 611.1,254 
	611.1,256.5 611.5,256.2 611.5,255.5 612.2,255.5 612.5,255.1 611.5,255.1 611.5,254.3 613.2,254.3 613.6,254 612.5,254 
	612.5,253.4 613.8,253.4 613.8,253.1 612.5,253.1 "/>
<path class="st2" d="M619.2,257.6l-0.4,0.1l0.1,0.1c0.6,0.5,1.4,0.7,2.2,0.7h2.8l0.1-0.4h-3c-0.5,0-1-0.1-1.5-0.3l-0.1-0.1"/>
<polyline class="st2" points="623.3,254.3 622.9,254.6 622.9,255.2 620.3,255.2 622.9,255.5 622.9,256.2 620.3,256.2 622.9,256.5 
	622.9,257.1 620.3,257.1 619.9,257.4 623.3,257.4 "/>
<path class="st2" d="M619.3,253.9h-1.6v0.3h1.2l-0.1,0.1c-0.3,0.5-0.7,0.9-1,1.4v0.3h1.1v0.1l-0.1,0.1c-0.1,0.4-0.2,0.7-0.4,1
	l-0.2,0.5l-0.1,0.1L618,258h-0.1l-0.1,0.1l-0.1,0.1l-0.1,0.1l0.3,0.2l0,0l0.1-0.1c0.3-0.2,0.5-0.5,0.7-0.8l0.4-0.1l-0.1-0.1
	l-0.1-0.1l-0.1-0.1v-0.1l0.2-0.5v-0.1l0.1-0.2l0.1-0.1v-0.1l0.1-0.2v-0.3h-1.1l0.1-0.1l0.2-0.2l0.1-0.1l0.1-0.1l0.1-0.2l0.1-0.1
	l0.1-0.1l0.1-0.1l0.1-0.1l0.1-0.2l0.1-0.1"/>
<polyline class="st2" points="623.8,253.3 619.5,253.3 619.5,253.7 621.3,253.7 621.3,253.7 621.2,253.9 621.1,254.3 619.9,254.3 
	619.9,257.4 620.3,257.1 620.3,256.5 622.9,256.5 620.3,256.2 620.3,255.5 622.9,255.5 620.3,255.2 620.3,254.6 622.9,254.6 
	623.3,254.3 621.4,254.3 621.7,253.7 623.8,253.7 "/>
<path class="st2" d="M618.1,252.4l-0.2,0.2v0.1l0.1,0.1c0.3,0.3,0.5,0.5,0.8,0.8l0.1,0.1l0.3-0.2l-0.1-0.1l-0.1-0.1l-0.1-0.1
	l-0.1-0.1l-0.1-0.1l-0.1-0.1l-0.2-0.2l-0.1-0.1l-0.1-0.1"/>
<path class="st2" d="M622.8,252.4l-0.1,0.1l-0.1,0.1l-0.1,0.1l-0.1,0.1l-0.1,0.1l-0.2,0.2l0.3,0.2l0.1-0.1c0.2-0.3,0.2-0.1,0.5-0.4
	l0.1-0.1"/>
<polyline class="st2" points="620.5,252.4 620.1,252.6 620.2,252.6 620.3,252.7 620.6,253 620.7,253.1 620.8,253.2 621.1,253 
	620.9,252.8 620.8,252.7 620.7,252.6 620.6,252.5 "/>
<line class="st0" x1="356.1" y1="324.9" x2="167.4" y2="324.9"/>
<line class="st0" x1="452.3" y1="300.2" x2="241.5" y2="300.2"/>
<line class="st0" x1="167.4" y1="367.7" x2="296.2" y2="367.7"/>
<line class="st0" x1="356.1" y1="322.8" x2="167.4" y2="322.8"/>
<rect x="402.7" y="363.7" class="st0" width="49.6" height="47.6"/>
<path class="st2" d="M425.9,392.3L425.9,392.3c-0.2,2.1-0.7,1.5-2.6,1.7h-0.5l3.7,0.1l0.1-0.2l0.1-0.3l0.1-0.4l0.1-0.4"/>
<polyline class="st2" points="418.5,389.9 418.5,391.2 413.8,391.2 419.4,391.2 419.4,389.9 424,389.9 "/>
<polyline class="st2" points="419.4,387.9 418.5,387.9 418.5,389.1 413.8,389.1 419.4,389.1 "/>
<polyline class="st2" points="424.9,387.1 412.9,387.1 412.9,392.1 419.4,391.2 413.8,391.2 413.8,389.9 418.5,389.9 419.4,389.1 
	413.8,389.1 413.8,387.9 424,387.9 "/>
<path class="st2" d="M424.9,387.1l-0.9,0.8v1.3h-4.6l-1,0.8h5.6v1.3h-4.6l-6.5,0.8h5.5v1.4c0,1.5,1.8,1.3,2.9,1.3l0.4,0.1h0.4
	c1.2-0.1,2.9,0.1,4-0.4l0.2-0.2l0.1-0.2l-3.7-0.1h-1.1l-0.4-0.1h-0.8l-0.5-0.1l-0.3-0.1l-0.2-0.1l-0.1-0.1l-0.1-0.3v-1.3h5.5"/>
<path class="st2" d="M420.4,385.2l-0.4,0.7h0.4c1.2,0.1,2.3,0.3,3.4,0.6l0.3,0.1l0.4-0.7h-0.1c-1.1-0.3-2.1-0.5-3.2-0.6h-0.4"/>
<path class="st2" d="M417.4,385.2l-0.1,0.1c-1.2,0.2-2.3,0.4-3.5,0.5h-0.3l0.2,0.8h0.2c1.2-0.1,2.3-0.2,3.4-0.5l0.4-0.1"/>
<path class="st2" d="M424.1,383.6l-0.1,0.1c-1.2,0.2-2.3,0.3-3.5,0.5h-0.3l0.3,0.7h0.1c1.2-0.1,2.3-0.3,3.5-0.4l0.4-0.1"/>
<path class="st2" d="M414,383.6l-0.4,0.7l0.4,0.1c1,0.1,2.1,0.2,3.1,0.4l0.2,0.1l0.3-0.7l-0.2-0.1c-0.9-0.2-1.8-0.3-2.7-0.4
	l-0.4-0.1"/>
<rect x="418.5" y="383" width="0.8" height="3.4"/>
<polyline class="st2" points="426.3,382.1 425.4,383 425.4,386 426.3,386 "/>
<polyline class="st2" points="425.7,380 412.5,380 412.5,380.9 418.5,380.9 418.5,382.1 411.9,382.1 411.9,386 412.8,386 412.8,383 
	425.4,383 426.3,382.1 419.3,382.1 419.3,380.9 425.7,380.9 "/>
<path class="st2" d="M440.4,392.6l0.4,1h1c0.6,0,1.1-0.3,1.4-0.7l0.1-0.1l-2.2-0.1h-0.4"/>
<path class="st2" d="M437.7,390.2l-0.2,0.2c-1,1.1-2.1,2-3.3,2.7l-0.4,0.2l0.5,0.7l0.2-0.1c1.5-0.9,2.8-2.1,4-3.4l0.2-0.2"/>
<polyline class="st2" points="438.4,389.3 438.4,389.3 438.2,389.6 438.1,389.7 438,390 437.7,390.2 438.7,390.4 438.7,394.8 
	439.6,394.8 439.6,389.3 442.8,389.3 "/>
<polyline class="st2" points="439.6,386.3 438.7,386.3 438.7,388.4 435.7,388.4 439.6,388.4 "/>
<polyline class="st2" points="431.6,385.8 431.6,394.8 432.5,394.8 432.5,385.9 "/>
<path class="st2" d="M433.5,385.8l-1.9,0.1l0.9,0.1c0.4,0.5,0.8,1,1.1,1.6l0.2,0.3l0.7-0.7l-0.1-0.2l-0.2-0.2l-0.2-0.3l-0.2-0.2"/>
<polyline class="st2" points="438.7,383.4 438.7,385.4 439.6,385.4 439.6,383.4 442.4,383.4 "/>
<path class="st2" d="M443.3,382.6h-8.5v0.8h7.6v2h-7.2l-0.4,3.8h8v0.7l-0.1,0.4v0.9l-0.1,0.5c-0.3,0.5,0,0.7-0.7,0.8l-0.4,0.1H441
	l2.2,0.1l0.1-0.2c0.2-1.2,0.3-2.4,0.3-3.6v-0.5h-7.9l0.3-2.1h7.3"/>
<path class="st2" d="M432.5,379.7h-0.9v3.1H429v0.9h2.6l-0.1,0.2c-0.5,1.9-1.4,3.7-2.5,5.3l-0.2,0.3l0.6,0.7v-0.1
	c0.8-1.2,1.5-2.5,2.1-3.9l0.1-0.4l1.9-0.1l-0.2-0.2l-0.3-0.3l-0.2-0.3l-0.3-0.4v-1h1.6v-0.9h-1.6"/>
<path class="st2" d="M436.6,379.7l-0.7,0.5l0.1,0.1c0.5,0.5,0.9,1,1.3,1.6l0.2,0.3l0.7-0.5l-0.1-0.1c-0.3-0.5-0.7-0.9-1-1.4
	l-0.2-0.3"/>
<path class="st2" d="M441.9,379.6l-0.2,0.3c-0.4,0.6-0.8,1.1-1.3,1.6l-0.2,0.2l0.7,0.5l0.1-0.1c0.6-0.5,1.1-1.1,1.6-1.8l0.2-0.3"/>
<line class="st0" x1="402.7" y1="404" x2="356.1" y2="404"/>
<line class="st0" x1="167.4" y1="411.3" x2="167.4" y2="322.8"/>
<line class="st0" x1="356.1" y1="322.8" x2="356.1" y2="324.9"/>
<rect x="167.4" y="324.9" class="st5" width="1.4" height="21.1"/>
<line class="st0" x1="25.9" y1="39" x2="29.4" y2="35.6"/>
<line class="st0" x1="25.9" y1="42.8" x2="33.1" y2="35.6"/>
<line class="st0" x1="25.9" y1="46.5" x2="36.8" y2="35.6"/>
<line class="st0" x1="25.9" y1="50.3" x2="40.6" y2="35.6"/>
<line class="st0" x1="25.9" y1="54" x2="44.3" y2="35.6"/>
<line class="st0" x1="25.9" y1="57.7" x2="48" y2="35.6"/>
<line class="st0" x1="25.9" y1="61.4" x2="51.7" y2="35.6"/>
<line class="st0" x1="25.9" y1="65.1" x2="55.5" y2="35.6"/>
<line class="st0" x1="25.9" y1="68.9" x2="59.2" y2="35.6"/>
<line class="st0" x1="25.9" y1="72.6" x2="62.9" y2="35.6"/>
<line class="st0" x1="25.9" y1="76.3" x2="66.6" y2="35.6"/>
<line class="st0" x1="25.9" y1="80" x2="70.4" y2="35.6"/>
<line class="st0" x1="25.9" y1="83.7" x2="74.1" y2="35.6"/>
<line class="st0" x1="25.9" y1="87.5" x2="77.8" y2="35.6"/>
<line class="st0" x1="25.9" y1="91.2" x2="81.6" y2="35.6"/>
<line class="st0" x1="25.9" y1="95" x2="85.3" y2="35.6"/>
<line class="st0" x1="25.9" y1="98.7" x2="89" y2="35.6"/>
<line class="st0" x1="25.9" y1="102.4" x2="92.7" y2="35.6"/>
<line class="st0" x1="25.9" y1="106.1" x2="96.4" y2="35.6"/>
<line class="st0" x1="25.9" y1="109.8" x2="100.2" y2="35.6"/>
<line class="st0" x1="25.9" y1="113.6" x2="103.9" y2="35.6"/>
<line class="st0" x1="25.9" y1="117.3" x2="107.7" y2="35.6"/>
<line class="st0" x1="25.9" y1="121" x2="110.5" y2="36.4"/>
<line class="st0" x1="25.9" y1="124.8" x2="110.5" y2="40.1"/>
<line class="st0" x1="25.9" y1="128.5" x2="110.5" y2="43.8"/>
<line class="st0" x1="25.9" y1="132.2" x2="110.5" y2="47.6"/>
<line class="st0" x1="25.9" y1="135.9" x2="110.5" y2="51.3"/>
<line class="st0" x1="25.9" y1="139.7" x2="110.5" y2="55.1"/>
<line class="st0" x1="25.9" y1="143.4" x2="110.5" y2="58.8"/>
<line class="st0" x1="25.9" y1="147.1" x2="110.5" y2="62.5"/>
<line class="st0" x1="25.9" y1="150.8" x2="110.5" y2="66.2"/>
<line class="st0" x1="25.9" y1="154.5" x2="110.5" y2="69.9"/>
<line class="st0" x1="25.9" y1="158.3" x2="30.4" y2="153.8"/>
<line class="st0" x1="33.5" y1="150.6" x2="110.5" y2="73.7"/>
<line class="st0" x1="25.9" y1="162" x2="30.4" y2="157.5"/>
<line class="st0" x1="37.2" y1="150.6" x2="110.5" y2="77.4"/>
<line class="st0" x1="25.9" y1="165.8" x2="30.4" y2="161.2"/>
<line class="st0" x1="40.9" y1="150.6" x2="110.5" y2="81.1"/>
<line class="st0" x1="25.9" y1="169.5" x2="30.4" y2="164.9"/>
<line class="st0" x1="44.7" y1="150.6" x2="110.5" y2="84.8"/>
<line class="st0" x1="25.9" y1="173.2" x2="30.4" y2="168.6"/>
<line class="st0" x1="48.4" y1="150.6" x2="110.5" y2="88.5"/>
<line class="st0" x1="25.9" y1="176.9" x2="30.4" y2="172.4"/>
<line class="st0" x1="52.1" y1="150.6" x2="110.5" y2="92.3"/>
<line class="st0" x1="25.9" y1="180.6" x2="30.4" y2="176.1"/>
<line class="st0" x1="55.8" y1="150.6" x2="110.5" y2="96"/>
<line class="st0" x1="25.9" y1="184.4" x2="30.4" y2="179.8"/>
<line class="st0" x1="59.6" y1="150.6" x2="110.5" y2="99.8"/>
<line class="st0" x1="25.9" y1="188.1" x2="33.5" y2="180.4"/>
<line class="st0" x1="63.3" y1="150.6" x2="110.5" y2="103.5"/>
<line class="st0" x1="25.9" y1="191.8" x2="37.3" y2="180.4"/>
<line class="st0" x1="67" y1="150.6" x2="110.5" y2="107.2"/>
<line class="st0" x1="25.9" y1="195.5" x2="41" y2="180.4"/>
<line class="st0" x1="70.8" y1="150.6" x2="110.5" y2="110.9"/>
<line class="st0" x1="25.9" y1="199.2" x2="44.7" y2="180.4"/>
<line class="st0" x1="74.5" y1="150.6" x2="110.5" y2="114.6"/>
<line class="st0" x1="25.9" y1="203" x2="48.4" y2="180.4"/>
<line class="st0" x1="78.2" y1="150.6" x2="110.5" y2="118.4"/>
<line class="st0" x1="25.9" y1="206.7" x2="52.2" y2="180.4"/>
<line class="st0" x1="81.9" y1="150.6" x2="110.5" y2="122.1"/>
<line class="st0" x1="25.9" y1="210.5" x2="55.9" y2="180.4"/>
<line class="st0" x1="85.6" y1="150.6" x2="110.5" y2="125.8"/>
<line class="st0" x1="25.9" y1="214.2" x2="59.7" y2="180.4"/>
<line class="st0" x1="89.3" y1="150.6" x2="110.5" y2="129.6"/>
<line class="st0" x1="25.9" y1="217.9" x2="63.4" y2="180.4"/>
<line class="st0" x1="93.1" y1="150.6" x2="110.5" y2="133.3"/>
<line class="st0" x1="25.9" y1="221.6" x2="67.1" y2="180.4"/>
<line class="st0" x1="96.8" y1="150.6" x2="110.5" y2="137"/>
<line class="st0" x1="25.9" y1="225.3" x2="70.8" y2="180.4"/>
<line class="st0" x1="100.6" y1="150.6" x2="110.5" y2="140.7"/>
<line class="st0" x1="25.9" y1="229.1" x2="74.5" y2="180.4"/>
<line class="st0" x1="104.3" y1="150.6" x2="110.5" y2="144.5"/>
<line class="st0" x1="25.9" y1="232.8" x2="78.2" y2="180.4"/>
<line class="st0" x1="106.7" y1="152" x2="110.5" y2="148.2"/>
<line class="st0" x1="25.9" y1="236.5" x2="82" y2="180.4"/>
<line class="st0" x1="106.7" y1="155.7" x2="110.5" y2="151.9"/>
<line class="st0" x1="25.9" y1="240.3" x2="85.7" y2="180.4"/>
<line class="st0" x1="106.7" y1="159.5" x2="110.5" y2="155.6"/>
<line class="st0" x1="25.9" y1="244" x2="89.4" y2="180.4"/>
<line class="st0" x1="106.7" y1="163.2" x2="110.5" y2="159.3"/>
<line class="st0" x1="25.9" y1="247.7" x2="93.1" y2="180.4"/>
<line class="st0" x1="106.7" y1="166.9" x2="110.5" y2="163.1"/>
<line class="st0" x1="25.9" y1="251.4" x2="96.9" y2="180.4"/>
<line class="st0" x1="106.7" y1="170.6" x2="110.5" y2="166.8"/>
<line class="st0" x1="25.9" y1="255.2" x2="100.6" y2="180.4"/>
<line class="st0" x1="106.7" y1="174.3" x2="110.5" y2="170.6"/>
<line class="st0" x1="25.9" y1="258.9" x2="104.3" y2="180.4"/>
<line class="st0" x1="106.7" y1="178.1" x2="110.5" y2="174.3"/>
<line class="st0" x1="25.9" y1="262.6" x2="110.5" y2="178"/>
<line class="st0" x1="25.9" y1="266.3" x2="110.5" y2="181.7"/>
<line class="st0" x1="25.9" y1="270" x2="110.5" y2="185.4"/>
<line class="st0" x1="25.9" y1="273.8" x2="110.5" y2="189.2"/>
<line class="st0" x1="25.9" y1="277.5" x2="110.5" y2="192.9"/>
<line class="st0" x1="25.9" y1="281.3" x2="110.5" y2="196.6"/>
<line class="st0" x1="25.9" y1="285" x2="110.5" y2="200.3"/>
<line class="st0" x1="25.9" y1="288.7" x2="110.5" y2="204"/>
<line class="st0" x1="25.9" y1="292.4" x2="110.5" y2="207.8"/>
<line class="st0" x1="25.9" y1="296.1" x2="110.5" y2="211.5"/>
<line class="st0" x1="25.9" y1="299.9" x2="110.5" y2="215.3"/>
<line class="st0" x1="29.2" y1="300.2" x2="110.5" y2="219"/>
<line class="st0" x1="33" y1="300.2" x2="110.5" y2="222.7"/>
<line class="st0" x1="36.7" y1="300.2" x2="110.5" y2="226.4"/>
<line class="st0" x1="40.4" y1="300.2" x2="110.5" y2="230.1"/>
<line class="st0" x1="44.1" y1="300.2" x2="110.5" y2="233.9"/>
<line class="st0" x1="47.8" y1="300.2" x2="110.5" y2="237.6"/>
<line class="st0" x1="51.5" y1="300.2" x2="110.5" y2="241.3"/>
<line class="st0" x1="55.3" y1="300.2" x2="110.5" y2="245"/>
<line class="st0" x1="59" y1="300.2" x2="110.5" y2="248.8"/>
<line class="st0" x1="62.8" y1="300.2" x2="110.5" y2="252.5"/>
<line class="st0" x1="66.5" y1="300.2" x2="110.5" y2="256.2"/>
<line class="st0" x1="70.2" y1="300.2" x2="110.5" y2="260"/>
<line class="st0" x1="73.9" y1="300.2" x2="110.5" y2="263.7"/>
<line class="st0" x1="77.7" y1="300.2" x2="110.5" y2="267.4"/>
<line class="st0" x1="81.4" y1="300.2" x2="110.5" y2="271.1"/>
<line class="st0" x1="85.1" y1="300.2" x2="110.5" y2="274.8"/>
<line class="st0" x1="88.8" y1="300.2" x2="110.5" y2="278.6"/>
<line class="st0" x1="92.6" y1="300.2" x2="110.5" y2="282.3"/>
<line class="st0" x1="96.3" y1="300.2" x2="110.5" y2="286.1"/>
<line class="st0" x1="100" y1="300.2" x2="110.5" y2="289.8"/>
<line class="st0" x1="103.8" y1="300.2" x2="110.5" y2="293.5"/>
<line class="st0" x1="107.5" y1="300.2" x2="110.5" y2="297.2"/>
<line class="st0" x1="25.9" y1="39.2" x2="29.5" y2="35.6"/>
<line class="st0" x1="25.9" y1="42.9" x2="33.2" y2="35.6"/>
<line class="st0" x1="25.9" y1="46.7" x2="37" y2="35.6"/>
<line class="st0" x1="25.9" y1="50.4" x2="40.7" y2="35.6"/>
<line class="st0" x1="25.9" y1="54.1" x2="44.4" y2="35.6"/>
<line class="st0" x1="25.9" y1="57.8" x2="48.1" y2="35.6"/>
<line class="st0" x1="25.9" y1="61.5" x2="51.8" y2="35.6"/>
<line class="st0" x1="25.9" y1="65.3" x2="55.6" y2="35.6"/>
<line class="st0" x1="25.9" y1="69" x2="59.3" y2="35.6"/>
<line class="st0" x1="25.9" y1="72.7" x2="63.1" y2="35.6"/>
<line class="st0" x1="25.9" y1="76.4" x2="66.8" y2="35.6"/>
<line class="st0" x1="25.9" y1="80.2" x2="70.5" y2="35.6"/>
<line class="st0" x1="25.9" y1="83.9" x2="74.2" y2="35.6"/>
<line class="st0" x1="25.9" y1="87.6" x2="77.9" y2="35.6"/>
<line class="st0" x1="25.9" y1="91.4" x2="81.7" y2="35.6"/>
<line class="st0" x1="25.9" y1="95.1" x2="85.4" y2="35.6"/>
<line class="st0" x1="25.9" y1="98.8" x2="89.1" y2="35.6"/>
<line class="st0" x1="25.9" y1="102.5" x2="92.8" y2="35.6"/>
<line class="st0" x1="25.9" y1="106.2" x2="96.6" y2="35.6"/>
<line class="st0" x1="25.9" y1="110" x2="100.3" y2="35.6"/>
<line class="st0" x1="25.9" y1="113.7" x2="104.1" y2="35.6"/>
<line class="st0" x1="25.9" y1="117.5" x2="107.8" y2="35.6"/>
<line class="st0" x1="25.9" y1="121.2" x2="110.5" y2="36.5"/>
<line class="st0" x1="25.9" y1="124.9" x2="110.5" y2="40.2"/>
<line class="st0" x1="25.9" y1="128.6" x2="110.5" y2="44"/>
<line class="st0" x1="25.9" y1="132.3" x2="110.5" y2="47.7"/>
<line class="st0" x1="25.9" y1="136.1" x2="110.5" y2="51.5"/>
<line class="st0" x1="25.9" y1="139.8" x2="110.5" y2="55.2"/>
<line class="st0" x1="25.9" y1="143.5" x2="110.5" y2="58.9"/>
<line class="st0" x1="25.9" y1="147.2" x2="110.5" y2="62.6"/>
<line class="st0" x1="25.9" y1="150.9" x2="110.5" y2="66.3"/>
<line class="st0" x1="25.9" y1="154.7" x2="110.5" y2="70.1"/>
<line class="st0" x1="25.9" y1="158.4" x2="30.4" y2="153.9"/>
<line class="st0" x1="33.6" y1="150.6" x2="110.5" y2="73.8"/>
<line class="st0" x1="25.9" y1="162.2" x2="30.4" y2="157.6"/>
<line class="st0" x1="37.3" y1="150.6" x2="110.5" y2="77.5"/>
<line class="st0" x1="25.9" y1="165.9" x2="30.4" y2="161.3"/>
<line class="st0" x1="41" y1="150.6" x2="110.5" y2="81.2"/>
<line class="st0" x1="25.9" y1="169.6" x2="30.4" y2="165"/>
<line class="st0" x1="44.8" y1="150.6" x2="110.5" y2="85"/>
<line class="st0" x1="25.9" y1="173.3" x2="30.4" y2="168.8"/>
<line class="st0" x1="48.5" y1="150.6" x2="110.5" y2="88.7"/>
<line class="st0" x1="25.9" y1="177" x2="30.4" y2="172.5"/>
<line class="st0" x1="52.3" y1="150.6" x2="110.5" y2="92.4"/>
<line class="st0" x1="25.9" y1="180.8" x2="30.4" y2="176.2"/>
<line class="st0" x1="56" y1="150.6" x2="110.5" y2="96.2"/>
<line class="st0" x1="25.9" y1="184.5" x2="30.4" y2="179.9"/>
<line class="st0" x1="59.7" y1="150.6" x2="110.5" y2="99.9"/>
<line class="st0" x1="25.9" y1="188.2" x2="33.7" y2="180.4"/>
<line class="st0" x1="63.4" y1="150.6" x2="110.5" y2="103.6"/>
<line class="st0" x1="25.9" y1="191.9" x2="37.4" y2="180.4"/>
<line class="st0" x1="67.2" y1="150.6" x2="110.5" y2="107.3"/>
<line class="st0" x1="25.9" y1="195.7" x2="41.1" y2="180.4"/>
<line class="st0" x1="70.9" y1="150.6" x2="110.5" y2="111"/>
<line class="st0" x1="25.9" y1="199.4" x2="44.8" y2="180.4"/>
<line class="st0" x1="74.6" y1="150.6" x2="110.5" y2="114.8"/>
<line class="st0" x1="25.9" y1="203.1" x2="48.5" y2="180.4"/>
<line class="st0" x1="78.3" y1="150.6" x2="110.5" y2="118.5"/>
<line class="st0" x1="25.9" y1="206.9" x2="52.3" y2="180.4"/>
<line class="st0" x1="82" y1="150.6" x2="110.5" y2="122.3"/>
<line class="st0" x1="25.9" y1="210.6" x2="56" y2="180.4"/>
<line class="st0" x1="85.8" y1="150.6" x2="110.5" y2="126"/>
<line class="st0" x1="25.9" y1="214.3" x2="59.8" y2="180.4"/>
<line class="st0" x1="89.5" y1="150.6" x2="110.5" y2="129.7"/>
<line class="st0" x1="25.9" y1="218" x2="63.5" y2="180.4"/>
<line class="st0" x1="93.2" y1="150.6" x2="110.5" y2="133.4"/>
<line class="st0" x1="25.9" y1="221.7" x2="67.2" y2="180.4"/>
<line class="st0" x1="97" y1="150.6" x2="110.5" y2="137.1"/>
<line class="st0" x1="25.9" y1="225.5" x2="70.9" y2="180.4"/>
<line class="st0" x1="100.7" y1="150.6" x2="110.5" y2="140.9"/>
<line class="st0" x1="25.9" y1="229.2" x2="74.7" y2="180.4"/>
<line class="st0" x1="104.4" y1="150.6" x2="110.5" y2="144.6"/>
<line class="st0" x1="25.9" y1="233" x2="78.4" y2="180.4"/>
<line class="st0" x1="106.7" y1="152.1" x2="110.5" y2="148.3"/>
<line class="st0" x1="25.9" y1="236.7" x2="82.1" y2="180.4"/>
<line class="st0" x1="106.7" y1="155.9" x2="110.5" y2="152"/>
<line class="st0" x1="25.9" y1="240.4" x2="85.8" y2="180.4"/>
<line class="st0" x1="106.7" y1="159.6" x2="110.5" y2="155.7"/>
<line class="st0" x1="25.9" y1="244.1" x2="89.6" y2="180.4"/>
<line class="st0" x1="106.7" y1="163.3" x2="110.5" y2="159.5"/>
<line class="st0" x1="25.9" y1="247.8" x2="93.3" y2="180.4"/>
<line class="st0" x1="106.7" y1="167" x2="110.5" y2="163.2"/>
<line class="st0" x1="25.9" y1="251.6" x2="97" y2="180.4"/>
<line class="st0" x1="106.7" y1="170.7" x2="110.5" y2="167"/>
<line class="st0" x1="25.9" y1="255.3" x2="100.8" y2="180.4"/>
<line class="st0" x1="106.7" y1="174.5" x2="110.5" y2="170.7"/>
<line class="st0" x1="25.9" y1="259" x2="104.5" y2="180.4"/>
<line class="st0" x1="106.7" y1="178.2" x2="110.5" y2="174.4"/>
<line class="st0" x1="25.9" y1="262.7" x2="110.5" y2="178.1"/>
<line class="st0" x1="25.9" y1="266.4" x2="110.5" y2="181.8"/>
<line class="st0" x1="25.9" y1="270.2" x2="110.5" y2="185.6"/>
<line class="st0" x1="25.9" y1="273.9" x2="110.5" y2="189.3"/>
<line class="st0" x1="25.9" y1="277.7" x2="110.5" y2="193"/>
<line class="st0" x1="25.9" y1="281.4" x2="110.5" y2="196.7"/>
<line class="st0" x1="25.9" y1="285.1" x2="110.5" y2="200.5"/>
<line class="st0" x1="25.9" y1="288.8" x2="110.5" y2="204.2"/>
<line class="st0" x1="25.9" y1="292.5" x2="110.5" y2="207.9"/>
<line class="st0" x1="25.9" y1="296.3" x2="110.5" y2="211.7"/>
<line class="st0" x1="25.9" y1="300" x2="110.5" y2="215.4"/>
<line class="st0" x1="29.4" y1="300.2" x2="110.5" y2="219.1"/>
<line class="st0" x1="33.1" y1="300.2" x2="110.5" y2="222.8"/>
<line class="st0" x1="36.8" y1="300.2" x2="110.5" y2="226.5"/>
<line class="st0" x1="40.5" y1="300.2" x2="110.5" y2="230.3"/>
<line class="st0" x1="44.2" y1="300.2" x2="110.5" y2="234"/>
<line class="st0" x1="48" y1="300.2" x2="110.5" y2="237.7"/>
<line class="st0" x1="51.7" y1="300.2" x2="110.5" y2="241.5"/>
<line class="st0" x1="55.5" y1="300.2" x2="110.5" y2="245.2"/>
<line class="st0" x1="59.2" y1="300.2" x2="110.5" y2="248.9"/>
<line class="st0" x1="62.9" y1="300.2" x2="110.5" y2="252.6"/>
<line class="st0" x1="66.6" y1="300.2" x2="110.5" y2="256.4"/>
<line class="st0" x1="70.3" y1="300.2" x2="110.5" y2="260.1"/>
<line class="st0" x1="74.1" y1="300.2" x2="110.5" y2="263.8"/>
<line class="st0" x1="77.8" y1="300.2" x2="110.5" y2="267.5"/>
<line class="st0" x1="81.5" y1="300.2" x2="110.5" y2="271.2"/>
<line class="st0" x1="85.3" y1="300.2" x2="110.5" y2="275"/>
<line class="st0" x1="89" y1="300.2" x2="110.5" y2="278.7"/>
<line class="st0" x1="92.7" y1="300.2" x2="110.5" y2="282.5"/>
<line class="st0" x1="96.4" y1="300.2" x2="110.5" y2="286.2"/>
<line class="st0" x1="100.2" y1="300.2" x2="110.5" y2="289.9"/>
<line class="st0" x1="103.9" y1="300.2" x2="110.5" y2="293.6"/>
<line class="st0" x1="107.6" y1="300.2" x2="110.5" y2="297.3"/>
<rect x="25.9" y="35.6" class="st0" width="84.6" height="264.7"/>
<polyline class="st2" points="48.4,169.1 47.5,169.3 47.5,173.6 48.4,173.6 "/>
<polyline class="st2" points="50,167.9 48.4,168.2 47.5,168.4 42,169.5 42.1,170.3 47.5,169.3 48.4,169.1 50.1,168.8 "/>
<path class="st2" d="M36.6,165.8l-0.1,0.3c-0.3,1.5-0.8,2.9-1.4,4.3l-0.1,0.2l0.8,0.4l0.1-0.2c0.7-1.4,1.1-2.8,1.4-4.3l0.1-0.4"/>
<path class="st2" d="M40.9,165.8l-0.8,0.3v0.1c0.4,0.8,0.8,1.7,1,2.6l0.1,0.2l0.9-0.2v-0.1c-0.2-0.7-0.5-1.5-0.8-2.2l-0.2-0.4"/>
<path class="st2" d="M43.3,163.8l-0.7,0.6l0.2,0.2c0.9,0.7,1.8,1.5,2.5,2.5l0.1,0.2l0.7-0.7l-0.2-0.2c-0.6-0.8-1.4-1.6-2.2-2.2
	l-0.2-0.2"/>
<path class="st2" d="M43.6,159.6l-0.6,0.6l0.2,0.2c0.9,0.6,1.7,1.2,2.4,2l0.2,0.2l0.7-0.7l-0.2-0.2c-0.6-0.6-1.3-1.2-2.1-1.7
	l-0.3-0.2"/>
<path class="st2" d="M41.4,159.5l-0.1,0.3c-0.3,0.9-0.6,1.7-1,2.6l-0.2,0.2l0.8,0.4l0.1-0.3c0.4-0.8,0.8-1.7,1-2.6l0.1-0.4"/>
<path class="st2" d="M36,159.5l-0.8,0.3l0.1,0.3c0.5,0.8,0.8,1.7,1.1,2.6l0.1,0.2l0.8-0.4l-0.1-0.2c-0.2-0.8-0.5-1.5-0.9-2.2
	l-0.2-0.4"/>
<polyline class="st2" points="48.4,158.3 47.5,158.3 47.5,168.4 48.4,168.2 "/>
<polyline class="st2" points="39.3,158.3 38.4,158.3 38.4,164 35.2,164 35.2,164.9 38.4,164.9 38.4,173.5 39.3,173.5 39.3,164.9 
	42,164.9 42,164 39.3,164 "/>
<path class="st2" d="M57.2,169.2l-0.2,0.2c-1.3,1.1-2.8,2-4.3,2.8l-0.4,0.1l0.7,0.8l0,0c0.7-0.4,1.2-0.6,1.9-1l0.3-0.2l0.2-0.2
	c0.7-0.4,1.4-0.9,2-1.4l0.2-0.2l0.2-0.2"/>
<path class="st2" d="M62.7,169.1l-0.6,0.7l0.1,0.1c1.6,0.9,3.2,1.9,4.6,3.2l0.2,0.2l0.7-0.7l-0.1-0.1c-1.3-1.1-2.7-2.1-4.1-2.9
	l-0.4-0.2"/>
<polyline class="st2" points="60.4,165.7 59.5,165.7 59.5,167.3 52.4,167.3 52.4,168.1 59.5,168.1 59.5,173.6 60.4,173.6 
	60.4,168.1 67.5,168.1 67.5,167.3 60.4,167.3 "/>
<path class="st2" d="M55.7,165.1L56,166h0.4c0.8-0.2,1.9,0.2,2.4-0.6l0.1-0.1l-1.8-0.2h-0.2l-0.3-0.1h-0.4"/>
<path class="st2" d="M55.2,161v0.1c-0.1,1.7-1,3.2-2.5,4.1l-0.3,0.2l0.7,0.7l0.1-0.1c1.6-1.1,2.6-2.8,2.8-4.7V161h2.7"/>
<polyline class="st2" points="66.4,159.4 61.3,159.4 61.3,165.5 62.2,164.6 62.2,160.3 65.5,160.3 "/>
<polyline class="st2" points="66.4,159.4 65.5,160.3 65.5,164.6 62.2,164.6 61.3,165.5 66.4,165.5 "/>
<path class="st2" d="M56.2,158.3h-0.8v0.1l-0.1,0.4v0.7l-0.1,0.4v0.4h-2.6v0.9h6.1v0.5c0,0.6-0.1,1.2-0.2,1.7v0.1l-0.1,0.5
	c-0.3,0.6,0,0.9-0.8,1.3l-0.3,0.1l-0.4,0.1l1.9,0.2l0.1-0.2c0.5-1.5,0.7-3.1,0.7-4.7v-0.4h-3.5V160l0.1-0.4v-0.7"/>
<polyline class="st2" points="83.7,166.3 79.2,166.3 79.2,170.7 80.1,169.8 80.1,167.2 82.8,167.2 "/>
<polyline class="st2" points="83.7,166.3 82.8,167.2 82.8,169.8 80.1,169.8 79.2,170.7 83.7,170.7 "/>
<polyline class="st2" points="77.6,166.3 73,166.3 73,170.7 74,169.8 74,167.1 76.7,167.1 "/>
<polyline class="st2" points="77.6,166.3 76.7,167.1 76.7,169.8 74,169.8 73,170.7 77.6,170.7 "/>
<polyline class="st2" points="81.7,161 74.6,161 74.6,164.8 75.6,163.9 75.6,161.9 80.8,161.9 "/>
<polyline class="st2" points="81.7,161 80.8,161.9 80.8,163.9 75.6,163.9 74.6,164.8 81.7,164.8 "/>
<path class="st2" d="M84.6,158.7H69.8v0.8h1.1v11.7c-0.1,1,0.7,1.8,1.6,1.9c0.1,0,0.1,0,0.2,0h12.2v-0.9H72.7l-0.3-0.1l-0.3-0.2
	l-0.1-0.1l-0.2-0.3l-0.1-0.3v-11.8h12.8"/>
<path class="st2" d="M97.4,170.6l-0.2,0.2c-0.7,0.7-1.4,1.3-2.2,1.7l-0.4,0.2l0.7,0.8l0.2-0.1c1.1-0.7,2-1.5,2.9-2.5l0.2-0.2"/>
<path class="st2" d="M101.5,169.8l-0.1,0.4c-0.1,0.7-0.3,1.5-0.5,2.2l-0.2,0.1l1.1,0.1l0.1-0.2c0.2-0.6,0.4-1.1,0.4-1.7l0.1-0.4"/>
<path class="st2" d="M96.8,169.1L96.8,169.1c-1.7,0.6-3.4,1.2-5.1,1.7l-0.2,0.1l0.2,1l0.2-0.1c1.6-0.4,3.1-1.1,4.6-1.6L97,170"/>
<polyline class="st2" points="91.6,169.1 91.5,169.1 91.2,169.3 90.8,169.5 90.5,169.6 90.2,169.7 89.9,169.8 91.7,170 "/>
<polyline class="st2" points="96,163.5 92.3,163.5 92.3,168 93.2,167.2 93.2,164.4 95.1,164.4 "/>
<polyline class="st2" points="96,163.5 95.1,164.4 95.1,167.2 93.2,167.2 92.3,168 96,168 "/>
<path class="st2" d="M100.6,163.4l-0.1,0.3c-0.3,1.6-0.8,3.1-1.6,4.6l-0.1,0.3l-0.8,0.1v0.3c0.3,1,0.2,0.6-0.4,1.4l-0.2,0.2l1.1,0.2
	l0.2,0.5c0.5,1.2,2,3.5,3.1,1.4l0.1-0.1l-1.1-0.1h-0.1l-0.3-0.2v-0.1l-0.2-0.2l-0.2-0.3l-0.2-0.4l-0.1-0.1l-0.2-0.6l-0.1-0.4
	l-0.1-0.3l0.1-0.1c1-1.8,1.7-3.7,2.2-5.8l0.1-0.4"/>
<polyline class="st2" points="100,158.5 99.4,159 99.6,159.2 99.8,159.5 100.1,159.8 100.3,160 100.5,160.2 100.7,160.5 
	101.3,159.9 101.2,159.7 101,159.4 100.3,158.7 "/>
<path class="st2" d="M90,158.3h-0.9v4.3h-1.7v0.9h1.7v6.7l-0.1,0.1l-0.3,0.1l-0.3,0.1l-0.3,0.2l-0.3,0.1l-0.4,0.2l-0.4,0.1l0.3,0.9
	l0.2-0.1c1.3-0.5,2.5-1.1,3.7-1.8l0.4-0.2l-1.7-0.1v-6.3h1.5v-0.9H90"/>
<path class="st2" d="M98.2,158.3h-0.8v0.2c-0.1,0.7-0.1,1.3,0,2v0.4h-5.9v0.8h5.9v0.1c0.1,2.2,0.3,4.5,0.6,6.7l0.1,0.2l0.8-0.1
	l-0.1-0.3c-0.3-2-0.5-4.1-0.5-6.2v-0.4h4v-0.8h-4v-0.1c-0.1-0.5-0.1-1-0.1-1.6v-0.4"/>
<path class="st7" d="M161.4,310l-1.1,0.1c-3.4,0.5-6.1,3.2-6.7,6.7l-0.1,1.1"/>
<line class="st8" x1="232.2" y1="309.9" x2="232.2" y2="76.3"/>
<line class="st8" x1="430" y1="309.9" x2="460" y2="309.9"/>
<line class="st8" x1="321" y1="333" x2="404.7" y2="333"/>
<polyline class="st7" points="404.7,333 405.9,332.9 407.1,332.6 408.2,332.1 409.3,331.5 410.2,330.8 411,329.9 "/>
<line class="st8" x1="193.1" y1="349.6" x2="336.5" y2="349.6"/>
<polyline class="st7" points="188.3,347.9 189.4,348.6 190.6,349.1 191.8,349.4 193.1,349.5 "/>
<polyline class="st7" points="253.3,346.3 254.1,347.2 255,348 256,348.7 257.2,349.2 258.4,349.4 259.6,349.5 "/>
<line class="st8" x1="222.9" y1="333" x2="239.6" y2="333"/>
<line class="st8" x1="283.3" y1="333" x2="298.6" y2="333"/>
<polyline class="st7" points="283.3,333 282.1,333.1 281,333.4 279.9,333.8 278.8,334.4 277.9,335.2 277.1,336 "/>
<line class="st8" x1="246" y1="336.3" x2="253.3" y2="346.3"/>
<polyline class="st7" points="245.9,336.3 245.2,335.4 244.2,334.5 243.2,333.9 242.1,333.4 240.9,333.2 239.6,333 "/>
<line class="st8" x1="268.9" y1="346.5" x2="277.1" y2="336"/>
<polyline class="st7" points="262.7,349.5 263.9,349.5 265,349.2 266.1,348.8 267.2,348.2 268.1,347.4 268.9,346.5 "/>
<line class="st8" x1="153.5" y1="333" x2="200.1" y2="333"/>
<polyline class="st7" points="170.9,334.7 169.9,334 168.7,333.5 167.4,333.2 166.1,333 "/>
<line class="st8" x1="188.3" y1="348" x2="170.9" y2="334.7"/>
<line class="st8" x1="518.9" y1="335" x2="664.6" y2="335"/>
<polyline class="st7" points="515.7,334.2 516.7,334.6 517.8,334.8 518.9,334.9 "/>
<line class="st8" x1="463.2" y1="310.7" x2="515.7" y2="334.2"/>
<polyline class="st7" points="463.2,310.7 462.1,310.3 461,310.1 460,310 "/>
<line class="st8" x1="550.9" y1="357.3" x2="550.9" y2="335"/>
<line class="st8" x1="543.7" y1="401.7" x2="656.7" y2="401.7"/>
<path class="st7" d="M656.7,401.7l1.1-0.1c3.4-0.5,6.1-3.2,6.7-6.7l0.1-1.1"/>
<path class="st7" d="M535.9,393.8l0.1,1.1c0.5,3.4,3.2,6.1,6.7,6.7l1.1,0.1"/>
<line class="st8" x1="535.9" y1="393.8" x2="535.9" y2="310.1"/>
<line class="st8" x1="550.9" y1="378.5" x2="550.9" y2="401.7"/>
<line class="st8" x1="564.9" y1="357.3" x2="564.9" y2="335"/>
<line class="st8" x1="564.9" y1="378.5" x2="564.9" y2="401.7"/>
<line class="st8" x1="578.8" y1="357.3" x2="578.8" y2="335"/>
<line class="st8" x1="578.8" y1="378.5" x2="578.8" y2="401.7"/>
<line class="st8" x1="592.8" y1="357.3" x2="592.8" y2="335"/>
<line class="st8" x1="592.8" y1="378.5" x2="592.8" y2="401.7"/>
<line class="st8" x1="606.8" y1="357.3" x2="606.8" y2="335"/>
<line class="st8" x1="606.8" y1="378.5" x2="606.8" y2="401.7"/>
<line class="st8" x1="620.8" y1="357.3" x2="620.8" y2="335"/>
<line class="st8" x1="620.8" y1="378.5" x2="620.8" y2="401.7"/>
<line class="st8" x1="634.7" y1="357.3" x2="634.7" y2="335"/>
<line class="st8" x1="634.7" y1="378.5" x2="634.7" y2="401.7"/>
<line class="st8" x1="648.7" y1="357.3" x2="648.7" y2="329.9"/>
<polyline class="st7" points="648.6,329.9 648.5,328.5 648.2,327.3 "/>
<line class="st8" x1="648.7" y1="378.5" x2="648.7" y2="401.7"/>
<line class="st8" x1="664.6" y1="393.8" x2="664.6" y2="325.5"/>
<line class="st8" x1="749.3" y1="293.1" x2="679.3" y2="293.1"/>
<path class="st7" d="M749.3,293.1l1.1-0.1c3.4-0.5,6.1-3.2,6.7-6.7l0.1-1.1"/>
<line class="st8" x1="704.5" y1="276.6" x2="679.3" y2="276.6"/>
<line class="st8" x1="704.5" y1="263.4" x2="679.3" y2="263.4"/>
<line class="st8" x1="704.5" y1="250.2" x2="679.3" y2="250.2"/>
<line class="st8" x1="704.5" y1="237" x2="679.3" y2="237"/>
<line class="st8" x1="704.5" y1="223.9" x2="679.3" y2="223.9"/>
<line class="st8" x1="704.5" y1="210.7" x2="679.3" y2="210.7"/>
<line class="st8" x1="704.5" y1="197.5" x2="679.3" y2="197.5"/>
<line class="st8" x1="749.3" y1="118.8" x2="616.6" y2="118.8"/>
<path class="st7" d="M757.2,126.6l-0.1-1.1c-0.5-3.4-3.2-6.1-6.7-6.7l-1.1-0.1"/>
<line class="st8" x1="704.5" y1="184.4" x2="679.3" y2="184.4"/>
<line class="st8" x1="679.3" y1="118.8" x2="679.3" y2="304.4"/>
<polyline class="st7" points="676.9,309.9 677.7,309 678.3,308 678.8,306.8 679.1,305.6 679.2,304.4 "/>
<line class="st8" x1="539.4" y1="96" x2="573.1" y2="96"/>
<line class="st8" x1="579" y1="98.7" x2="594" y2="116"/>
<polyline class="st7" points="579,98.8 578.2,98 577.3,97.4 576.3,96.8 575.3,96.4 574.2,96.2 573.1,96.1 "/>
<line class="st8" x1="619.9" y1="118.8" x2="619.9" y2="204.3"/>
<polyline class="st7" points="619.9,138.8 620,140.1 620.3,141.4 620.8,142.6 "/>
<line class="st8" x1="642.7" y1="310.1" x2="642.7" y2="184.7"/>
<polyline class="st7" points="642.6,249.4 642.5,248.1 642.2,246.8 641.6,245.6 "/>
<polyline class="st7" points="642.6,184.7 642.5,183.4 642.2,182.1 641.7,180.9 "/>
<line class="st8" x1="641.7" y1="180.9" x2="620.8" y2="142.6"/>
<line class="st8" x1="643.2" y1="312.6" x2="648.2" y2="327.2"/>
<polyline class="st7" points="642.7,310.1 642.8,311.4 643.2,312.6 "/>
<line class="st8" x1="620.8" y1="208.2" x2="641.7" y2="245.6"/>
<polyline class="st7" points="619.9,204.3 620,205.7 620.3,207 620.9,208.2 "/>
<line class="st8" x1="757.2" y1="276.6" x2="725.2" y2="276.6"/>
<line class="st8" x1="757.2" y1="263.4" x2="732" y2="263.4"/>
<line class="st8" x1="757.2" y1="250.2" x2="732" y2="250.2"/>
<line class="st8" x1="757.2" y1="237" x2="732" y2="237"/>
<line class="st8" x1="757.2" y1="223.9" x2="732" y2="223.9"/>
<line class="st8" x1="757.2" y1="210.7" x2="732" y2="210.7"/>
<line class="st8" x1="757.2" y1="197.5" x2="732" y2="197.5"/>
<line class="st8" x1="757.2" y1="184.4" x2="730.9" y2="184.4"/>
<line class="st8" x1="757.2" y1="126.6" x2="757.2" y2="285.3"/>
<line class="st8" x1="666.9" y1="319.8" x2="676.9" y2="310"/>
<polyline class="st7" points="666.9,319.9 666.1,320.8 665.5,321.9 665,323 664.7,324.2 664.6,325.5 "/>
<line class="st8" x1="232.2" y1="103.3" x2="208.4" y2="103.4"/>
<line class="st8" x1="232.3" y1="195" x2="208.5" y2="195"/>
<line class="st8" x1="232.3" y1="254.3" x2="208.5" y2="254.3"/>
<line class="st8" x1="616.6" y1="118.8" x2="600" y2="118.8"/>
<polyline class="st7" points="594.1,116 594.8,116.8 595.8,117.5 596.8,118 597.8,118.4 598.9,118.7 600,118.7 "/>
<line class="st8" x1="602.3" y1="172.8" x2="602.3" y2="113.7"/>
<line class="st8" x1="603.3" y1="176.7" x2="641.7" y2="245.6"/>
<polyline class="st7" points="602.3,172.8 602.5,174.2 602.8,175.5 603.4,176.7 "/>
<line class="st8" x1="65.8" y1="333" x2="153.5" y2="333"/>
<line class="st8" x1="65.8" y1="396.5" x2="145.6" y2="396.5"/>
<path class="st7" d="M145.6,396.4l1.1-0.1c3.4-0.5,6.1-3.2,6.7-6.7l0.1-1.1"/>
<line class="st8" x1="65.8" y1="362" x2="65.8" y2="333"/>
<line class="st8" x1="65.8" y1="366.6" x2="65.8" y2="396.5"/>
<line class="st8" x1="78.2" y1="362" x2="78.2" y2="333"/>
<line class="st8" x1="78.2" y1="366.6" x2="78.2" y2="396.5"/>
<line class="st8" x1="90.8" y1="362" x2="90.8" y2="333"/>
<line class="st8" x1="90.8" y1="366.6" x2="90.8" y2="396.5"/>
<line class="st8" x1="103.3" y1="362" x2="103.3" y2="333"/>
<line class="st8" x1="103.3" y1="366.6" x2="103.3" y2="396.5"/>
<line class="st8" x1="115.8" y1="362" x2="115.8" y2="333"/>
<line class="st8" x1="115.8" y1="366.6" x2="115.8" y2="396.5"/>
<line class="st8" x1="128.4" y1="362" x2="128.4" y2="333"/>
<line class="st8" x1="128.4" y1="366.6" x2="128.4" y2="396.5"/>
<line class="st8" x1="140.8" y1="362" x2="140.8" y2="333"/>
<line class="st8" x1="140.8" y1="366.6" x2="140.8" y2="396.5"/>
<line class="st8" x1="153.5" y1="389.7" x2="153.5" y2="317.9"/>
<line class="st8" x1="161.4" y1="309.9" x2="430" y2="309.9"/>
<line class="st0" x1="395.9" y1="324.9" x2="356.1" y2="324.9"/>
<polyline class="st0" points="356.1,322.8 395.9,322.8 395.9,324.9 "/>
<polyline class="st0" points="419.4,363.7 421.5,363.7 421.5,342.9 "/>
<polyline class="st0" points="419.4,363.7 419.4,342.9 421.5,342.9 "/>
<line class="st0" x1="395.9" y1="324.9" x2="419.4" y2="342.9"/>
<line class="st0" x1="356.1" y1="404" x2="356.1" y2="411.3"/>
<line class="st0" x1="395.9" y1="323.9" x2="420.8" y2="342.9"/>
<line class="st8" x1="388.8" y1="359.1" x2="423.7" y2="313.1"/>
<polyline class="st7" points="382.5,362.3 383.7,362.1 384.9,361.9 386,361.4 387.1,360.8 388,360 388.8,359.1 "/>
<polyline class="st7" points="430,310 428.8,310.1 427.6,310.4 426.5,310.8 425.5,311.4 424.6,312.2 423.8,313.1 "/>
<rect x="356.1" y="388.2" class="st0" width="23.7" height="15.8"/>
<rect x="328.5" y="395.6" class="st0" width="27.7" height="15.8"/>
<polyline class="st7" points="357.2,333 356,333.1 354.9,333.4 353.8,333.8 352.8,334.4 351.9,335.2 351.1,336 "/>
<line class="st8" x1="342.8" y1="346.5" x2="351" y2="336"/>
<polyline class="st7" points="336.5,349.5 337.8,349.5 338.9,349.2 340,348.8 341,348.2 342,347.4 342.7,346.5 "/>
<polyline class="st8" points="382.5,362.3 321.5,362.3 321.5,391.2 "/>
<line class="st8" x1="334.1" y1="391.2" x2="334.1" y2="362.3"/>
<line class="st0" x1="10.2" y1="411.3" x2="10.2" y2="16.2"/>
</svg>
