<?xml version="1.0" encoding="utf-8"?>
<!-- Generator: Adobe Illustrator 24.2.3, SVG Export Plug-In . SVG Version: 6.00 Build 0)  -->
<svg version="1.1" id="圖層_1" xmlns="http://www.w3.org/2000/svg" xmlns:xlink="http://www.w3.org/1999/xlink" x="0px" y="0px"
	 viewBox="0 0 595.3 85" style="enable-background:new 0 0 595.3 85;" xml:space="preserve">
<style type="text/css">
	.st0{fill:#4B9F4E;}
</style>
<g>
	<g>
		<path class="st0" d="M66.4,35.8L51.5,69.1H36.4l14.9-33.2H66.4z M55,27.8l5.2-11.6h50.2c4.8,0,7.5,2.3,7.5,5.8
			c0,0.8-0.2,1.9-0.9,3.3L97.2,69H82.1l17-37.7c0.2-0.3,0.2-0.7,0.2-1c0-1.4-1.1-2.5-2.8-2.5L55,27.8L55,27.8z M89.2,35.8L74.4,69.1
			H59.4l14.9-33.2H89.2z"/>
		<path class="st0" d="M122,69.1h-15.2l23.8-52.8h15.2L122,69.1z"/>
		<path class="st0" d="M161.5,35.8l-14.9,33.2h-15.2l15-33.2H161.5z M169.6,69.1h-15.1l17-37.7c0.2-0.4,0.2-0.8,0.2-1.2
			c0-1.4-0.9-2.3-2.8-2.3h-18.9l5.2-11.6h27.5c4.8,0,7.5,2.3,7.5,5.8c0,0.8-0.2,1.9-0.9,3.3L169.6,69.1z"/>
		<path class="st0" d="M194.4,69.1h-15.2l23.8-52.8h15.2L194.4,69.1z"/>
	</g>
	<g>
		<path class="st0" d="M247.5,70.7h-15.2l15.1-33.2h23.1l1.9-4.5c0.2-0.4,0.2-0.8,0.2-1.2c0-1.4-1-2.3-2.8-2.3H251l5.2-11.6h27.5
			c4.8,0,7.5,2.3,7.5,5.8c0,0.9-0.2,1.9-0.9,3.3l-6.8,15c-2.8,6.1-5.1,7.1-11.8,7.1h-14.4L247.5,70.7z"/>
		<path class="st0" d="M320.8,63c-2.9,6.4-6.5,7.7-14,7.7h-17c-4.8,0-7.5-2.3-7.5-5.8c0-0.9,0.3-2,1-3.4l16.1-36
			c2.9-6.5,6.6-7.7,14-7.7h17c4.8,0,7.5,2.3,7.5,5.8c0,0.9-0.2,2-0.9,3.4L320.8,63z M319.5,31.8c0-1.4-1.1-2.3-3-2.3
			c-2.4,0-4,1.1-5.1,3.4l-10.2,22.6c-0.2,0.5-0.3,1-0.3,1.4c0,1.4,1.1,2.2,3.3,2.2c2.1,0,3.7-1.1,4.7-3.4L319.1,33
			C319.3,32.6,319.5,32.2,319.5,31.8z"/>
		<path class="st0" d="M358.8,51.1c0-1.3-1.1-2.5-2.8-2.5h-3.8l-10.1,22h-15.2l14.9-32.8h23.4l2.1-5c0.2-0.4,0.2-0.8,0.2-1.2
			c0-1.3-1-2.3-2.8-2.3h-19.2l5.2-11.5h27.5c4.8,0,7.5,2.3,7.5,5.8c0,0.9-0.2,1.9-0.9,3.3l-8,17.9c-1.4,3.1-3.3,4.2-6.9,4.2h-0.5
			c1.8,1.1,2.7,2.7,2.7,4.7c0,0.8-0.2,2-0.9,3.4l-6.1,13.5h-14.8l8.2-18.5C358.7,51.9,358.8,51.5,358.8,51.1z"/>
		<path class="st0" d="M397.8,70.7h-15.2l14.9-33.2h15.2L397.8,70.7z M387.7,29.4l5.2-11.6h40.6l-5.2,11.6H387.7z"/>
		<path class="st0" d="M428.8,37.4h28.5L452.1,49h-13.4l-4.5,10h13.4l-5.2,11.6h-28.5L428.8,37.4z M460.9,29.4h-28.5l5.2-11.6h28.5
			L460.9,29.4z"/>
		<path class="st0" d="M483.6,51.1c0-1.3-1.1-2.5-2.8-2.5H477l-10.1,22h-15.2l14.9-32.8H490l2.1-5c0.2-0.4,0.2-0.8,0.2-1.2
			c0-1.3-1-2.3-2.8-2.3h-19.2l5.2-11.5H503c4.8,0,7.5,2.3,7.5,5.8c0,0.9-0.2,1.9-0.9,3.3l-8,17.9c-1.4,3.1-3.3,4.2-6.9,4.2h-0.5
			c1.8,1.1,2.7,2.7,2.7,4.7c0,0.8-0.2,2-0.9,3.4l-6.1,13.5h-14.8l8.2-18.5C483.5,51.9,483.6,51.5,483.6,51.1z"/>
		<polygon class="st0" points="553.9,27.8 527.2,27.8 531.9,17.7 558.6,17.7 		"/>
		<polygon class="st0" points="531.6,36.1 544.1,9.3 554.2,9.3 541.7,36.1 		"/>
	</g>
</g>
</svg>
