<?xml version="1.0" encoding="utf-8"?>
<!-- Generator: Adobe Illustrator 26.0.0, SVG Export Plug-In . SVG Version: 6.00 Build 0)  -->
<svg version="1.1" id="圖層_1" xmlns="http://www.w3.org/2000/svg" xmlns:xlink="http://www.w3.org/1999/xlink" x="0px" y="0px"
	 viewBox="0 0 39.8 37.42" style="enable-background:new 0 0 39.8 37.42;" xml:space="preserve">
<style type="text/css">
	.st0{fill:#638933;}
	.st1{fill:#86BC43;}
	.st2{fill:#4AA64F;}
	.st3{fill:#888888;}
	.st4{fill:url(#SVGID_1_);}
	.st5{fill:url(#SVGID_00000084530175294571667760000015395751635880007347_);}
	.st6{fill:#FFF100;}
	.st7{fill:url(#SVGID_00000053533242834366728420000016949220994982026388_);}
	.st8{fill:url(#SVGID_00000027567975567090260070000010199439380447148703_);}
	.st9{fill:url(#SVGID_00000049920037325789745170000010493302919600597395_);}
</style>
<g>
	<g>
		<ellipse class="st2" cx="20.21" cy="18.71" rx="15.98" ry="16.04"/>
		<linearGradient id="SVGID_1_" gradientUnits="userSpaceOnUse" x1="24.0658" y1="7.6925" x2="25.8146" y2="7.6925">
			<stop  offset="3.418487e-03" style="stop-color:#FFFFFF"/>
			<stop  offset="1" style="stop-color:#E1D735"/>
		</linearGradient>
		<ellipse class="st4" cx="24.94" cy="7.69" rx="0.87" ry="0.88"/>
		
			<linearGradient id="SVGID_00000121279180769166436560000016613994996643571100_" gradientUnits="userSpaceOnUse" x1="11.2567" y1="15.8758" x2="29.1595" y2="15.8758">
			<stop  offset="3.418487e-03" style="stop-color:#FFFFFF"/>
			<stop  offset="1" style="stop-color:#FFF100"/>
		</linearGradient>
		<path style="fill:url(#SVGID_00000121279180769166436560000016613994996643571100_);" d="M27.69,9.46
			c1.15,1.77,1.57,3.66,1.44,5.7c-0.13,2.17-1.1,3.94-2.47,5.57c-0.75,0.89-1.48,1.82-2.06,2.83c-0.36,0.64-0.47,1.44-0.61,2.19
			c-0.1,0.5-0.12,0.6-0.64,0.6c-2.13,0-4.25,0-6.38,0.01c-0.36,0-0.6-0.12-0.6-0.51c0-1.64-0.79-2.93-1.8-4.12
			c-0.92-1.09-1.88-2.16-2.52-3.46c-0.63-1.28-0.82-2.64-0.81-4.05c0.02-1.88,0.59-3.59,1.7-5.1c1.22-1.66,2.82-2.79,4.8-3.36
			c1.43-0.41,2.87-0.43,4.32-0.14c0.15,0.03,0.29,0.1,0.44,0.15c-0.2,0.34-0.35,0.65-0.55,0.92c-0.08,0.11-0.27,0.18-0.41,0.19
			c-0.79,0.01-1.59-0.08-2.37,0c-1.92,0.2-3.49,1.11-4.74,2.58c-1.29,1.51-1.88,3.27-1.84,5.24c0.04,1.91,0.8,3.52,2.01,4.96
			c0.79,0.94,1.57,1.89,2.23,2.92c0.39,0.6,0.56,1.35,0.78,2.05c0.08,0.24,0.17,0.35,0.4,0.35c1.45,0,2.89,0.01,4.34-0.01
			c0.13,0,0.36-0.18,0.38-0.3c0.33-1.77,1.4-3.11,2.53-4.43c0.83-0.96,1.64-1.95,2.07-3.18c0.62-1.75,0.63-3.49-0.01-5.23
			c-0.14-0.38-0.34-0.73-0.48-1.11c-0.04-0.09-0.02-0.25,0.04-0.33C27.14,10.08,27.4,9.8,27.69,9.46z"/>
		<path class="st6" d="M23.34,28.15c0.26-0.09,0.44-0.34,0.44-0.63c0-0.37-0.3-0.67-0.67-0.67h-5.95c-0.37,0-0.67,0.3-0.67,0.67
			c0,0.29,0.19,0.53,0.44,0.63c-0.18,0.11-0.3,0.3-0.3,0.52v0.06c0,0.3,0.22,0.55,0.51,0.6c-0.2,0.1-0.34,0.31-0.34,0.55
			c0,0.34,0.27,0.61,0.61,0.61h0.87c0.34,0.59,1.04,1,1.86,1c0.81,0,1.51-0.41,1.86-1h0.87c0.33,0,0.61-0.28,0.61-0.61
			c0-0.24-0.14-0.45-0.34-0.55c0.29-0.05,0.51-0.3,0.51-0.6v-0.06C23.64,28.45,23.52,28.26,23.34,28.15z"/>
		<g>
			
				<linearGradient id="SVGID_00000154395550295672769790000017777298522956891803_" gradientUnits="userSpaceOnUse" x1="14.372" y1="14.5249" x2="18.3203" y2="14.5249">
				<stop  offset="3.418487e-03" style="stop-color:#FFFFFF"/>
				<stop  offset="1" style="stop-color:#E1D735"/>
			</linearGradient>
			<path style="fill:url(#SVGID_00000154395550295672769790000017777298522956891803_);" d="M17.03,17.08h-1.36v-1.62
				c-0.38-0.16-0.69-0.38-0.91-0.68c-0.14-0.19-0.24-0.4-0.3-0.61c-0.06-0.21-0.09-0.48-0.09-0.82v-0.16v-1.22h1.36v1.39v0.14
				c0,0.23,0.06,0.41,0.17,0.53c0.11,0.12,0.26,0.19,0.45,0.19c0.19,0,0.34-0.06,0.45-0.19c0.11-0.13,0.16-0.31,0.16-0.52v-0.14
				v-1.39h1.36v1.22v0.16c0,0.37-0.03,0.66-0.1,0.89c-0.07,0.22-0.19,0.44-0.37,0.64c-0.12,0.13-0.24,0.24-0.35,0.33
				c-0.13,0.09-0.29,0.18-0.47,0.25V17.08z"/>
			
				<linearGradient id="SVGID_00000147940897641600761820000016584011601947401367_" gradientUnits="userSpaceOnUse" x1="19.4224" y1="14.5249" x2="20.7832" y2="14.5249">
				<stop  offset="3.418487e-03" style="stop-color:#FFFFFF"/>
				<stop  offset="1" style="stop-color:#E1D735"/>
			</linearGradient>
			<path style="fill:url(#SVGID_00000147940897641600761820000016584011601947401367_);" d="M20.78,17.08h-1.36v-5.11h1.36V17.08z"
				/>
			
				<linearGradient id="SVGID_00000056418218116673041150000006815950570103507891_" gradientUnits="userSpaceOnUse" x1="21.6747" y1="14.5249" x2="26.0442" y2="14.5249">
				<stop  offset="3.418487e-03" style="stop-color:#FFFFFF"/>
				<stop  offset="1" style="stop-color:#E1D735"/>
			</linearGradient>
			<path style="fill:url(#SVGID_00000056418218116673041150000006815950570103507891_);" d="M23.04,17.08h-1.36v-5.11h1.28h0.16
				c0.5,0,0.9,0.04,1.2,0.13c0.3,0.09,0.59,0.26,0.85,0.49c0.18,0.16,0.34,0.34,0.47,0.55c0.12,0.19,0.22,0.41,0.3,0.65
				c0.07,0.23,0.1,0.47,0.1,0.73c0,0.23-0.03,0.46-0.09,0.68c-0.06,0.23-0.15,0.44-0.26,0.62c-0.11,0.19-0.25,0.37-0.41,0.53
				c-0.16,0.16-0.34,0.29-0.54,0.4c-0.21,0.12-0.42,0.2-0.63,0.25c-0.21,0.05-0.45,0.07-0.74,0.07h-0.11v-1.36h0.14
				c0.25,0,0.48-0.05,0.67-0.15c0.19-0.09,0.35-0.23,0.45-0.41c0.1-0.18,0.16-0.38,0.16-0.62c0-0.25-0.06-0.47-0.18-0.66
				c-0.11-0.18-0.28-0.33-0.5-0.43c-0.21-0.1-0.46-0.15-0.75-0.15h-0.23V17.08z"/>
		</g>
	</g>
</g>
</svg>
