<?xml version="1.0" encoding="utf-8"?>
<!-- Generator: Adobe Illustrator 26.0.0, SVG Export Plug-In . SVG Version: 6.00 Build 0)  -->
<svg version="1.1" id="圖層_1" xmlns="http://www.w3.org/2000/svg" xmlns:xlink="http://www.w3.org/1999/xlink" x="0px" y="0px"
	 viewBox="0 0 303.52 37.42" style="enable-background:new 0 0 303.52 37.42;" xml:space="preserve">
<style type="text/css">
	.st0{fill:#638933;}
	.st1{fill:#86BC43;}
	.st2{fill:#4AA64F;}
	.st3{fill:#888888;}
	.st4{fill:url(#SVGID_1_);}
	.st5{fill:url(#SVGID_00000055665687642031298870000012480435830535519679_);}
	.st6{fill:#FFF100;}
	.st7{fill:url(#SVGID_00000049927384273107077190000008445298022530404781_);}
	.st8{fill:url(#SVGID_00000005947372662694560770000013060867077656118703_);}
	.st9{fill:url(#SVGID_00000092434158727389587810000016111324914215391373_);}
</style>
<g>
	<g>
		<path class="st3" d="M2.31,26.87c-0.13-2.2-0.29-3.96-0.47-5.28c1.16,0.52,2.19,0.88,3.1,1.08c0.91,0.2,1.7,0.3,2.38,0.3
			c0.9,0,1.62-0.13,2.15-0.4s0.8-0.65,0.8-1.17c0-0.18-0.03-0.34-0.08-0.5c-0.05-0.16-0.15-0.34-0.29-0.54
			c-0.14-0.2-0.35-0.42-0.62-0.66l-2.92-2.54c-0.68-0.58-1.16-1-1.43-1.26c-0.55-0.53-0.98-1.02-1.28-1.47
			c-0.31-0.45-0.53-0.92-0.67-1.39c-0.14-0.47-0.21-0.97-0.21-1.5c0-0.63,0.11-1.25,0.33-1.85c0.22-0.6,0.55-1.17,1-1.7
			c0.44-0.53,1.03-0.98,1.77-1.36C6.6,6.25,7.39,5.99,8.23,5.85c0.84-0.14,1.7-0.21,2.59-0.21c1.75,0,3.65,0.2,5.7,0.6
			c0.03,0.71,0.07,1.37,0.11,1.96c0.04,0.59,0.14,1.63,0.29,3.12c-0.95-0.38-1.82-0.65-2.6-0.8c-0.79-0.15-1.46-0.22-2.03-0.22
			c-0.81,0-1.47,0.15-2.01,0.45c-0.53,0.3-0.8,0.67-0.8,1.12c0,0.21,0.04,0.41,0.12,0.6c0.08,0.2,0.24,0.43,0.46,0.69
			c0.23,0.26,0.53,0.55,0.9,0.87c0.37,0.32,0.96,0.78,1.75,1.4l1.12,0.88c0.33,0.27,0.69,0.59,1.07,0.98
			c0.38,0.38,0.71,0.76,0.99,1.13c0.28,0.37,0.49,0.71,0.64,1.02c0.15,0.31,0.26,0.62,0.33,0.94c0.07,0.32,0.11,0.65,0.11,1.01
			c0,0.93-0.22,1.82-0.67,2.66c-0.44,0.84-1.07,1.53-1.89,2.08c-0.82,0.54-1.71,0.92-2.69,1.14c-0.98,0.22-2.01,0.33-3.09,0.33
			C6.97,27.6,4.86,27.36,2.31,26.87z"/>
		<path class="st3" d="M19.89,27.2l0.43-7.47l0.25-5.84l0.03-2.51c1.14,0.02,2.14,0.03,3.01,0.03c0.98,0,1.94-0.01,2.87-0.03
			l-0.11,2.06c0.32-0.41,0.59-0.73,0.81-0.95c0.22-0.22,0.49-0.43,0.81-0.64c0.32-0.2,0.65-0.36,0.99-0.48
			c0.34-0.12,0.72-0.21,1.15-0.29c0.42-0.07,0.87-0.11,1.33-0.11c0.53,0,1.01,0.04,1.46,0.13c0.44,0.09,0.83,0.2,1.15,0.33
			c0.32,0.13,0.6,0.29,0.84,0.46c0.24,0.18,0.45,0.37,0.63,0.6c0.18,0.22,0.39,0.54,0.63,0.97c0.45-0.66,0.93-1.16,1.44-1.5
			c0.51-0.34,1.08-0.59,1.73-0.75c0.65-0.16,1.31-0.24,1.99-0.24c0.9,0,1.75,0.13,2.54,0.39c0.8,0.26,1.45,0.71,1.96,1.34
			c0.51,0.64,0.77,1.46,0.77,2.47c0,0.48-0.03,1.19-0.1,2.15c-0.07,0.96-0.16,2.61-0.28,4.95c-0.12,2.34-0.19,3.98-0.2,4.92
			c-0.95-0.02-1.87-0.03-2.76-0.03c-1.08,0-2.22,0.01-3.41,0.03c0.1-1.31,0.21-2.96,0.32-4.94c0.11-1.98,0.16-3.35,0.16-4.11
			c0-0.67-0.08-1.17-0.23-1.5c-0.16-0.33-0.35-0.55-0.6-0.68c-0.24-0.12-0.51-0.18-0.8-0.18c-0.31,0-0.58,0.06-0.81,0.17
			c-0.25,0.13-0.47,0.32-0.65,0.58c-0.25,0.34-0.45,0.78-0.61,1.3c-0.12,0.41-0.22,1.03-0.29,1.86c-0.07,0.85-0.13,1.96-0.17,3.35
			l-0.12,4.15c-1.1-0.02-2.1-0.03-2.99-0.03c-0.91,0-1.98,0.01-3.2,0.03c0.09-0.92,0.2-2.46,0.33-4.63
			c0.13-2.17,0.19-3.62,0.19-4.35c0-0.62-0.06-1.08-0.19-1.39c-0.12-0.31-0.3-0.56-0.52-0.74c-0.22-0.19-0.52-0.28-0.89-0.28
			c-0.4,0-0.75,0.12-1.05,0.36c-0.3,0.24-0.56,0.58-0.77,1.02c-0.21,0.44-0.36,1.06-0.45,1.84c-0.09,0.78-0.17,1.97-0.24,3.57
			c-0.07,1.6-0.12,3.14-0.14,4.62c-1.25-0.02-2.26-0.03-3.04-0.03C22.23,27.17,21.17,27.18,19.89,27.2z"/>
		<path class="st3" d="M50.89,15.89c0.2-1.02,0.32-1.73,0.37-2.12s0.13-0.99,0.25-1.82c2.98-0.65,5.53-0.98,7.67-0.98
			c1.22,0,2.34,0.14,3.35,0.41c1.01,0.27,1.8,0.72,2.37,1.32c0.57,0.61,0.85,1.48,0.85,2.62c0,0.58-0.08,1.88-0.23,3.9
			c-0.15,2.03-0.27,4.68-0.36,7.97c-1.01-0.02-2.02-0.03-3.02-0.03c-0.97,0-2,0.01-3.1,0.03c0.14-1.14,0.3-3.48,0.47-7.04
			c-0.39,0.19-0.7,0.32-0.92,0.4c-0.22,0.08-0.61,0.21-1.17,0.37c-0.56,0.17-0.99,0.3-1.31,0.42c-0.31,0.11-0.59,0.26-0.82,0.43
			c-0.23,0.18-0.4,0.36-0.49,0.54c-0.1,0.19-0.15,0.39-0.15,0.62c0,0.35,0.14,0.65,0.42,0.9c0.28,0.25,0.72,0.37,1.33,0.37
			c0.22,0,0.45-0.02,0.7-0.05c0.25-0.04,0.59-0.13,1.02-0.27c-0.3,0.8-0.66,1.96-1.07,3.49c-0.89,0.14-1.73,0.22-2.53,0.22
			c-1.28,0-2.35-0.18-3.2-0.53c-0.85-0.36-1.51-0.93-1.97-1.73c-0.46-0.8-0.69-1.59-0.69-2.39c0-0.49,0.08-0.96,0.26-1.43
			c0.17-0.46,0.44-0.92,0.8-1.36c0.36-0.44,0.78-0.82,1.27-1.14c0.49-0.32,1.15-0.61,1.99-0.89c0.84-0.28,1.91-0.54,3.2-0.79
			c0.54-0.1,1.03-0.21,1.48-0.33c0.45-0.12,0.77-0.22,0.96-0.31s0.35-0.19,0.46-0.31c0.12-0.12,0.2-0.24,0.26-0.37
			c0.05-0.13,0.08-0.27,0.08-0.41c0-0.39-0.17-0.69-0.5-0.91c-0.33-0.21-0.82-0.32-1.46-0.32C55.69,14.38,53.5,14.88,50.89,15.89z"
			/>
		<path class="st3" d="M68.63,27.2l0.48-6.88l0.15-3.95c0.01-0.71,0.02-1.44,0.02-2.18c0-0.75-0.01-1.69-0.03-2.8
			c1.25,0.02,2.24,0.03,2.98,0.03c0.86,0,1.84-0.01,2.96-0.03l-0.06,1.75c0.4-0.45,0.73-0.79,0.99-1.02
			c0.26-0.22,0.55-0.42,0.88-0.6c0.33-0.18,0.68-0.32,1.04-0.4c0.36-0.09,0.74-0.13,1.13-0.13c0.37,0,0.79,0.05,1.24,0.16
			c0.01,1.13,0.04,2.06,0.08,2.79l0.11,2.39c-0.57-0.17-1.1-0.25-1.59-0.25c-0.62,0-1.15,0.09-1.6,0.27
			c-0.45,0.18-0.85,0.45-1.19,0.82c-0.35,0.37-0.62,0.82-0.83,1.37c-0.21,0.55-0.35,1.42-0.43,2.6c-0.08,1.19-0.12,2.55-0.12,4.08
			c0,0.54,0.02,1.2,0.06,2c-1-0.02-2.01-0.03-3.02-0.03C70.85,27.17,69.78,27.18,68.63,27.2z"/>
		<path class="st3" d="M93.81,22.64c-0.19,0.87-0.35,1.72-0.48,2.54l-0.34,1.89c-1.02,0.23-1.82,0.37-2.39,0.43
			c-0.57,0.06-1.13,0.09-1.67,0.09c-0.88,0-1.66-0.07-2.34-0.22c-0.68-0.15-1.25-0.42-1.7-0.82c-0.45-0.4-0.76-0.86-0.93-1.37
			c-0.17-0.52-0.25-1.06-0.25-1.64c0-0.1,0.01-0.29,0.01-0.55c0.01-0.26,0.05-0.85,0.11-1.76l0.34-5.36h-2.41
			c0.05-0.71,0.1-1.65,0.14-2.82l0.05-1.44h2.57c0.06-0.47,0.14-1.51,0.23-3.11l2.65-0.54c0.49-0.09,1.52-0.33,3.1-0.71
			c-0.07,1.35-0.12,2.81-0.16,4.37h3.53c-0.08,2.15-0.12,3.57-0.12,4.26h-3.57L90,19.74c-0.02,0.58-0.03,0.95-0.03,1.12
			c0,0.5,0.05,0.91,0.16,1.24c0.11,0.33,0.3,0.57,0.57,0.71c0.27,0.14,0.58,0.22,0.91,0.22c0.25,0,0.51-0.02,0.78-0.05
			C92.65,22.94,93.13,22.83,93.81,22.64z"/>
		<path class="st3" d="M101.14,27.2l1.29-2.23l8.02-15.09l0.85-1.69c0.25-0.5,0.59-1.21,1.04-2.14c1.82,0.02,3.15,0.03,3.98,0.03
			c1.46,0,2.8-0.01,4.04-0.03l2.26,6.46l4.6,12.43l0.9,2.26c-1.79-0.02-2.88-0.03-3.26-0.03c-0.87,0-2.15,0.01-3.83,0.03
			c-0.45-1.7-1.11-3.71-1.96-6.01h-7.8c-0.9,1.82-1.83,3.82-2.79,6.01c-1.92-0.02-3.1-0.03-3.54-0.03
			C104.16,27.17,102.89,27.18,101.14,27.2z M113.14,16.68h4.81c-1.2-3.64-1.85-5.65-1.96-6.02c-0.68,1.52-1.26,2.76-1.73,3.73
			L113.14,16.68z"/>
		<path class="st3" d="M142.19,14.86c1.42,0.02,2.76,0.03,4.04,0.03c2.19,0,3.91-0.01,5.14-0.03c-0.13,1.42-0.27,3.42-0.41,6.01
			c-0.14,2.59-0.22,4.55-0.26,5.87c-1.19,0.22-2.17,0.37-2.95,0.47c-0.78,0.1-1.72,0.19-2.81,0.26c-1.1,0.08-2.07,0.12-2.93,0.12
			c-1.41,0-2.78-0.11-4.14-0.34c-1.35-0.23-2.56-0.59-3.63-1.1c-1.07-0.51-1.96-1.19-2.67-2.06c-0.71-0.87-1.26-1.9-1.65-3.08
			c-0.39-1.19-0.58-2.42-0.58-3.69c0-2.1,0.52-4.04,1.57-5.84s2.54-3.22,4.5-4.27c1.96-1.05,4.49-1.57,7.59-1.57
			c2.26,0,4.77,0.27,7.52,0.82c0,1.51,0.07,3.19,0.2,5.04c-0.74-0.25-1.35-0.44-1.81-0.57c-0.46-0.13-1-0.25-1.61-0.36
			c-0.61-0.11-1.2-0.19-1.75-0.24c-0.55-0.05-1.05-0.08-1.48-0.08c-1.14,0-2.21,0.16-3.22,0.49c-1.01,0.33-1.88,0.83-2.61,1.5
			c-0.73,0.68-1.27,1.49-1.63,2.42c-0.36,0.94-0.54,1.93-0.54,2.98c0,1.06,0.21,2.01,0.62,2.84c0.41,0.83,1.07,1.46,1.97,1.9
			c0.9,0.43,1.9,0.65,3.01,0.65c0.92,0,1.93-0.13,3.02-0.4l0.18-3.36c-0.67-0.03-1.07-0.05-1.2-0.05L142,19.25l0.11-1.91
			c0.01-0.21,0.03-0.5,0.05-0.89C142.18,16.06,142.19,15.53,142.19,14.86z"/>
		<path class="st3" d="M160.14,27.2l-0.57-1.89l-3.78-10.89l-2.98-8.37c1.4,0.02,2.65,0.03,3.75,0.03c0.67,0,1.72-0.01,3.16-0.03
			c0.24,0.92,0.42,1.62,0.56,2.09c0.19,0.62,0.54,1.74,1.06,3.37l2.28,7.33c0.23,0.77,0.51,1.76,0.84,2.99l0.71-1.78l5.4-11.85
			c0.09-0.22,0.2-0.47,0.32-0.74c0.12-0.28,0.31-0.75,0.57-1.41c1.5,0.02,2.7,0.03,3.61,0.03c0.57,0,1.69-0.01,3.38-0.03
			c-1.05,1.96-2.25,4.26-3.58,6.88l-5.34,10.6c-0.52,1.03-1.09,2.26-1.73,3.67c-1.74-0.02-2.98-0.03-3.72-0.03
			C163.37,27.17,162.06,27.18,160.14,27.2z"/>
		<path class="st3" d="M186.17,26.87c-0.13-2.2-0.29-3.96-0.47-5.28c1.16,0.52,2.19,0.88,3.1,1.08c0.91,0.2,1.7,0.3,2.38,0.3
			c0.9,0,1.62-0.13,2.15-0.4c0.53-0.26,0.8-0.65,0.8-1.17c0-0.18-0.03-0.34-0.08-0.5c-0.05-0.16-0.15-0.34-0.29-0.54
			c-0.15-0.2-0.35-0.42-0.62-0.66l-2.92-2.54c-0.68-0.58-1.16-1-1.43-1.26c-0.55-0.53-0.98-1.02-1.28-1.47
			c-0.31-0.45-0.53-0.92-0.67-1.39c-0.14-0.47-0.21-0.97-0.21-1.5c0-0.63,0.11-1.25,0.33-1.85c0.22-0.6,0.56-1.17,1-1.7
			c0.44-0.53,1.03-0.98,1.77-1.36c0.73-0.38,1.52-0.64,2.36-0.78c0.84-0.14,1.7-0.21,2.59-0.21c1.75,0,3.65,0.2,5.7,0.6
			c0.03,0.71,0.07,1.37,0.11,1.96c0.04,0.59,0.14,1.63,0.29,3.12c-0.95-0.38-1.82-0.65-2.6-0.8c-0.78-0.15-1.46-0.22-2.03-0.22
			c-0.81,0-1.47,0.15-2.01,0.45c-0.53,0.3-0.8,0.67-0.8,1.12c0,0.21,0.04,0.41,0.12,0.6c0.08,0.2,0.24,0.43,0.47,0.69
			c0.23,0.26,0.53,0.55,0.9,0.87c0.37,0.32,0.96,0.78,1.75,1.4l1.12,0.88c0.33,0.27,0.69,0.59,1.07,0.98
			c0.38,0.38,0.71,0.76,0.99,1.13c0.28,0.37,0.49,0.71,0.64,1.02s0.26,0.62,0.33,0.94c0.07,0.32,0.11,0.65,0.11,1.01
			c0,0.93-0.22,1.82-0.67,2.66c-0.44,0.84-1.07,1.53-1.89,2.08c-0.82,0.54-1.71,0.92-2.69,1.14c-0.98,0.22-2.01,0.33-3.09,0.33
			C190.83,27.6,188.72,27.36,186.17,26.87z"/>
		<path class="st3" d="M202.43,34.28c-0.32-2.47-0.54-4-0.65-4.6c0.65,0.31,1.23,0.52,1.73,0.64c0.5,0.11,0.93,0.17,1.29,0.17
			c0.38,0,0.74-0.05,1.08-0.16c0.34-0.1,0.6-0.23,0.8-0.38c0.2-0.15,0.41-0.38,0.64-0.69c0.23-0.31,0.41-0.58,0.52-0.8
			c0.11-0.22,0.23-0.54,0.34-0.95l-2.92-8.82l-2.5-7.31c1.54,0.02,2.62,0.03,3.24,0.03c0.72,0,1.71-0.01,2.96-0.03
			c0.2,0.8,0.56,2.17,1.09,4.12c0.53,1.95,0.92,3.48,1.16,4.59c0.13,0.61,0.26,1.38,0.39,2.32l0.32-1.24
			c0.1-0.33,0.22-0.71,0.36-1.13c0.13-0.42,0.3-0.93,0.51-1.52l1.01-2.82l1.67-4.32c1.29,0.02,2.27,0.03,2.93,0.03
			c0.58,0,1.61-0.01,3.1-0.03l-2.99,6.76l-5.4,12.54c-0.35,0.7-0.69,1.26-1.01,1.67c-0.3,0.37-0.63,0.7-0.98,0.98
			c-0.33,0.26-0.69,0.47-1.07,0.65c-0.52,0.24-1.09,0.42-1.71,0.56c-0.68,0.14-1.37,0.22-2.08,0.22c-0.32,0-0.74-0.02-1.27-0.07
			c-0.53-0.05-0.95-0.09-1.28-0.14C203.39,34.49,202.96,34.4,202.43,34.28z"/>
		<path class="st3" d="M222.35,26.9c-0.04-0.45-0.08-0.93-0.12-1.43c-0.04-0.5-0.11-1.19-0.2-2.07l-0.12-1.12
			c1,0.39,1.86,0.68,2.58,0.88c0.72,0.19,1.39,0.29,1.99,0.29c0.5,0,0.91-0.05,1.23-0.14c0.31-0.09,0.54-0.23,0.69-0.4
			c0.14-0.18,0.22-0.36,0.22-0.54c0-0.17-0.05-0.33-0.16-0.49c-0.11-0.16-0.35-0.38-0.73-0.66c-0.84-0.62-1.59-1.18-2.23-1.69
			c-0.64-0.51-1.13-0.96-1.45-1.35c-0.32-0.39-0.57-0.82-0.74-1.27c-0.17-0.45-0.26-0.92-0.26-1.41c0-0.86,0.25-1.66,0.74-2.4
			c0.49-0.74,1.21-1.28,2.17-1.62c0.96-0.34,2.12-0.5,3.49-0.5c1.44,0,3.27,0.19,5.5,0.56l0.25,4.34c-1.25-0.5-2.45-0.74-3.61-0.74
			c-0.82,0-1.41,0.08-1.77,0.25c-0.37,0.17-0.55,0.42-0.55,0.77c0,0.11,0.02,0.22,0.06,0.33c0.04,0.1,0.12,0.21,0.22,0.33
			c0.11,0.11,0.24,0.23,0.4,0.35c0.16,0.12,0.55,0.4,1.17,0.83c0.62,0.43,1.11,0.79,1.46,1.07c0.58,0.45,1.02,0.88,1.32,1.26
			c0.31,0.39,0.54,0.8,0.7,1.24c0.16,0.44,0.24,0.9,0.24,1.39c0,0.73-0.18,1.41-0.53,2.02c-0.36,0.61-0.89,1.13-1.61,1.54
			c-0.72,0.41-1.5,0.7-2.33,0.86c-0.84,0.16-1.7,0.24-2.59,0.24c-0.6,0-1.35-0.05-2.25-0.15C224.6,27.34,223.55,27.16,222.35,26.9z"
			/>
		<path class="st3" d="M249.33,22.64c-0.19,0.87-0.35,1.72-0.48,2.54l-0.34,1.89c-1.02,0.23-1.82,0.37-2.39,0.43
			c-0.57,0.06-1.13,0.09-1.67,0.09c-0.88,0-1.66-0.07-2.34-0.22c-0.68-0.15-1.25-0.42-1.7-0.82c-0.45-0.4-0.77-0.86-0.93-1.37
			c-0.17-0.52-0.25-1.06-0.25-1.64c0-0.1,0.01-0.29,0.02-0.55c0.01-0.26,0.05-0.85,0.11-1.76l0.34-5.36h-2.41
			c0.05-0.71,0.1-1.65,0.14-2.82l0.05-1.44h2.57c0.06-0.47,0.14-1.51,0.23-3.11l2.65-0.54c0.49-0.09,1.52-0.33,3.1-0.71
			c-0.07,1.35-0.12,2.81-0.16,4.37h3.53c-0.08,2.15-0.12,3.57-0.12,4.26h-3.57l-0.19,3.87c-0.02,0.58-0.03,0.95-0.03,1.12
			c0,0.5,0.05,0.91,0.16,1.24c0.11,0.33,0.3,0.57,0.57,0.71c0.27,0.14,0.58,0.22,0.91,0.22c0.25,0,0.51-0.02,0.78-0.05
			C248.17,22.94,248.65,22.83,249.33,22.64z"/>
		<path class="st3" d="M266.66,22.52c-0.13,0.62-0.39,2.12-0.77,4.49c-1.2,0.24-2.21,0.4-3.02,0.47c-0.82,0.08-1.64,0.12-2.48,0.12
			c-1.23,0-2.36-0.09-3.39-0.26c-1.03-0.17-1.92-0.47-2.67-0.91c-0.75-0.43-1.38-0.97-1.88-1.62s-0.89-1.41-1.15-2.3
			c-0.26-0.89-0.4-1.8-0.4-2.74c0-1.32,0.26-2.61,0.79-3.88c0.53-1.26,1.21-2.25,2.04-2.96c0.83-0.71,1.79-1.22,2.87-1.52
			c1.08-0.3,2.2-0.45,3.33-0.45c1.18,0,2.3,0.14,3.37,0.41c1.07,0.27,1.98,0.75,2.72,1.43c0.74,0.68,1.27,1.45,1.59,2.31
			c0.32,0.86,0.47,1.78,0.47,2.77c0,0.59-0.07,1.24-0.2,1.97L257,19.88c-0.01,0.16-0.02,0.31-0.02,0.45c0,1.11,0.4,1.93,1.19,2.45
			c0.8,0.52,1.77,0.79,2.91,0.79c0.68,0,1.46-0.08,2.33-0.24C264.3,23.17,265.38,22.9,266.66,22.52z M257.13,17.51h5.11
			c0.01-0.18,0.02-0.33,0.02-0.45c0-0.54-0.1-1-0.29-1.38c-0.19-0.38-0.46-0.66-0.82-0.84c-0.36-0.18-0.76-0.26-1.2-0.26
			c-0.31,0-0.61,0.05-0.9,0.15c-0.29,0.1-0.55,0.24-0.78,0.43c-0.23,0.19-0.43,0.41-0.58,0.66c-0.15,0.25-0.27,0.49-0.34,0.72
			C257.27,16.78,257.2,17.1,257.13,17.51z"/>
		<path class="st3" d="M270.14,27.2l0.43-7.47l0.25-5.84l0.03-2.51c1.14,0.02,2.14,0.03,3.01,0.03c0.98,0,1.94-0.01,2.87-0.03
			l-0.11,2.06c0.32-0.41,0.59-0.73,0.81-0.95c0.22-0.22,0.49-0.43,0.81-0.64c0.32-0.2,0.65-0.36,0.99-0.48
			c0.34-0.12,0.72-0.21,1.15-0.29c0.42-0.07,0.87-0.11,1.33-0.11c0.53,0,1.01,0.04,1.46,0.13c0.44,0.09,0.83,0.2,1.15,0.33
			s0.6,0.29,0.84,0.46c0.24,0.18,0.45,0.37,0.63,0.6c0.18,0.22,0.39,0.54,0.63,0.97c0.45-0.66,0.93-1.16,1.44-1.5
			c0.51-0.34,1.08-0.59,1.73-0.75c0.65-0.16,1.31-0.24,1.99-0.24c0.9,0,1.75,0.13,2.54,0.39c0.8,0.26,1.45,0.71,1.96,1.34
			s0.77,1.46,0.77,2.47c0,0.48-0.03,1.19-0.1,2.15c-0.07,0.96-0.16,2.61-0.28,4.95c-0.12,2.34-0.19,3.98-0.2,4.92
			c-0.95-0.02-1.87-0.03-2.76-0.03c-1.08,0-2.22,0.01-3.41,0.03c0.1-1.31,0.21-2.96,0.32-4.94c0.11-1.98,0.16-3.35,0.16-4.11
			c0-0.67-0.08-1.17-0.23-1.5c-0.16-0.33-0.35-0.55-0.6-0.68c-0.24-0.12-0.51-0.18-0.8-0.18c-0.31,0-0.58,0.06-0.81,0.17
			c-0.25,0.13-0.47,0.32-0.65,0.58c-0.25,0.34-0.45,0.78-0.61,1.3c-0.12,0.41-0.22,1.03-0.29,1.86c-0.07,0.85-0.13,1.96-0.17,3.35
			l-0.12,4.15c-1.1-0.02-2.1-0.03-2.99-0.03c-0.91,0-1.98,0.01-3.2,0.03c0.09-0.92,0.2-2.46,0.33-4.63
			c0.12-2.17,0.19-3.62,0.19-4.35c0-0.62-0.06-1.08-0.19-1.39c-0.12-0.31-0.3-0.56-0.52-0.74c-0.22-0.19-0.52-0.28-0.89-0.28
			c-0.4,0-0.75,0.12-1.05,0.36c-0.3,0.24-0.56,0.58-0.77,1.02c-0.21,0.44-0.36,1.06-0.45,1.84c-0.09,0.78-0.17,1.97-0.24,3.57
			c-0.07,1.6-0.12,3.14-0.14,4.62c-1.25-0.02-2.26-0.03-3.04-0.03C272.48,27.17,271.41,27.18,270.14,27.2z"/>
	</g>
</g>
</svg>
