<?xml version="1.0" encoding="utf-8"?>
<!-- Generator: Adobe Illustrator 26.0.0, SVG Export Plug-In . SVG Version: 6.00 Build 0)  -->
<svg version="1.1" id="圖層_1" xmlns="http://www.w3.org/2000/svg" xmlns:xlink="http://www.w3.org/1999/xlink" x="0px" y="0px"
	 viewBox="0 0 110.67 24.26" style="enable-background:new 0 0 110.67 24.26;" xml:space="preserve">
<style type="text/css">
	.st0{fill:#638933;}
	.st1{fill:#86BC43;}
	.st2{fill:#4AA64F;}
	.st3{fill:#888888;}
	.st4{fill:url(#SVGID_1_);}
	.st5{fill:url(#SVGID_00000111180430495909976400000016618665298822831005_);}
	.st6{fill:#FFF100;}
	.st7{fill:url(#SVGID_00000163761301542703088710000000492651458223450000_);}
	.st8{fill:url(#SVGID_00000082367376152630511390000009761914812953128095_);}
	.st9{fill:url(#SVGID_00000094591766553460058630000003542924968944780477_);}
</style>
<g>
	<path class="st2" d="M13.4,16.53h1.46v1.99v0.18c0,0.35-0.03,0.63-0.09,0.85c-0.06,0.22-0.16,0.42-0.3,0.61
		c-0.18,0.24-0.41,0.43-0.69,0.56c-0.28,0.14-0.57,0.21-0.87,0.21c-0.22,0-0.42-0.03-0.59-0.1c-0.18-0.06-0.38-0.16-0.61-0.31
		c-0.22,0.15-0.43,0.25-0.62,0.32c-0.18,0.06-0.39,0.09-0.62,0.09c-0.23,0-0.44-0.03-0.63-0.1c-0.21-0.07-0.39-0.16-0.55-0.27
		c-0.16-0.11-0.31-0.25-0.44-0.42c-0.14-0.19-0.24-0.4-0.3-0.63c-0.06-0.23-0.1-0.5-0.1-0.83v-0.18v-1.99h1.46v2.15v0.18
		c0,0.43,0.17,0.65,0.5,0.65c0.34,0,0.51-0.23,0.51-0.68v-0.15v-2.14h1.46v2.14v0.15c0.01,0.45,0.18,0.68,0.51,0.68
		c0.17,0,0.29-0.06,0.38-0.17c0.08-0.11,0.12-0.28,0.12-0.51v-0.14V16.53z"/>
	<path class="st2" d="M20.63,16.53h1.46v1.99v0.18c0,0.35-0.03,0.63-0.09,0.85c-0.06,0.22-0.16,0.42-0.3,0.61
		c-0.18,0.24-0.41,0.43-0.69,0.56c-0.28,0.14-0.57,0.21-0.87,0.21c-0.22,0-0.42-0.03-0.59-0.1c-0.18-0.06-0.38-0.16-0.61-0.31
		c-0.22,0.15-0.43,0.25-0.62,0.32c-0.18,0.06-0.39,0.09-0.62,0.09c-0.23,0-0.44-0.03-0.63-0.1c-0.21-0.07-0.39-0.16-0.55-0.27
		c-0.16-0.11-0.31-0.25-0.44-0.42c-0.14-0.19-0.24-0.4-0.3-0.63c-0.06-0.23-0.1-0.5-0.1-0.83v-0.18v-1.99h1.46v2.15v0.18
		c0,0.43,0.17,0.65,0.5,0.65c0.34,0,0.51-0.23,0.51-0.68v-0.15v-2.14h1.46v2.14v0.15c0.01,0.45,0.18,0.68,0.51,0.68
		c0.17,0,0.29-0.06,0.38-0.17c0.08-0.11,0.12-0.28,0.12-0.51v-0.14V16.53z"/>
	<path class="st2" d="M27.85,16.53h1.46v1.99v0.18c0,0.35-0.03,0.63-0.09,0.85c-0.06,0.22-0.16,0.42-0.3,0.61
		c-0.18,0.24-0.41,0.43-0.69,0.56c-0.28,0.14-0.57,0.21-0.87,0.21c-0.22,0-0.42-0.03-0.59-0.1c-0.18-0.06-0.38-0.16-0.61-0.31
		c-0.22,0.15-0.43,0.25-0.62,0.32c-0.18,0.06-0.39,0.09-0.62,0.09c-0.23,0-0.44-0.03-0.63-0.1c-0.21-0.07-0.39-0.16-0.55-0.27
		c-0.16-0.11-0.31-0.25-0.44-0.42c-0.14-0.19-0.24-0.4-0.3-0.63c-0.06-0.23-0.1-0.5-0.1-0.83v-0.18v-1.99h1.46v2.15v0.18
		c0,0.43,0.17,0.65,0.5,0.65c0.34,0,0.51-0.23,0.51-0.68v-0.15v-2.14h1.46v2.14v0.15c0.01,0.45,0.18,0.68,0.51,0.68
		c0.17,0,0.29-0.06,0.38-0.17c0.08-0.11,0.12-0.28,0.12-0.51v-0.14V16.53z"/>
	<path class="st2" d="M30.14,20.05c0-0.17,0.04-0.33,0.12-0.46c0.08-0.14,0.19-0.25,0.33-0.33c0.14-0.08,0.29-0.12,0.46-0.12
		c0.17,0,0.33,0.04,0.46,0.12c0.14,0.08,0.25,0.19,0.33,0.33c0.08,0.14,0.12,0.29,0.12,0.46c0,0.25-0.09,0.47-0.27,0.64
		c-0.18,0.18-0.4,0.27-0.65,0.27c-0.25,0-0.46-0.09-0.64-0.27C30.23,20.51,30.14,20.3,30.14,20.05z"/>
	<path class="st2" d="M42.59,20.85h-4.77v-5.67c-1.34-0.55-2.41-1.34-3.19-2.38c-0.49-0.67-0.84-1.38-1.05-2.13
		c-0.2-0.73-0.3-1.68-0.3-2.85V7.26V3h4.77v4.86v0.48c0.02,0.81,0.21,1.43,0.59,1.86c0.38,0.44,0.91,0.65,1.57,0.65
		c0.67,0,1.19-0.23,1.57-0.68c0.38-0.46,0.58-1.07,0.58-1.83V7.86V3h4.77v4.26v0.55c0,1.29-0.12,2.32-0.35,3.1
		c-0.24,0.78-0.67,1.53-1.29,2.25c-0.42,0.47-0.83,0.85-1.24,1.14c-0.46,0.32-1.01,0.61-1.65,0.88V20.85z"/>
	<path class="st2" d="M54.21,20.85h-4.77V3h4.77V20.85z"/>
	<path class="st2" d="M61.83,20.85h-4.77V3h4.47h0.58c1.76,0,3.17,0.16,4.22,0.47c1.06,0.33,2.06,0.9,2.99,1.7
		c0.64,0.56,1.19,1.19,1.66,1.91c0.44,0.66,0.78,1.42,1.05,2.26c0.24,0.81,0.35,1.66,0.35,2.54c0,0.82-0.1,1.62-0.31,2.39
		c-0.22,0.79-0.52,1.52-0.92,2.18c-0.4,0.68-0.88,1.29-1.45,1.84c-0.57,0.56-1.2,1.03-1.91,1.41c-0.74,0.41-1.47,0.7-2.2,0.88
		c-0.72,0.17-1.59,0.26-2.59,0.26h-0.38v-4.76h0.5c0.89,0,1.68-0.17,2.37-0.51c0.68-0.33,1.21-0.81,1.6-1.44
		c0.37-0.62,0.55-1.34,0.55-2.16c0-0.88-0.2-1.65-0.61-2.31c-0.4-0.64-0.99-1.15-1.75-1.5c-0.75-0.35-1.63-0.52-2.64-0.52h-0.8
		V20.85z"/>
	<path class="st2" d="M73.51,20.05c0-0.17,0.04-0.33,0.12-0.46c0.08-0.14,0.19-0.25,0.33-0.33c0.14-0.08,0.29-0.12,0.46-0.12
		c0.17,0,0.33,0.04,0.46,0.12c0.14,0.08,0.25,0.19,0.33,0.33c0.08,0.14,0.12,0.29,0.12,0.46c0,0.25-0.09,0.47-0.27,0.64
		c-0.18,0.18-0.4,0.27-0.65,0.27c-0.25,0-0.46-0.09-0.64-0.27C73.6,20.51,73.51,20.3,73.51,20.05z"/>
	<path class="st2" d="M78.75,19.25l0.71,1.28c-0.38,0.27-0.81,0.4-1.29,0.4c-0.4,0-0.77-0.1-1.1-0.3c-0.34-0.2-0.6-0.47-0.8-0.82
		c-0.2-0.35-0.3-0.72-0.3-1.12c0-0.41,0.1-0.79,0.3-1.13c0.19-0.34,0.46-0.61,0.81-0.82c0.35-0.2,0.72-0.3,1.13-0.3
		c0.45,0,0.87,0.13,1.26,0.4l-0.72,1.28c-0.09-0.08-0.18-0.14-0.27-0.17c-0.08-0.03-0.18-0.05-0.29-0.05c-0.14,0-0.28,0.03-0.4,0.1
		c-0.13,0.07-0.22,0.16-0.29,0.28c-0.07,0.12-0.1,0.25-0.1,0.4c0,0.15,0.04,0.28,0.11,0.4c0.07,0.12,0.17,0.22,0.29,0.29
		c0.12,0.07,0.25,0.1,0.4,0.1c0.11,0,0.2-0.02,0.29-0.06C78.58,19.39,78.67,19.33,78.75,19.25z"/>
	<path class="st2" d="M79.73,18.7c0-0.31,0.06-0.6,0.17-0.87c0.12-0.28,0.28-0.52,0.48-0.72c0.21-0.21,0.45-0.37,0.72-0.48
		c0.27-0.11,0.56-0.17,0.86-0.17c0.31,0,0.61,0.06,0.88,0.17c0.28,0.12,0.51,0.27,0.71,0.47c0.2,0.2,0.36,0.44,0.48,0.71
		c0.12,0.27,0.17,0.56,0.17,0.88c0,0.31-0.06,0.6-0.17,0.87c-0.12,0.27-0.28,0.51-0.48,0.71c-0.2,0.2-0.44,0.36-0.72,0.48
		c-0.28,0.12-0.57,0.18-0.87,0.18c-0.41,0-0.78-0.1-1.12-0.3c-0.34-0.2-0.61-0.47-0.82-0.82C79.83,19.48,79.73,19.11,79.73,18.7z
		 M81.18,18.7c0,0.15,0.04,0.28,0.11,0.39c0.07,0.12,0.17,0.22,0.29,0.29c0.12,0.07,0.25,0.1,0.39,0.1c0.14,0,0.27-0.03,0.39-0.1
		c0.12-0.07,0.22-0.17,0.29-0.29c0.07-0.12,0.1-0.25,0.1-0.39c0-0.14-0.03-0.28-0.1-0.4c-0.07-0.12-0.17-0.21-0.29-0.29
		c-0.12-0.07-0.25-0.1-0.4-0.1c-0.14,0-0.27,0.03-0.39,0.1c-0.12,0.07-0.22,0.17-0.29,0.29C81.22,18.42,81.18,18.55,81.18,18.7z"/>
	<path class="st2" d="M86.29,20.85h-1.46v-1.97v-0.18c0-0.34,0.03-0.62,0.09-0.85c0.06-0.22,0.16-0.42,0.3-0.61
		c0.18-0.24,0.41-0.43,0.69-0.57c0.29-0.14,0.58-0.2,0.87-0.2c0.22,0,0.42,0.03,0.61,0.1c0.18,0.06,0.38,0.17,0.59,0.31
		c0.24-0.15,0.44-0.26,0.62-0.32c0.18-0.06,0.38-0.09,0.61-0.09c0.32,0,0.62,0.07,0.91,0.21c0.28,0.14,0.52,0.33,0.7,0.57
		c0.1,0.14,0.17,0.27,0.23,0.41c0.06,0.14,0.1,0.29,0.13,0.47c0.03,0.17,0.04,0.37,0.04,0.58v0.18v1.97h-1.46v-2.13v-0.18
		c0-0.43-0.17-0.64-0.5-0.64c-0.34,0-0.51,0.23-0.51,0.68v0.15v2.13H87.3v-2.13v-0.15c0-0.22-0.04-0.39-0.13-0.51
		c-0.08-0.11-0.21-0.17-0.39-0.17c-0.17,0-0.29,0.05-0.37,0.16c-0.08,0.11-0.12,0.28-0.12,0.52v0.15V20.85z"/>
	<path class="st2" d="M92.06,20.05c0-0.17,0.04-0.33,0.12-0.46c0.08-0.14,0.19-0.25,0.33-0.33c0.14-0.08,0.29-0.12,0.46-0.12
		c0.17,0,0.33,0.04,0.46,0.12c0.14,0.08,0.25,0.19,0.33,0.33c0.08,0.14,0.12,0.29,0.12,0.46c0,0.25-0.09,0.47-0.27,0.64
		c-0.18,0.18-0.4,0.27-0.65,0.27c-0.25,0-0.46-0.09-0.64-0.27C92.15,20.51,92.06,20.3,92.06,20.05z"/>
	<path class="st2" d="M96.18,16.53h0.8v1.46h-0.8v0.69v0.2c0,0.22,0.05,0.38,0.14,0.48c0.09,0.1,0.24,0.15,0.44,0.15
		c0.02,0,0.09-0.01,0.22-0.02v1.44c-0.12,0.01-0.22,0.02-0.29,0.02c-0.21,0-0.42-0.03-0.61-0.09c-0.19-0.06-0.37-0.15-0.54-0.26
		c-0.16-0.11-0.31-0.25-0.43-0.41c-0.1-0.14-0.18-0.28-0.24-0.42c-0.06-0.13-0.09-0.29-0.12-0.48c-0.02-0.19-0.03-0.43-0.03-0.71
		v-0.13v-3.17h1.46V16.53z"/>
	<path class="st2" d="M102.58,16.53h1.46v1.99v0.18c0,0.35-0.03,0.63-0.09,0.85c-0.06,0.22-0.16,0.42-0.3,0.61
		c-0.18,0.24-0.41,0.43-0.69,0.56c-0.28,0.14-0.57,0.21-0.87,0.21c-0.22,0-0.42-0.03-0.59-0.1c-0.18-0.06-0.38-0.16-0.61-0.31
		c-0.22,0.15-0.43,0.25-0.62,0.32c-0.18,0.06-0.39,0.09-0.62,0.09c-0.23,0-0.44-0.03-0.63-0.1c-0.21-0.07-0.39-0.16-0.55-0.27
		c-0.16-0.11-0.31-0.25-0.44-0.42c-0.14-0.19-0.24-0.4-0.3-0.63c-0.06-0.23-0.1-0.5-0.1-0.83v-0.18v-1.99h1.46v2.15v0.18
		c0,0.43,0.17,0.65,0.5,0.65c0.34,0,0.51-0.23,0.51-0.68v-0.15v-2.14h1.46v2.14v0.15c0.01,0.45,0.18,0.68,0.51,0.68
		c0.17,0,0.29-0.06,0.38-0.17c0.08-0.11,0.12-0.28,0.12-0.51v-0.14V16.53z"/>
</g>
</svg>
