<?xml version="1.0" encoding="us-ascii" standalone="no"?><svg xmlns="http://www.w3.org/2000/svg" xmlns:xlink="http://www.w3.org/1999/xlink" contentStyleType="text/css" height="658px" preserveAspectRatio="none" style="width:654px;height:658px;background:#FFFFFF;" version="1.1" viewBox="0 0 654 658" width="654px" zoomAndPan="magnify"><defs/><g><path d="M428.5,10 L428.5,71.3984 L408.5,75.3984 L428.5,79.3984 L428.5,140.7969 A0,0 0 0 0 428.5,140.7969 L619.5,140.7969 A0,0 0 0 0 619.5,140.7969 L619.5,20 L609.5,10 L428.5,10 A0,0 0 0 0 428.5,10 " fill="#FEFFDD" style="stroke:#181818;stroke-width:0.5;"/><path d="M609.5,10 L609.5,20 L619.5,20 L609.5,10 " fill="#FEFFDD" style="stroke:#181818;stroke-width:0.5;"/><line style="stroke:#181818;stroke-width:1.0;" x1="428.5" x2="619.5" y1="20" y2="20"/><line style="stroke:#181818;stroke-width:1.0;" x1="428.5" x2="619.5" y1="22" y2="22"/><text fill="#000000" font-family="sans-serif" font-size="13" lengthAdjust="spacing" textLength="170" x="434.5" y="37.0669">&#36889;&#26159;ProcessTasks.java&#20013;&#30340;</text><text fill="#000000" font-family="sans-serif" font-size="13" lengthAdjust="spacing" textLength="91" x="434.5" y="52.1997">dispatchTasks</text><text fill="#000000" font-family="sans-serif" font-size="13" lengthAdjust="spacing" textLength="144" x="434.5" y="67.3325">&#35442;&#26041;&#27861;&#20351;&#29992;@Scheduled</text><text fill="#000000" font-family="sans-serif" font-size="13" lengthAdjust="spacing" textLength="112" x="434.5" y="82.4653">&#25490;&#31243;&#21040;Spring Boot</text><text fill="#000000" font-family="sans-serif" font-size="13" lengthAdjust="spacing" textLength="60" x="434.5" y="97.5981">&#27599;5&#31186;&#22519;&#34892;</text><line style="stroke:#181818;stroke-width:1.0;" x1="428.5" x2="619.5" y1="105.6641" y2="105.6641"/><line style="stroke:#181818;stroke-width:1.0;" x1="428.5" x2="619.5" y1="107.6641" y2="107.6641"/><text fill="#000000" font-family="sans-serif" font-size="13" lengthAdjust="spacing" textLength="124" x="434.5" y="122.731">last edit: 20230822</text><line style="stroke:#181818;stroke-width:1.0;" x1="428.5" x2="619.5" y1="130.7969" y2="130.7969"/><line style="stroke:#181818;stroke-width:1.0;" x1="428.5" x2="619.5" y1="132.7969" y2="132.7969"/><ellipse cx="398.5" cy="75.3984" fill="#222222" rx="10" ry="10" style="stroke:#222222;stroke-width:1.0;"/><polygon fill="#F1F1F1" points="183.5,216.5073,351.5,216.5073,363.5,235.7144,351.5,254.9214,183.5,254.9214,171.5,235.7144,183.5,216.5073" style="stroke:#181818;stroke-width:0.5;"/><text fill="#000000" font-family="sans-serif" font-size="11" lengthAdjust="spacing" textLength="23" x="271.5" y="265.1318">true</text><text fill="#000000" font-family="sans-serif" font-size="11" lengthAdjust="spacing" textLength="77" x="183.5" y="226.7178">&#26159;&#21542;&#21487;&#20197;&#34987;&#27966;&#36963;</text><text fill="#000000" font-family="sans-serif" font-size="11" lengthAdjust="spacing" textLength="168" x="183.5" y="239.5225">1. &#30446;&#21069;&#27794;&#26377;&#22519;&#34892;&#20219;&#21209;iTask=false</text><text fill="#000000" font-family="sans-serif" font-size="11" lengthAdjust="spacing" textLength="91" x="183.5" y="252.3271">2. &#20219;&#21209;&#20295;&#21015;&#19981;&#28858;&#31354;</text><rect fill="#F1F1F1" height="33.9688" rx="12.5" ry="12.5" style="stroke:#181818;stroke-width:0.5;" width="68" x="233.5" y="287.7261"/><text fill="#000000" font-family="sans-serif" font-size="12" lengthAdjust="spacing" textLength="48" x="243.5" y="308.8647">&#21462;&#24471;&#20219;&#21209;</text><polygon fill="#F1F1F1" points="395.5,210.105,563.5,210.105,575.5,235.7144,563.5,261.3237,395.5,261.3237,383.5,235.7144,395.5,210.105" style="stroke:#181818;stroke-width:0.5;"/><text fill="#000000" font-family="sans-serif" font-size="11" lengthAdjust="spacing" textLength="23" x="483.5" y="271.5342">true</text><text fill="#000000" font-family="sans-serif" font-size="11" lengthAdjust="spacing" textLength="88" x="395.5" y="220.3154">&#26159;&#21542;&#35201;&#22238;&#21040;&#24453;&#21629;&#40670;</text><text fill="#000000" font-family="sans-serif" font-size="11" lengthAdjust="spacing" textLength="168" x="395.5" y="233.1201">1. &#30446;&#21069;&#27794;&#26377;&#22519;&#34892;&#20219;&#21209;iTask=false</text><text fill="#000000" font-family="sans-serif" font-size="11" lengthAdjust="spacing" textLength="80" x="395.5" y="245.9248">2. &#20219;&#21209;&#20295;&#21015;&#28858;&#31354;</text><text fill="#000000" font-family="sans-serif" font-size="11" lengthAdjust="spacing" textLength="80" x="395.5" y="258.7295">3. &#19981;&#22312;&#24453;&#21629;&#40670;&#19978;</text><rect fill="#F1F1F1" height="47.9375" rx="12.5" ry="12.5" style="stroke:#181818;stroke-width:0.5;" width="153" x="403" y="294.1284"/><text fill="#000000" font-family="sans-serif" font-size="12" lengthAdjust="spacing" textLength="114" x="421" y="315.2671">iStandbyTask=true</text><text fill="#000000" font-family="sans-serif" font-size="12" lengthAdjust="spacing" textLength="133" x="413" y="329.2358">&#21462;&#24471;AGV&#22238;&#24453;&#21629;&#40670;&#30340;&#20219;&#21209;</text><ellipse cx="610.5" cy="301.0854" fill="none" rx="11" ry="11" style="stroke:#222222;stroke-width:1.0;"/><ellipse cx="610.5" cy="301.0854" fill="#222222" rx="6" ry="6" style="stroke:#111111;stroke-width:1.0;"/><path d="M10,372.0659 L10,487.9956 A0,0 0 0 0 10,487.9956 L296,487.9956 A0,0 0 0 0 296,487.9956 L296,434.0308 L316,430.0308 L296,426.0308 L296,382.0659 L286,372.0659 L10,372.0659 A0,0 0 0 0 10,372.0659 " fill="#FEFFDD" style="stroke:#181818;stroke-width:0.5;"/><path d="M286,372.0659 L286,382.0659 L296,382.0659 L286,372.0659 " fill="#FEFFDD" style="stroke:#181818;stroke-width:0.5;"/><text fill="#000000" font-family="sans-serif" font-size="13" lengthAdjust="spacing" textLength="78" x="16" y="389.1328">&#26159;&#19968;&#20491;&#26041;&#27861;&#65292;</text><text fill="#000000" font-family="sans-serif" font-size="13" lengthAdjust="spacing" textLength="113" x="16" y="404.2656">&#33509;API&#22238;&#35206;&#19981;&#26159;"OK"</text><text fill="#000000" font-family="sans-serif" font-size="13" lengthAdjust="spacing" textLength="117" x="16" y="419.3984">&#21063;&#26371;&#33258;&#21205;&#37325;&#35079;&#22519;&#34892;&#12290;</text><text fill="#000000" font-family="sans-serif" font-size="13" lengthAdjust="spacing" textLength="78" x="16" y="434.5313">&#37325;&#35079;&#22519;&#34892;&#26178;&#65292;</text><text fill="#000000" font-family="sans-serif" font-size="13" lengthAdjust="spacing" textLength="113" x="16" y="449.6641">isRetrying=true&#65292;</text><text fill="#000000" font-family="sans-serif" font-size="13" lengthAdjust="spacing" textLength="65" x="16" y="464.7969">&#26368;&#22810;&#19977;&#27425;&#12290;</text><text fill="#000000" font-family="sans-serif" font-size="13" lengthAdjust="spacing" textLength="265" x="16" y="479.9297">(&#27492;&#21205;&#20316;&#26371;&#21345;&#20303;dispatchTasks&#22519;&#34892;&#32210;&#26368;&#22810;9&#31186;)</text><rect fill="#F1F1F1" height="47.9375" rx="12.5" ry="12.5" style="stroke:#181818;stroke-width:0.5;" width="165" x="316" y="406.062"/><text fill="#000000" font-family="sans-serif" font-size="12" lengthAdjust="spacing" textLength="48" x="362" y="427.2007">&#27966;&#36963;&#20219;&#21209;</text><text fill="#000000" font-family="sans-serif" font-size="12" lengthAdjust="spacing" textLength="129" x="342" y="441.1694">(dispatchTaskToAGV)</text><polygon fill="#F1F1F1" points="354.5,507.9956,442.5,507.9956,454.5,519.9956,442.5,531.9956,354.5,531.9956,342.5,519.9956,354.5,507.9956" style="stroke:#181818;stroke-width:0.5;"/><text fill="#000000" font-family="sans-serif" font-size="11" lengthAdjust="spacing" textLength="88" x="354.5" y="523.8037">&#26159;&#21542;&#25104;&#21151;&#30332;&#36865;&#20219;&#21209;</text><text fill="#000000" font-family="sans-serif" font-size="11" lengthAdjust="spacing" textLength="23" x="319.5" y="517.4014">true</text><text fill="#000000" font-family="sans-serif" font-size="11" lengthAdjust="spacing" textLength="28" x="454.5" y="517.4014">false</text><rect fill="#F1F1F1" height="33.9688" rx="12.5" ry="12.5" style="stroke:#181818;stroke-width:0.5;" width="164" x="201" y="541.9956"/><text fill="#000000" font-family="sans-serif" font-size="12" lengthAdjust="spacing" textLength="144" x="211" y="563.1343">&#26356;&#26032;&#20219;&#21209;&#29376;&#24907;&#20006;&#35336;&#20837;&#36039;&#26009;&#24235;</text><rect fill="#F1F1F1" height="33.9688" rx="12.5" ry="12.5" style="stroke:#181818;stroke-width:0.5;" width="258" x="385" y="541.9956"/><text fill="#000000" font-family="sans-serif" font-size="12" lengthAdjust="spacing" textLength="238" x="395" y="563.1343">&#20219;&#21209;&#22833;&#25943;(&#19977;&#27425;&#65292;&#19977;&#27425;&#30340;&#20316;&#26989;&#23526;&#20316;&#22312;&#27966;&#36963;&#20219;&#21209;)</text><polygon fill="#F1F1F1" points="398.5,581.9644,410.5,593.9644,398.5,605.9644,386.5,593.9644,398.5,581.9644" style="stroke:#181818;stroke-width:0.5;"/><ellipse cx="398.5" cy="636.9644" fill="none" rx="11" ry="11" style="stroke:#222222;stroke-width:1.0;"/><ellipse cx="398.5" cy="636.9644" fill="#222222" rx="6" ry="6" style="stroke:#111111;stroke-width:1.0;"/><polygon fill="#F1F1F1" points="333.5,160.7969,463.5,160.7969,475.5,172.7969,463.5,184.7969,333.5,184.7969,321.5,172.7969,333.5,160.7969" style="stroke:#181818;stroke-width:0.5;"/><text fill="#000000" font-family="sans-serif" font-size="11" lengthAdjust="spacing" textLength="28" x="402.5" y="195.0073">false</text><text fill="#000000" font-family="sans-serif" font-size="11" lengthAdjust="spacing" textLength="130" x="333.5" y="176.605">isRetrying(&#27491;&#22312;&#30332;&#36865;&#20219;&#21209;)</text><text fill="#000000" font-family="sans-serif" font-size="11" lengthAdjust="spacing" textLength="23" x="475.5" y="170.2026">true</text><ellipse cx="520.5" cy="172.7969" fill="none" rx="11" ry="11" style="stroke:#222222;stroke-width:1.0;"/><ellipse cx="520.5" cy="172.7969" fill="#222222" rx="6" ry="6" style="stroke:#111111;stroke-width:1.0;"/><line style="stroke:#181818;stroke-width:1.0;" x1="267.5" x2="267.5" y1="254.9214" y2="287.7261"/><polygon fill="#181818" points="263.5,277.7261,267.5,287.7261,271.5,277.7261,267.5,281.7261" style="stroke:#181818;stroke-width:1.0;"/><line style="stroke:#181818;stroke-width:1.0;" x1="267.5" x2="267.5" y1="321.6948" y2="362.0659"/><polygon fill="#181818" points="263.5,352.0659,267.5,362.0659,271.5,352.0659,267.5,356.0659" style="stroke:#181818;stroke-width:1.0;"/><line style="stroke:#181818;stroke-width:1.0;" x1="479.5" x2="479.5" y1="261.3237" y2="294.1284"/><polygon fill="#181818" points="475.5,284.1284,479.5,294.1284,483.5,284.1284,479.5,288.1284" style="stroke:#181818;stroke-width:1.0;"/><line style="stroke:#181818;stroke-width:1.0;" x1="479.5" x2="479.5" y1="342.0659" y2="362.0659"/><polygon fill="#181818" points="475.5,352.0659,479.5,362.0659,483.5,352.0659,479.5,356.0659" style="stroke:#181818;stroke-width:1.0;"/><line style="stroke:#181818;stroke-width:1.0;" x1="363.5" x2="383.5" y1="235.7144" y2="235.7144"/><polygon fill="#181818" points="373.5,231.7144,383.5,235.7144,373.5,239.7144,377.5,235.7144" style="stroke:#181818;stroke-width:1.0;"/><line style="stroke:#181818;stroke-width:1.0;" x1="398.5" x2="398.5" y1="184.7969" y2="201.5073"/><line style="stroke:#181818;stroke-width:1.0;" x1="398.5" x2="267.5" y1="201.5073" y2="201.5073"/><line style="stroke:#181818;stroke-width:1.0;" x1="267.5" x2="267.5" y1="201.5073" y2="216.5073"/><polygon fill="#181818" points="263.5,206.5073,267.5,216.5073,271.5,206.5073,267.5,210.5073" style="stroke:#181818;stroke-width:1.0;"/><line style="stroke:#181818;stroke-width:1.0;" x1="575.5" x2="610.5" y1="235.7144" y2="235.7144"/><line style="stroke:#181818;stroke-width:1.0;" x1="610.5" x2="610.5" y1="235.7144" y2="290.0854"/><polygon fill="#181818" points="606.5,280.0854,610.5,290.0854,614.5,280.0854,610.5,284.0854" style="stroke:#181818;stroke-width:1.0;"/><line style="stroke:#181818;stroke-width:1.0;" x1="267.5" x2="479.5" y1="362.0659" y2="362.0659"/><line style="stroke:#181818;stroke-width:1.0;" x1="398.5" x2="398.5" y1="362.0659" y2="406.062"/><polygon fill="#181818" points="394.5,396.062,398.5,406.062,402.5,396.062,398.5,400.062" style="stroke:#181818;stroke-width:1.0;"/><line style="stroke:#181818;stroke-width:1.0;" x1="342.5" x2="283" y1="519.9956" y2="519.9956"/><line style="stroke:#181818;stroke-width:1.0;" x1="283" x2="283" y1="519.9956" y2="541.9956"/><polygon fill="#181818" points="279,531.9956,283,541.9956,287,531.9956,283,535.9956" style="stroke:#181818;stroke-width:1.0;"/><line style="stroke:#181818;stroke-width:1.0;" x1="454.5" x2="514" y1="519.9956" y2="519.9956"/><line style="stroke:#181818;stroke-width:1.0;" x1="514" x2="514" y1="519.9956" y2="541.9956"/><polygon fill="#181818" points="510,531.9956,514,541.9956,518,531.9956,514,535.9956" style="stroke:#181818;stroke-width:1.0;"/><line style="stroke:#181818;stroke-width:1.0;" x1="283" x2="283" y1="575.9644" y2="593.9644"/><line style="stroke:#181818;stroke-width:1.0;" x1="283" x2="386.5" y1="593.9644" y2="593.9644"/><polygon fill="#181818" points="376.5,589.9644,386.5,593.9644,376.5,597.9644,380.5,593.9644" style="stroke:#181818;stroke-width:1.0;"/><line style="stroke:#181818;stroke-width:1.0;" x1="514" x2="514" y1="575.9644" y2="593.9644"/><line style="stroke:#181818;stroke-width:1.0;" x1="514" x2="410.5" y1="593.9644" y2="593.9644"/><polygon fill="#181818" points="420.5,589.9644,410.5,593.9644,420.5,597.9644,416.5,593.9644" style="stroke:#181818;stroke-width:1.0;"/><line style="stroke:#181818;stroke-width:1.0;" x1="398.5" x2="398.5" y1="453.9995" y2="507.9956"/><polygon fill="#181818" points="394.5,497.9956,398.5,507.9956,402.5,497.9956,398.5,501.9956" style="stroke:#181818;stroke-width:1.0;"/><line style="stroke:#181818;stroke-width:1.0;" x1="398.5" x2="398.5" y1="605.9644" y2="625.9644"/><polygon fill="#181818" points="394.5,615.9644,398.5,625.9644,402.5,615.9644,398.5,619.9644" style="stroke:#181818;stroke-width:1.0;"/><line style="stroke:#181818;stroke-width:1.0;" x1="475.5" x2="509.5" y1="172.7969" y2="172.7969"/><polygon fill="#181818" points="499.5,168.7969,509.5,172.7969,499.5,176.7969,503.5,172.7969" style="stroke:#181818;stroke-width:1.0;"/><line style="stroke:#181818;stroke-width:1.0;" x1="398.5" x2="398.5" y1="85.3984" y2="160.7969"/><polygon fill="#181818" points="394.5,150.7969,398.5,160.7969,402.5,150.7969,398.5,154.7969" style="stroke:#181818;stroke-width:1.0;"/><!--SRC=[dLDDRn9H5Ds_N_7I5Mn8fJ7HDasi6sDSs4ZZVcI6Cag0CAyctGqe0frIAX6GGjfW0QaLgMsJZb3mnpZlpR3oBtXd7j-wycrcvfuxvvvxxtaA4M84XID4mZ5vEqWGnkjmu35Ko-nZPpCMyKkAiYKehnJFI-6rOEXjy-WjuAAiH0NY3peGV5jdbwpuWrqLZFvFyqFhWSyVbCITa2G2nWxoPakZwGjVD2Q7j_73ICIkn3gvk-RdF3sviMhxqyeXGI5O4cMoYhtBtfNbUrxl69J28hR58YG7i4jMdaaajWkCBjO-fTMMMRuTgd6ZrwDQsUt692Y5iOl4TYGt42Wa4aLII96mAo30muxPBD0bFMpINCVeDQnFv-nwC8oVeZiUR5Q-qKoMNUPPDSCrScRPRddTuK1U3-P1ev-YwPAXPyr4rpphBXR7U9NcYdHGujbh47AaJ0LOpJYj7CECw219t_U7lUF_rC05e1M8wbaOoeJFqFV-8Gk6u2D2M7onwr3QY0DmkHkFdjkgnXIm-la6d5Hdil0T5kK0SYX7Xy-I_u5uo3Nhcwq8yBlNHf3Zmf0K80ZF79YEeQjKrRYxVj_kpy6MrjZOV0mQhUOxw1Uobvu-MPfBePaKgxwnKb-eLXYcibOznIVvIqtCvSrYh9nOh3HrcpEaHPXLLLe_ClGC-rfRP0Pxrg6uqQ-249gj6VtStFNXDSsRF2Uv3vV2FIAOE7uaOk8NbZwaUoTpZlzhkSw2MUMQ5IzuYgcfBAaPUjDgfMcoOLsbMB5Ck-VZ5InSZn43_vVMlxD2oSKxXExvY-q8QAlHffqcl83VPfS-sItt1aAsLVu0]--></g></svg>