<?xml version="1.0" encoding="us-ascii" standalone="no"?><svg xmlns="http://www.w3.org/2000/svg" xmlns:xlink="http://www.w3.org/1999/xlink" contentStyleType="text/css" height="1472px" preserveAspectRatio="none" style="width:1284px;height:1472px;background:#FFFFFF;" version="1.1" viewBox="0 0 1284 1472" width="1284px" zoomAndPan="magnify"><defs/><g><path d="M638.9375,10 L638.9375,71.3984 L618.9375,75.3984 L638.9375,79.3984 L638.9375,140.7969 A0,0 0 0 0 638.9375,140.7969 L827.9375,140.7969 A0,0 0 0 0 827.9375,140.7969 L827.9375,20 L817.9375,10 L638.9375,10 A0,0 0 0 0 638.9375,10 " fill="#FEFFDD" style="stroke:#181818;stroke-width:0.5;"/><path d="M817.9375,10 L817.9375,20 L827.9375,20 L817.9375,10 " fill="#FEFFDD" style="stroke:#181818;stroke-width:0.5;"/><line style="stroke:#181818;stroke-width:1.0;" x1="638.9375" x2="827.9375" y1="20" y2="20"/><line style="stroke:#181818;stroke-width:1.0;" x1="638.9375" x2="827.9375" y1="22" y2="22"/><text fill="#000000" font-family="sans-serif" font-size="13" lengthAdjust="spacing" textLength="168" x="644.9375" y="37.0669">&#36889;&#26159;InstantStatus.java&#20013;&#30340;</text><text fill="#000000" font-family="sans-serif" font-size="13" lengthAdjust="spacing" textLength="126" x="644.9375" y="52.1997">updateAgvStatuses</text><text fill="#000000" font-family="sans-serif" font-size="13" lengthAdjust="spacing" textLength="144" x="644.9375" y="67.3325">&#35442;&#26041;&#27861;&#20351;&#29992;@Scheduled</text><text fill="#000000" font-family="sans-serif" font-size="13" lengthAdjust="spacing" textLength="112" x="644.9375" y="82.4653">&#25490;&#31243;&#21040;Spring Boot</text><text fill="#000000" font-family="sans-serif" font-size="13" lengthAdjust="spacing" textLength="52" x="644.9375" y="97.5981">&#27599;&#31186;&#22519;&#34892;</text><line style="stroke:#181818;stroke-width:1.0;" x1="638.9375" x2="827.9375" y1="105.6641" y2="105.6641"/><line style="stroke:#181818;stroke-width:1.0;" x1="638.9375" x2="827.9375" y1="107.6641" y2="107.6641"/><text fill="#000000" font-family="sans-serif" font-size="13" lengthAdjust="spacing" textLength="124" x="644.9375" y="122.731">last edit: 20230822</text><line style="stroke:#181818;stroke-width:1.0;" x1="638.9375" x2="827.9375" y1="130.7969" y2="130.7969"/><line style="stroke:#181818;stroke-width:1.0;" x1="638.9375" x2="827.9375" y1="132.7969" y2="132.7969"/><ellipse cx="608.9375" cy="75.3984" fill="#222222" rx="10" ry="10" style="stroke:#222222;stroke-width:1.0;"/><rect fill="#F1F1F1" height="33.9688" rx="12.5" ry="12.5" style="stroke:#181818;stroke-width:0.5;" width="93" x="562.4375" y="160.7969"/><text fill="#000000" font-family="sans-serif" font-size="12" lengthAdjust="spacing" textLength="73" x="572.4375" y="181.9355">&#25235;&#21462;AGV&#29376;&#24907;</text><rect fill="#F1F1F1" height="33.9688" rx="12.5" ry="12.5" style="stroke:#181818;stroke-width:0.5;" width="185" x="516.4375" y="263.168"/><text fill="#000000" font-family="sans-serif" font-size="12" lengthAdjust="spacing" textLength="165" x="526.4375" y="284.3066">AGV&#36852;&#22280;(&#36845;&#20195;)(&#30446;&#21069;&#21482;&#26377;&#19968;&#21488;)</text><rect fill="#F1F1F1" height="33.9688" rx="12.5" ry="12.5" style="stroke:#181818;stroke-width:0.5;" width="289" x="464.4375" y="361.1367"/><text fill="#000000" font-family="sans-serif" font-size="12" lengthAdjust="spacing" textLength="269" x="474.4375" y="382.2754">&#21462;&#24471;&#31532;i&#21488;AGVStatus&#29289;&#20214;&#23526;&#20363;(&#29992;&#26044;web&#36039;&#26009;&#39023;&#31034;)</text><rect fill="#F1F1F1" height="33.9688" rx="12.5" ry="12.5" style="stroke:#181818;stroke-width:0.5;" width="173" x="522.4375" y="415.1055"/><text fill="#000000" font-family="sans-serif" font-size="12" lengthAdjust="spacing" textLength="153" x="532.4375" y="436.2441">&#26356;&#26032;AGV: &#20301;&#32622;&#12289;&#38651;&#37327;&#12289;&#35338;&#34399;</text><rect fill="#F1F1F1" height="33.9688" rx="12.5" ry="12.5" style="stroke:#181818;stroke-width:0.5;" width="116" x="550.9375" y="469.0742"/><text fill="#000000" font-family="sans-serif" font-size="12" lengthAdjust="spacing" textLength="96" x="560.9375" y="490.2129">&#26597;&#30475;&#30070;&#21069;&#20219;&#21209;&#29376;&#24907;</text><polygon fill="#F1F1F1" points="372.4375,523.043,546.4375,523.043,558.4375,535.043,546.4375,547.043,372.4375,547.043,360.4375,535.043,372.4375,523.043" style="stroke:#181818;stroke-width:0.5;"/><text fill="#000000" font-family="sans-serif" font-size="11" lengthAdjust="spacing" textLength="23" x="463.4375" y="557.2534">true</text><text fill="#000000" font-family="sans-serif" font-size="11" lengthAdjust="spacing" textLength="174" x="372.4375" y="538.8511">&#20219;&#21209;&#29376;&#24907;&#28858;PRE_START_STATION</text><rect fill="#F1F1F1" height="33.9688" rx="12.5" ry="12.5" style="stroke:#181818;stroke-width:0.5;" width="127" x="395.9375" y="627.1558"/><text fill="#000000" font-family="sans-serif" font-size="12" lengthAdjust="spacing" textLength="107" x="405.9375" y="648.2944">&#21462;&#28040;&#36215;&#22987;&#31449;Booked</text><rect fill="#F1F1F1" height="33.9688" rx="12.5" ry="12.5" style="stroke:#181818;stroke-width:0.5;" width="243" x="337.9375" y="696.1245"/><text fill="#000000" font-family="sans-serif" font-size="12" lengthAdjust="spacing" textLength="223" x="347.9375" y="717.2632">&#35373;&#32622;&#20219;&#21209;&#29376;&#24907;&#28858;PRE_TERMINAL_STATION</text><polygon fill="#F1F1F1" points="405.4375,578.7534,513.4375,578.7534,525.4375,590.7534,513.4375,602.7534,405.4375,602.7534,393.4375,590.7534,405.4375,578.7534" style="stroke:#181818;stroke-width:0.5;"/><text fill="#000000" font-family="sans-serif" font-size="11" lengthAdjust="spacing" textLength="23" x="463.4375" y="612.9639">true</text><text fill="#000000" font-family="sans-serif" font-size="11" lengthAdjust="spacing" textLength="108" x="405.4375" y="594.5615">&#30446;&#21069;&#20301;&#32622;=&#20219;&#21209;&#36215;&#22987;&#31449;</text><text fill="#000000" font-family="sans-serif" font-size="11" lengthAdjust="spacing" textLength="28" x="525.4375" y="588.1592">false</text><polygon fill="#F1F1F1" points="459.4375,750.0933,471.4375,762.0933,459.4375,774.0933,447.4375,762.0933,459.4375,750.0933" style="stroke:#181818;stroke-width:0.5;"/><polygon fill="#F1F1F1" points="634.9375,523.043,826.9375,523.043,838.9375,535.043,826.9375,547.043,634.9375,547.043,622.9375,535.043,634.9375,523.043" style="stroke:#181818;stroke-width:0.5;"/><text fill="#000000" font-family="sans-serif" font-size="11" lengthAdjust="spacing" textLength="23" x="734.9375" y="557.2534">true</text><text fill="#000000" font-family="sans-serif" font-size="11" lengthAdjust="spacing" textLength="192" x="634.9375" y="538.8511">&#20219;&#21209;&#29376;&#24907;&#28858;PRE_TERMINAL_STATION</text><rect fill="#F1F1F1" height="33.9688" rx="12.5" ry="12.5" style="stroke:#181818;stroke-width:0.5;" width="127" x="667.4375" y="627.1558"/><text fill="#000000" font-family="sans-serif" font-size="12" lengthAdjust="spacing" textLength="107" x="677.4375" y="648.2944">&#21462;&#28040;&#32066;&#40670;&#31449;Booked</text><rect fill="#F1F1F1" height="33.9688" rx="12.5" ry="12.5" style="stroke:#181818;stroke-width:0.5;" width="174" x="643.9375" y="696.1245"/><text fill="#000000" font-family="sans-serif" font-size="12" lengthAdjust="spacing" textLength="154" x="653.9375" y="717.2632">&#35373;&#32622;&#20219;&#21209;&#29376;&#24907;&#28858;COMPLETED</text><polygon fill="#F1F1F1" points="676.9375,578.7534,784.9375,578.7534,796.9375,590.7534,784.9375,602.7534,676.9375,602.7534,664.9375,590.7534,676.9375,578.7534" style="stroke:#181818;stroke-width:0.5;"/><text fill="#000000" font-family="sans-serif" font-size="11" lengthAdjust="spacing" textLength="23" x="734.9375" y="612.9639">true</text><text fill="#000000" font-family="sans-serif" font-size="11" lengthAdjust="spacing" textLength="108" x="676.9375" y="594.5615">&#30446;&#21069;&#20301;&#32622;=&#20219;&#21209;&#32066;&#40670;&#31449;</text><text fill="#000000" font-family="sans-serif" font-size="11" lengthAdjust="spacing" textLength="28" x="796.9375" y="588.1592">false</text><polygon fill="#F1F1F1" points="730.9375,750.0933,742.9375,762.0933,730.9375,774.0933,718.9375,762.0933,730.9375,750.0933" style="stroke:#181818;stroke-width:0.5;"/><polygon fill="#F1F1F1" points="563.9375,828.2769,653.9375,828.2769,665.9375,841.0815,653.9375,853.8862,563.9375,853.8862,551.9375,841.0815,563.9375,828.2769" style="stroke:#181818;stroke-width:0.5;"/><text fill="#000000" font-family="sans-serif" font-size="11" lengthAdjust="spacing" textLength="88" x="563.9375" y="838.4873">&#20219;&#21209;&#26159;&#21542;&#22519;&#34892;&#22833;&#25943;</text><text fill="#000000" font-family="sans-serif" font-size="11" lengthAdjust="spacing" textLength="82" x="571.9375" y="851.292">(taskStatus[7])</text><text fill="#000000" font-family="sans-serif" font-size="11" lengthAdjust="spacing" textLength="23" x="528.9375" y="838.4873">true</text><text fill="#000000" font-family="sans-serif" font-size="11" lengthAdjust="spacing" textLength="28" x="665.9375" y="838.4873">false</text><rect fill="#F1F1F1" height="33.9688" rx="12.5" ry="12.5" style="stroke:#181818;stroke-width:0.5;" width="128" x="155.125" y="863.8862"/><text fill="#000000" font-family="sans-serif" font-size="12" lengthAdjust="spacing" textLength="108" x="165.125" y="885.0249">&#20219;&#21209;&#22833;&#25943;&#35336;&#20837;&#36039;&#26009;&#24235;</text><polygon fill="#F1F1F1" points="173.125,932.855,265.125,932.855,277.125,945.6597,265.125,958.4644,173.125,958.4644,161.125,945.6597,173.125,932.855" style="stroke:#181818;stroke-width:0.5;"/><text fill="#000000" font-family="sans-serif" font-size="11" lengthAdjust="spacing" textLength="88" x="173.125" y="943.0654">&#26159;&#21542;&#28858;&#24453;&#21629;&#40670;&#20219;&#21209;</text><text fill="#000000" font-family="sans-serif" font-size="11" lengthAdjust="spacing" textLength="84" x="181.125" y="955.8701">(iStandbyTask)</text><text fill="#000000" font-family="sans-serif" font-size="11" lengthAdjust="spacing" textLength="23" x="138.125" y="943.0654">true</text><text fill="#000000" font-family="sans-serif" font-size="11" lengthAdjust="spacing" textLength="28" x="277.125" y="943.0654">false</text><rect fill="#F1F1F1" height="61.9063" rx="12.5" ry="12.5" style="stroke:#181818;stroke-width:0.5;" width="139" x="11" y="968.4644"/><text fill="#000000" font-family="sans-serif" font-size="12" lengthAdjust="spacing" textLength="108" x="21" y="989.603">&#22519;&#34892;&#24453;&#21629;&#40670;&#20219;&#21209;&#22833;&#25943;</text><text fill="#000000" font-family="sans-serif" font-size="12" lengthAdjust="spacing" textLength="70" x="41" y="1003.5718">iTask=false</text><text fill="#000000" font-family="sans-serif" font-size="12" lengthAdjust="spacing" textLength="119" x="21" y="1017.5405">iStandbyTask=false</text><polygon fill="#F1F1F1" points="324.75,968.4644,390.75,968.4644,402.75,981.269,390.75,994.0737,324.75,994.0737,312.75,981.269,324.75,968.4644" style="stroke:#181818;stroke-width:0.5;"/><text fill="#000000" font-family="sans-serif" font-size="11" lengthAdjust="spacing" textLength="66" x="324.75" y="978.6748">&#37325;&#26032;&#27966;&#30332;&#20219;&#21209;</text><text fill="#000000" font-family="sans-serif" font-size="11" lengthAdjust="spacing" textLength="66" x="324.75" y="991.4795">&#26159;&#21542;&#36229;&#36942;&#19977;&#27425;</text><text fill="#000000" font-family="sans-serif" font-size="11" lengthAdjust="spacing" textLength="23" x="289.75" y="978.6748">true</text><text fill="#000000" font-family="sans-serif" font-size="11" lengthAdjust="spacing" textLength="28" x="402.75" y="978.6748">false</text><rect fill="#F1F1F1" height="75.875" rx="12.5" ry="12.5" style="stroke:#181818;stroke-width:0.5;" width="171" x="180" y="1004.0737"/><text fill="#000000" font-family="sans-serif" font-size="12" lengthAdjust="spacing" textLength="151" x="190" y="1025.2124">&#22833;&#25943;&#19977;&#27425;(reDispatch==3)</text><text fill="#000000" font-family="sans-serif" font-size="12" lengthAdjust="spacing" textLength="120" x="198" y="1039.1812">&#21034;&#38500;&#20219;&#21209;&#20006;&#35336;&#20837;&#36039;&#26009;&#24235;</text><text fill="#000000" font-family="sans-serif" font-size="12" lengthAdjust="spacing" textLength="70" x="230" y="1053.1499">iTask=false</text><text fill="#000000" font-family="sans-serif" font-size="12" lengthAdjust="spacing" textLength="83" x="222" y="1067.1187">reDispatch=0</text><path d="M522.5,1055.73 L522.5,1079.4292 L502.5,1083.4292 L522.5,1087.4292 L522.5,1111.1284 A0,0 0 0 0 522.5,1111.1284 L721.5,1111.1284 A0,0 0 0 0 721.5,1111.1284 L721.5,1065.73 L711.5,1055.73 L522.5,1055.73 A0,0 0 0 0 522.5,1055.73 " fill="#FEFFDD" style="stroke:#181818;stroke-width:0.5;"/><path d="M711.5,1055.73 L711.5,1065.73 L721.5,1065.73 L711.5,1055.73 " fill="#FEFFDD" style="stroke:#181818;stroke-width:0.5;"/><text fill="#000000" font-family="sans-serif" font-size="13" lengthAdjust="spacing" textLength="156" x="528.5" y="1072.7969">&#24314;&#31435;&#19968;&#20491;&#33258;&#21205;&#22238;&#25910;&#30340;&#22519;&#34892;&#32210;</text><text fill="#000000" font-family="sans-serif" font-size="13" lengthAdjust="spacing" textLength="117" x="528.5" y="1087.9297">&#27966;&#36963;&#21083;&#21083;&#22833;&#25943;&#30340;&#20219;&#21209;</text><text fill="#000000" font-family="sans-serif" font-size="13" lengthAdjust="spacing" textLength="178" x="528.5" y="1103.0625">&#20351;&#29992;ProcessTasks&#30340;&#27966;&#36963;&#26041;&#27861;</text><rect fill="#F1F1F1" height="61.9063" rx="12.5" ry="12.5" style="stroke:#181818;stroke-width:0.5;" width="105" x="397.5" y="1052.4761"/><text fill="#000000" font-family="sans-serif" font-size="12" lengthAdjust="spacing" textLength="72" x="407.5" y="1073.6147">&#37325;&#26032;&#27966;&#30332;&#20219;&#21209;</text><text fill="#000000" font-family="sans-serif" font-size="12" lengthAdjust="spacing" textLength="60" x="415.5" y="1087.5835">&#35336;&#20837;&#36039;&#26009;&#24235;</text><text fill="#000000" font-family="sans-serif" font-size="12" lengthAdjust="spacing" textLength="85" x="407.5" y="1101.5522">reDispatch++</text><polygon fill="#F1F1F1" points="383,1004.0737,517,1004.0737,529,1016.0737,517,1028.0737,383,1028.0737,371,1016.0737,383,1004.0737" style="stroke:#181818;stroke-width:0.5;"/><text fill="#000000" font-family="sans-serif" font-size="11" lengthAdjust="spacing" textLength="28" x="454" y="1038.2842">false</text><text fill="#000000" font-family="sans-serif" font-size="11" lengthAdjust="spacing" textLength="134" x="383" y="1019.8818">ProcessTasks.isRetrying</text><text fill="#000000" font-family="sans-serif" font-size="11" lengthAdjust="spacing" textLength="23" x="529" y="1013.4795">true</text><polygon fill="#F1F1F1" points="450,1138.7847,462,1150.7847,450,1162.7847,438,1150.7847,450,1138.7847" style="stroke:#181818;stroke-width:0.5;"/><polygon fill="#F1F1F1" points="357.75,1168.7847,369.75,1180.7847,357.75,1192.7847,345.75,1180.7847,357.75,1168.7847" style="stroke:#181818;stroke-width:0.5;"/><polygon fill="#F1F1F1" points="219.125,1198.7847,231.125,1210.7847,219.125,1222.7847,207.125,1210.7847,219.125,1198.7847" style="stroke:#181818;stroke-width:0.5;"/><polygon fill="#F1F1F1" points="953.75,863.8862,1043.75,863.8862,1055.75,876.6909,1043.75,889.4956,953.75,889.4956,941.75,876.6909,953.75,863.8862" style="stroke:#181818;stroke-width:0.5;"/><text fill="#000000" font-family="sans-serif" font-size="11" lengthAdjust="spacing" textLength="88" x="953.75" y="874.0967">&#26159;&#21542;&#27491;&#22312;&#22519;&#34892;&#20219;&#21209;</text><text fill="#000000" font-family="sans-serif" font-size="11" lengthAdjust="spacing" textLength="82" x="961.75" y="886.9014">(taskStatus[0])</text><text fill="#000000" font-family="sans-serif" font-size="11" lengthAdjust="spacing" textLength="23" x="918.75" y="874.0967">true</text><text fill="#000000" font-family="sans-serif" font-size="11" lengthAdjust="spacing" textLength="28" x="1055.75" y="874.0967">false</text><rect fill="#F1F1F1" height="47.9375" rx="12.5" ry="12.5" style="stroke:#181818;stroke-width:0.5;" width="139" x="803.5" y="949.5073"/><text fill="#000000" font-family="sans-serif" font-size="12" lengthAdjust="spacing" textLength="119" x="813.5" y="970.646">&#35373;&#32622;AGV&#30446;&#21069;&#20219;&#21209;(UI)</text><text fill="#000000" font-family="sans-serif" font-size="12" lengthAdjust="spacing" textLength="84" x="821.5" y="984.6147">&#38283;&#22987;&#35336;&#31639;&#31292;&#21205;&#29575;</text><polygon fill="#F1F1F1" points="827,899.4956,919,899.4956,931,912.3003,919,925.105,827,925.105,815,912.3003,827,899.4956" style="stroke:#181818;stroke-width:0.5;"/><text fill="#000000" font-family="sans-serif" font-size="11" lengthAdjust="spacing" textLength="28" x="877" y="935.3154">false</text><text fill="#000000" font-family="sans-serif" font-size="11" lengthAdjust="spacing" textLength="88" x="827" y="909.7061">&#26159;&#21542;&#28858;&#24453;&#21629;&#40670;&#20219;&#21209;</text><text fill="#000000" font-family="sans-serif" font-size="11" lengthAdjust="spacing" textLength="84" x="835" y="922.5107">(iStandbyTask)</text><text fill="#000000" font-family="sans-serif" font-size="11" lengthAdjust="spacing" textLength="23" x="931" y="909.7061">true</text><polygon fill="#F1F1F1" points="873,1021.8472,885,1033.8472,873,1045.8472,861,1033.8472,873,1021.8472" style="stroke:#181818;stroke-width:0.5;"/><rect fill="#F1F1F1" height="33.9688" rx="12.5" ry="12.5" style="stroke:#181818;stroke-width:0.5;" width="85" x="830.5" y="1080.8472"/><text fill="#000000" font-family="sans-serif" font-size="12" lengthAdjust="spacing" textLength="65" x="840.5" y="1101.9858">iTask=true</text><rect fill="#F1F1F1" height="47.9375" rx="12.5" ry="12.5" style="stroke:#181818;stroke-width:0.5;" width="163" x="1043" y="899.4956"/><text fill="#000000" font-family="sans-serif" font-size="12" lengthAdjust="spacing" textLength="143" x="1053" y="920.6343">&#35373;&#32622;AGV&#30446;&#21069;&#20219;&#21209;&#28858;&#31354;(UI)</text><text fill="#000000" font-family="sans-serif" font-size="12" lengthAdjust="spacing" textLength="84" x="1073" y="934.603">&#20572;&#27490;&#35336;&#31639;&#31292;&#21205;&#29575;</text><polygon fill="#F1F1F1" points="1078.5,1032.4448,1170.5,1032.4448,1182.5,1045.2495,1170.5,1058.0542,1078.5,1058.0542,1066.5,1045.2495,1078.5,1032.4448" style="stroke:#181818;stroke-width:0.5;"/><text fill="#000000" font-family="sans-serif" font-size="11" lengthAdjust="spacing" textLength="88" x="1078.5" y="1042.6553">&#26159;&#21542;&#28858;&#24453;&#21629;&#40670;&#20219;&#21209;</text><text fill="#000000" font-family="sans-serif" font-size="11" lengthAdjust="spacing" textLength="84" x="1086.5" y="1055.46">(iStandbyTask)</text><text fill="#000000" font-family="sans-serif" font-size="11" lengthAdjust="spacing" textLength="23" x="1043.5" y="1042.6553">true</text><text fill="#000000" font-family="sans-serif" font-size="11" lengthAdjust="spacing" textLength="28" x="1182.5" y="1042.6553">false</text><rect fill="#F1F1F1" height="33.9688" rx="12.5" ry="12.5" style="stroke:#181818;stroke-width:0.5;" width="104" x="1004.5" y="1068.0542"/><text fill="#000000" font-family="sans-serif" font-size="12" lengthAdjust="spacing" textLength="84" x="1014.5" y="1089.1929">&#23436;&#25104;&#24453;&#21629;&#40670;&#20219;&#21209;</text><rect fill="#F1F1F1" height="33.9688" rx="12.5" ry="12.5" style="stroke:#181818;stroke-width:0.5;" width="68" x="1158.5" y="1068.0542"/><text fill="#000000" font-family="sans-serif" font-size="12" lengthAdjust="spacing" textLength="48" x="1168.5" y="1089.1929">&#23436;&#25104;&#20219;&#21209;</text><polygon fill="#F1F1F1" points="1124.5,1108.0229,1136.5,1120.0229,1124.5,1132.0229,1112.5,1120.0229,1124.5,1108.0229" style="stroke:#181818;stroke-width:0.5;"/><rect fill="#F1F1F1" height="33.9688" rx="12.5" ry="12.5" style="stroke:#181818;stroke-width:0.5;" width="90" x="1079.5" y="1167.0229"/><text fill="#000000" font-family="sans-serif" font-size="12" lengthAdjust="spacing" textLength="70" x="1089.5" y="1188.1616">iTask=false</text><polygon fill="#F1F1F1" points="1091.5,982.4331,1157.5,982.4331,1169.5,995.2378,1157.5,1008.0425,1091.5,1008.0425,1079.5,995.2378,1091.5,982.4331" style="stroke:#181818;stroke-width:0.5;"/><text fill="#000000" font-family="sans-serif" font-size="11" lengthAdjust="spacing" textLength="23" x="1128.5" y="1018.2529">true</text><text fill="#000000" font-family="sans-serif" font-size="11" lengthAdjust="spacing" textLength="66" x="1091.5" y="992.6436">&#26159;&#21542;&#22312;&#20219;&#21209;&#20013;</text><text fill="#000000" font-family="sans-serif" font-size="11" lengthAdjust="spacing" textLength="37" x="1111.5" y="1005.4482">(iTask)</text><text fill="#000000" font-family="sans-serif" font-size="11" lengthAdjust="spacing" textLength="28" x="1169.5" y="992.6436">false</text><polygon fill="#F1F1F1" points="1124.5,1225.394,1136.5,1237.394,1124.5,1249.394,1112.5,1237.394,1124.5,1225.394" style="stroke:#181818;stroke-width:0.5;"/><polygon fill="#F1F1F1" points="998.75,1255.394,1010.75,1267.394,998.75,1279.394,986.75,1267.394,998.75,1255.394" style="stroke:#181818;stroke-width:0.5;"/><polygon fill="#F1F1F1" points="608.9375,1285.394,620.9375,1297.394,608.9375,1309.394,596.9375,1297.394,608.9375,1285.394" style="stroke:#181818;stroke-width:0.5;"/><rect fill="#F1F1F1" height="33.9688" rx="12.5" ry="12.5" style="stroke:#181818;stroke-width:0.5;" width="261" x="478.4375" y="1329.394"/><text fill="#000000" font-family="sans-serif" font-size="12" lengthAdjust="spacing" textLength="241" x="488.4375" y="1350.5327">&#26356;&#26032;AGV&#29376;&#24907;&#65292;&#20006;&#23559;&#26410;&#37325;&#35079;&#30340;&#29376;&#24907;&#35336;&#20837;&#36039;&#26009;&#24235;</text><polygon fill="#F1F1F1" points="608.9375,317.1367,620.9375,329.1367,608.9375,341.1367,596.9375,329.1367,608.9375,317.1367" style="stroke:#181818;stroke-width:0.5;"/><polygon fill="#F1F1F1" points="575.9375,1383.3628,641.9375,1383.3628,653.9375,1395.3628,641.9375,1407.3628,575.9375,1407.3628,563.9375,1395.3628,575.9375,1383.3628" style="stroke:#181818;stroke-width:0.5;"/><text fill="#000000" font-family="sans-serif" font-size="11" lengthAdjust="spacing" textLength="28" x="612.9375" y="1417.5732">false</text><text fill="#000000" font-family="sans-serif" font-size="11" lengthAdjust="spacing" textLength="66" x="575.9375" y="1399.1709">&#36996;&#26377;&#19979;&#19968;&#21488;&#36554;</text><text fill="#000000" font-family="sans-serif" font-size="11" lengthAdjust="spacing" textLength="23" x="653.9375" y="1392.7686">true</text><polygon fill="#F1F1F1" points="563.4375,214.7656,654.4375,214.7656,666.4375,226.7656,654.4375,238.7656,563.4375,238.7656,551.4375,226.7656,563.4375,214.7656" style="stroke:#181818;stroke-width:0.5;"/><text fill="#000000" font-family="sans-serif" font-size="11" lengthAdjust="spacing" textLength="23" x="612.9375" y="248.9761">true</text><text fill="#000000" font-family="sans-serif" font-size="11" lengthAdjust="spacing" textLength="91" x="563.4375" y="230.5737">AGV&#31995;&#32113;&#26159;&#21542;&#36899;&#32218;</text><text fill="#000000" font-family="sans-serif" font-size="11" lengthAdjust="spacing" textLength="28" x="666.4375" y="224.1714">false</text><ellipse cx="716.4375" cy="226.7656" fill="none" rx="11" ry="11" style="stroke:#222222;stroke-width:1.0;"/><ellipse cx="716.4375" cy="226.7656" fill="#222222" rx="6" ry="6" style="stroke:#111111;stroke-width:1.0;"/><ellipse cx="608.9375" cy="1450.0732" fill="none" rx="11" ry="11" style="stroke:#222222;stroke-width:1.0;"/><ellipse cx="608.9375" cy="1450.0732" fill="#222222" rx="6" ry="6" style="stroke:#111111;stroke-width:1.0;"/><line style="stroke:#181818;stroke-width:1.0;" x1="608.9375" x2="608.9375" y1="85.3984" y2="160.7969"/><polygon fill="#181818" points="604.9375,150.7969,608.9375,160.7969,612.9375,150.7969,608.9375,154.7969" style="stroke:#181818;stroke-width:1.0;"/><line style="stroke:#181818;stroke-width:1.0;" x1="608.9375" x2="608.9375" y1="395.1055" y2="415.1055"/><polygon fill="#181818" points="604.9375,405.1055,608.9375,415.1055,612.9375,405.1055,608.9375,409.1055" style="stroke:#181818;stroke-width:1.0;"/><line style="stroke:#181818;stroke-width:1.0;" x1="608.9375" x2="608.9375" y1="449.0742" y2="469.0742"/><polygon fill="#181818" points="604.9375,459.0742,608.9375,469.0742,612.9375,459.0742,608.9375,463.0742" style="stroke:#181818;stroke-width:1.0;"/><line style="stroke:#181818;stroke-width:1.0;" x1="459.4375" x2="459.4375" y1="661.1245" y2="696.1245"/><polygon fill="#181818" points="455.4375,686.1245,459.4375,696.1245,463.4375,686.1245,459.4375,690.1245" style="stroke:#181818;stroke-width:1.0;"/><line style="stroke:#181818;stroke-width:1.0;" x1="459.4375" x2="459.4375" y1="602.7534" y2="627.1558"/><polygon fill="#181818" points="455.4375,617.1558,459.4375,627.1558,463.4375,617.1558,459.4375,621.1558" style="stroke:#181818;stroke-width:1.0;"/><line style="stroke:#181818;stroke-width:1.0;" x1="525.4375" x2="590.9375" y1="590.7534" y2="590.7534"/><polygon fill="#181818" points="586.9375,668.6245,590.9375,678.6245,594.9375,668.6245,590.9375,672.6245" style="stroke:#181818;stroke-width:1.0;"/><line style="stroke:#181818;stroke-width:1.0;" x1="590.9375" x2="590.9375" y1="590.7534" y2="762.0933"/><line style="stroke:#181818;stroke-width:1.0;" x1="590.9375" x2="471.4375" y1="762.0933" y2="762.0933"/><polygon fill="#181818" points="481.4375,758.0933,471.4375,762.0933,481.4375,766.0933,477.4375,762.0933" style="stroke:#181818;stroke-width:1.0;"/><line style="stroke:#181818;stroke-width:1.0;" x1="459.4375" x2="459.4375" y1="730.0933" y2="750.0933"/><polygon fill="#181818" points="455.4375,740.0933,459.4375,750.0933,463.4375,740.0933,459.4375,744.0933" style="stroke:#181818;stroke-width:1.0;"/><line style="stroke:#181818;stroke-width:1.0;" x1="730.9375" x2="730.9375" y1="661.1245" y2="696.1245"/><polygon fill="#181818" points="726.9375,686.1245,730.9375,696.1245,734.9375,686.1245,730.9375,690.1245" style="stroke:#181818;stroke-width:1.0;"/><line style="stroke:#181818;stroke-width:1.0;" x1="730.9375" x2="730.9375" y1="602.7534" y2="627.1558"/><polygon fill="#181818" points="726.9375,617.1558,730.9375,627.1558,734.9375,617.1558,730.9375,621.1558" style="stroke:#181818;stroke-width:1.0;"/><line style="stroke:#181818;stroke-width:1.0;" x1="796.9375" x2="827.9375" y1="590.7534" y2="590.7534"/><polygon fill="#181818" points="823.9375,668.6245,827.9375,678.6245,831.9375,668.6245,827.9375,672.6245" style="stroke:#181818;stroke-width:1.0;"/><line style="stroke:#181818;stroke-width:1.0;" x1="827.9375" x2="827.9375" y1="590.7534" y2="762.0933"/><line style="stroke:#181818;stroke-width:1.0;" x1="827.9375" x2="742.9375" y1="762.0933" y2="762.0933"/><polygon fill="#181818" points="752.9375,758.0933,742.9375,762.0933,752.9375,766.0933,748.9375,762.0933" style="stroke:#181818;stroke-width:1.0;"/><line style="stroke:#181818;stroke-width:1.0;" x1="730.9375" x2="730.9375" y1="730.0933" y2="750.0933"/><polygon fill="#181818" points="726.9375,740.0933,730.9375,750.0933,734.9375,740.0933,730.9375,744.0933" style="stroke:#181818;stroke-width:1.0;"/><line style="stroke:#181818;stroke-width:1.0;" x1="459.4375" x2="459.4375" y1="547.043" y2="578.7534"/><polygon fill="#181818" points="455.4375,568.7534,459.4375,578.7534,463.4375,568.7534,459.4375,572.7534" style="stroke:#181818;stroke-width:1.0;"/><line style="stroke:#181818;stroke-width:1.0;" x1="459.4375" x2="459.4375" y1="774.0933" y2="794.0933"/><polygon fill="#181818" points="455.4375,784.0933,459.4375,794.0933,463.4375,784.0933,459.4375,788.0933" style="stroke:#181818;stroke-width:1.0;"/><line style="stroke:#181818;stroke-width:1.0;" x1="730.9375" x2="730.9375" y1="547.043" y2="578.7534"/><polygon fill="#181818" points="726.9375,568.7534,730.9375,578.7534,734.9375,568.7534,730.9375,572.7534" style="stroke:#181818;stroke-width:1.0;"/><line style="stroke:#181818;stroke-width:1.0;" x1="730.9375" x2="730.9375" y1="774.0933" y2="794.0933"/><polygon fill="#181818" points="726.9375,784.0933,730.9375,794.0933,734.9375,784.0933,730.9375,788.0933" style="stroke:#181818;stroke-width:1.0;"/><line style="stroke:#181818;stroke-width:1.0;" x1="558.4375" x2="622.9375" y1="535.043" y2="535.043"/><polygon fill="#181818" points="612.9375,531.043,622.9375,535.043,612.9375,539.043,616.9375,535.043" style="stroke:#181818;stroke-width:1.0;"/><line style="stroke:#181818;stroke-width:1.0;" x1="608.9375" x2="608.9375" y1="503.043" y2="508.043"/><line style="stroke:#181818;stroke-width:1.0;" x1="608.9375" x2="459.4375" y1="508.043" y2="508.043"/><line style="stroke:#181818;stroke-width:1.0;" x1="459.4375" x2="459.4375" y1="508.043" y2="523.043"/><polygon fill="#181818" points="455.4375,513.043,459.4375,523.043,463.4375,513.043,459.4375,517.043" style="stroke:#181818;stroke-width:1.0;"/><line style="stroke:#181818;stroke-width:1.0;" x1="838.9375" x2="874.9375" y1="535.043" y2="535.043"/><line style="stroke:#181818;stroke-width:1.0;" x1="874.9375" x2="874.9375" y1="535.043" y2="794.0933"/><polygon fill="#181818" points="870.9375,784.0933,874.9375,794.0933,878.9375,784.0933,874.9375,788.0933" style="stroke:#181818;stroke-width:1.0;"/><line style="stroke:#181818;stroke-width:1.0;" x1="459.4375" x2="874.9375" y1="794.0933" y2="794.0933"/><line style="stroke:#181818;stroke-width:1.0;" x1="450" x2="450" y1="1028.0737" y2="1052.4761"/><polygon fill="#181818" points="446,1042.4761,450,1052.4761,454,1042.4761,450,1046.4761" style="stroke:#181818;stroke-width:1.0;"/><line style="stroke:#181818;stroke-width:1.0;" x1="529" x2="731.5" y1="1016.0737" y2="1016.0737"/><polygon fill="#181818" points="727.5,1073.4292,731.5,1083.4292,735.5,1073.4292,731.5,1077.4292" style="stroke:#181818;stroke-width:1.0;"/><line style="stroke:#181818;stroke-width:1.0;" x1="731.5" x2="731.5" y1="1016.0737" y2="1150.7847"/><line style="stroke:#181818;stroke-width:1.0;" x1="731.5" x2="462" y1="1150.7847" y2="1150.7847"/><polygon fill="#181818" points="472,1146.7847,462,1150.7847,472,1154.7847,468,1150.7847" style="stroke:#181818;stroke-width:1.0;"/><line style="stroke:#181818;stroke-width:1.0;" x1="450" x2="450" y1="1114.3823" y2="1138.7847"/><polygon fill="#181818" points="446,1128.7847,450,1138.7847,454,1128.7847,450,1132.7847" style="stroke:#181818;stroke-width:1.0;"/><line style="stroke:#181818;stroke-width:1.0;" x1="312.75" x2="265.5" y1="981.269" y2="981.269"/><line style="stroke:#181818;stroke-width:1.0;" x1="265.5" x2="265.5" y1="981.269" y2="1004.0737"/><polygon fill="#181818" points="261.5,994.0737,265.5,1004.0737,269.5,994.0737,265.5,998.0737" style="stroke:#181818;stroke-width:1.0;"/><line style="stroke:#181818;stroke-width:1.0;" x1="402.75" x2="450" y1="981.269" y2="981.269"/><line style="stroke:#181818;stroke-width:1.0;" x1="450" x2="450" y1="981.269" y2="1004.0737"/><polygon fill="#181818" points="446,994.0737,450,1004.0737,454,994.0737,450,998.0737" style="stroke:#181818;stroke-width:1.0;"/><line style="stroke:#181818;stroke-width:1.0;" x1="265.5" x2="265.5" y1="1079.9487" y2="1180.7847"/><line style="stroke:#181818;stroke-width:1.0;" x1="265.5" x2="345.75" y1="1180.7847" y2="1180.7847"/><polygon fill="#181818" points="335.75,1176.7847,345.75,1180.7847,335.75,1184.7847,339.75,1180.7847" style="stroke:#181818;stroke-width:1.0;"/><line style="stroke:#181818;stroke-width:1.0;" x1="450" x2="450" y1="1162.7847" y2="1180.7847"/><line style="stroke:#181818;stroke-width:1.0;" x1="450" x2="369.75" y1="1180.7847" y2="1180.7847"/><polygon fill="#181818" points="379.75,1176.7847,369.75,1180.7847,379.75,1184.7847,375.75,1180.7847" style="stroke:#181818;stroke-width:1.0;"/><line style="stroke:#181818;stroke-width:1.0;" x1="161.125" x2="80.5" y1="945.6597" y2="945.6597"/><line style="stroke:#181818;stroke-width:1.0;" x1="80.5" x2="80.5" y1="945.6597" y2="968.4644"/><polygon fill="#181818" points="76.5,958.4644,80.5,968.4644,84.5,958.4644,80.5,962.4644" style="stroke:#181818;stroke-width:1.0;"/><line style="stroke:#181818;stroke-width:1.0;" x1="277.125" x2="357.75" y1="945.6597" y2="945.6597"/><line style="stroke:#181818;stroke-width:1.0;" x1="357.75" x2="357.75" y1="945.6597" y2="968.4644"/><polygon fill="#181818" points="353.75,958.4644,357.75,968.4644,361.75,958.4644,357.75,962.4644" style="stroke:#181818;stroke-width:1.0;"/><line style="stroke:#181818;stroke-width:1.0;" x1="80.5" x2="80.5" y1="1030.3706" y2="1210.7847"/><line style="stroke:#181818;stroke-width:1.0;" x1="80.5" x2="207.125" y1="1210.7847" y2="1210.7847"/><polygon fill="#181818" points="197.125,1206.7847,207.125,1210.7847,197.125,1214.7847,201.125,1210.7847" style="stroke:#181818;stroke-width:1.0;"/><line style="stroke:#181818;stroke-width:1.0;" x1="357.75" x2="357.75" y1="1192.7847" y2="1210.7847"/><line style="stroke:#181818;stroke-width:1.0;" x1="357.75" x2="231.125" y1="1210.7847" y2="1210.7847"/><polygon fill="#181818" points="241.125,1206.7847,231.125,1210.7847,241.125,1214.7847,237.125,1210.7847" style="stroke:#181818;stroke-width:1.0;"/><line style="stroke:#181818;stroke-width:1.0;" x1="219.125" x2="219.125" y1="897.855" y2="932.855"/><polygon fill="#181818" points="215.125,922.855,219.125,932.855,223.125,922.855,219.125,926.855" style="stroke:#181818;stroke-width:1.0;"/><line style="stroke:#181818;stroke-width:1.0;" x1="873" x2="873" y1="925.105" y2="949.5073"/><polygon fill="#181818" points="869,939.5073,873,949.5073,877,939.5073,873,943.5073" style="stroke:#181818;stroke-width:1.0;"/><line style="stroke:#181818;stroke-width:1.0;" x1="931" x2="952.5" y1="912.3003" y2="912.3003"/><polygon fill="#181818" points="948.5,963.0737,952.5,973.0737,956.5,963.0737,952.5,967.0737" style="stroke:#181818;stroke-width:1.0;"/><line style="stroke:#181818;stroke-width:1.0;" x1="952.5" x2="952.5" y1="912.3003" y2="1033.8472"/><line style="stroke:#181818;stroke-width:1.0;" x1="952.5" x2="885" y1="1033.8472" y2="1033.8472"/><polygon fill="#181818" points="895,1029.8472,885,1033.8472,895,1037.8472,891,1033.8472" style="stroke:#181818;stroke-width:1.0;"/><line style="stroke:#181818;stroke-width:1.0;" x1="873" x2="873" y1="997.4448" y2="1021.8472"/><polygon fill="#181818" points="869,1011.8472,873,1021.8472,877,1011.8472,873,1015.8472" style="stroke:#181818;stroke-width:1.0;"/><line style="stroke:#181818;stroke-width:1.0;" x1="873" x2="873" y1="1045.8472" y2="1080.8472"/><polygon fill="#181818" points="869,1070.8472,873,1080.8472,877,1070.8472,873,1074.8472" style="stroke:#181818;stroke-width:1.0;"/><line style="stroke:#181818;stroke-width:1.0;" x1="1066.5" x2="1056.5" y1="1045.2495" y2="1045.2495"/><line style="stroke:#181818;stroke-width:1.0;" x1="1056.5" x2="1056.5" y1="1045.2495" y2="1068.0542"/><polygon fill="#181818" points="1052.5,1058.0542,1056.5,1068.0542,1060.5,1058.0542,1056.5,1062.0542" style="stroke:#181818;stroke-width:1.0;"/><line style="stroke:#181818;stroke-width:1.0;" x1="1182.5" x2="1192.5" y1="1045.2495" y2="1045.2495"/><line style="stroke:#181818;stroke-width:1.0;" x1="1192.5" x2="1192.5" y1="1045.2495" y2="1068.0542"/><polygon fill="#181818" points="1188.5,1058.0542,1192.5,1068.0542,1196.5,1058.0542,1192.5,1062.0542" style="stroke:#181818;stroke-width:1.0;"/><line style="stroke:#181818;stroke-width:1.0;" x1="1056.5" x2="1056.5" y1="1102.0229" y2="1120.0229"/><line style="stroke:#181818;stroke-width:1.0;" x1="1056.5" x2="1112.5" y1="1120.0229" y2="1120.0229"/><polygon fill="#181818" points="1102.5,1116.0229,1112.5,1120.0229,1102.5,1124.0229,1106.5,1120.0229" style="stroke:#181818;stroke-width:1.0;"/><line style="stroke:#181818;stroke-width:1.0;" x1="1192.5" x2="1192.5" y1="1102.0229" y2="1120.0229"/><line style="stroke:#181818;stroke-width:1.0;" x1="1192.5" x2="1136.5" y1="1120.0229" y2="1120.0229"/><polygon fill="#181818" points="1146.5,1116.0229,1136.5,1120.0229,1146.5,1124.0229,1142.5,1120.0229" style="stroke:#181818;stroke-width:1.0;"/><line style="stroke:#181818;stroke-width:1.0;" x1="1124.5" x2="1124.5" y1="1132.0229" y2="1167.0229"/><polygon fill="#181818" points="1120.5,1157.0229,1124.5,1167.0229,1128.5,1157.0229,1124.5,1161.0229" style="stroke:#181818;stroke-width:1.0;"/><line style="stroke:#181818;stroke-width:1.0;" x1="1124.5" x2="1124.5" y1="1008.0425" y2="1032.4448"/><polygon fill="#181818" points="1120.5,1022.4448,1124.5,1032.4448,1128.5,1022.4448,1124.5,1026.4448" style="stroke:#181818;stroke-width:1.0;"/><line style="stroke:#181818;stroke-width:1.0;" x1="1169.5" x2="1240.5" y1="995.2378" y2="995.2378"/><polygon fill="#181818" points="1236.5,1106.3159,1240.5,1116.3159,1244.5,1106.3159,1240.5,1110.3159" style="stroke:#181818;stroke-width:1.0;"/><line style="stroke:#181818;stroke-width:1.0;" x1="1240.5" x2="1240.5" y1="995.2378" y2="1237.394"/><line style="stroke:#181818;stroke-width:1.0;" x1="1240.5" x2="1136.5" y1="1237.394" y2="1237.394"/><polygon fill="#181818" points="1146.5,1233.394,1136.5,1237.394,1146.5,1241.394,1142.5,1237.394" style="stroke:#181818;stroke-width:1.0;"/><line style="stroke:#181818;stroke-width:1.0;" x1="1124.5" x2="1124.5" y1="1200.9917" y2="1225.394"/><polygon fill="#181818" points="1120.5,1215.394,1124.5,1225.394,1128.5,1215.394,1124.5,1219.394" style="stroke:#181818;stroke-width:1.0;"/><line style="stroke:#181818;stroke-width:1.0;" x1="1124.5" x2="1124.5" y1="947.4331" y2="982.4331"/><polygon fill="#181818" points="1120.5,972.4331,1124.5,982.4331,1128.5,972.4331,1124.5,976.4331" style="stroke:#181818;stroke-width:1.0;"/><line style="stroke:#181818;stroke-width:1.0;" x1="941.75" x2="873" y1="876.6909" y2="876.6909"/><line style="stroke:#181818;stroke-width:1.0;" x1="873" x2="873" y1="876.6909" y2="899.4956"/><polygon fill="#181818" points="869,889.4956,873,899.4956,877,889.4956,873,893.4956" style="stroke:#181818;stroke-width:1.0;"/><line style="stroke:#181818;stroke-width:1.0;" x1="1055.75" x2="1124.5" y1="876.6909" y2="876.6909"/><line style="stroke:#181818;stroke-width:1.0;" x1="1124.5" x2="1124.5" y1="876.6909" y2="899.4956"/><polygon fill="#181818" points="1120.5,889.4956,1124.5,899.4956,1128.5,889.4956,1124.5,893.4956" style="stroke:#181818;stroke-width:1.0;"/><line style="stroke:#181818;stroke-width:1.0;" x1="873" x2="873" y1="1114.8159" y2="1267.394"/><line style="stroke:#181818;stroke-width:1.0;" x1="873" x2="986.75" y1="1267.394" y2="1267.394"/><polygon fill="#181818" points="976.75,1263.394,986.75,1267.394,976.75,1271.394,980.75,1267.394" style="stroke:#181818;stroke-width:1.0;"/><line style="stroke:#181818;stroke-width:1.0;" x1="1124.5" x2="1124.5" y1="1249.394" y2="1267.394"/><line style="stroke:#181818;stroke-width:1.0;" x1="1124.5" x2="1010.75" y1="1267.394" y2="1267.394"/><polygon fill="#181818" points="1020.75,1263.394,1010.75,1267.394,1020.75,1271.394,1016.75,1267.394" style="stroke:#181818;stroke-width:1.0;"/><line style="stroke:#181818;stroke-width:1.0;" x1="551.9375" x2="219.125" y1="841.0815" y2="841.0815"/><line style="stroke:#181818;stroke-width:1.0;" x1="219.125" x2="219.125" y1="841.0815" y2="863.8862"/><polygon fill="#181818" points="215.125,853.8862,219.125,863.8862,223.125,853.8862,219.125,857.8862" style="stroke:#181818;stroke-width:1.0;"/><line style="stroke:#181818;stroke-width:1.0;" x1="665.9375" x2="998.75" y1="841.0815" y2="841.0815"/><line style="stroke:#181818;stroke-width:1.0;" x1="998.75" x2="998.75" y1="841.0815" y2="863.8862"/><polygon fill="#181818" points="994.75,853.8862,998.75,863.8862,1002.75,853.8862,998.75,857.8862" style="stroke:#181818;stroke-width:1.0;"/><line style="stroke:#181818;stroke-width:1.0;" x1="219.125" x2="219.125" y1="1222.7847" y2="1297.394"/><line style="stroke:#181818;stroke-width:1.0;" x1="219.125" x2="596.9375" y1="1297.394" y2="1297.394"/><polygon fill="#181818" points="586.9375,1293.394,596.9375,1297.394,586.9375,1301.394,590.9375,1297.394" style="stroke:#181818;stroke-width:1.0;"/><line style="stroke:#181818;stroke-width:1.0;" x1="998.75" x2="998.75" y1="1279.394" y2="1297.394"/><line style="stroke:#181818;stroke-width:1.0;" x1="998.75" x2="620.9375" y1="1297.394" y2="1297.394"/><polygon fill="#181818" points="630.9375,1293.394,620.9375,1297.394,630.9375,1301.394,626.9375,1297.394" style="stroke:#181818;stroke-width:1.0;"/><line style="stroke:#181818;stroke-width:1.0;" x1="608.9375" x2="608.9375" y1="794.0933" y2="828.2769"/><polygon fill="#181818" points="604.9375,818.2769,608.9375,828.2769,612.9375,818.2769,608.9375,822.2769" style="stroke:#181818;stroke-width:1.0;"/><line style="stroke:#181818;stroke-width:1.0;" x1="608.9375" x2="608.9375" y1="1309.394" y2="1329.394"/><polygon fill="#181818" points="604.9375,1319.394,608.9375,1329.394,612.9375,1319.394,608.9375,1323.394" style="stroke:#181818;stroke-width:1.0;"/><line style="stroke:#181818;stroke-width:1.0;" x1="608.9375" x2="608.9375" y1="341.1367" y2="361.1367"/><polygon fill="#181818" points="604.9375,351.1367,608.9375,361.1367,612.9375,351.1367,608.9375,355.1367" style="stroke:#181818;stroke-width:1.0;"/><line style="stroke:#181818;stroke-width:1.0;" x1="653.9375" x2="1258.5" y1="1395.3628" y2="1395.3628"/><polygon fill="#181818" points="1254.5,814.0933,1258.5,804.0933,1262.5,814.0933,1258.5,810.0933" style="stroke:#181818;stroke-width:1.0;"/><line style="stroke:#181818;stroke-width:1.0;" x1="1258.5" x2="1258.5" y1="329.1367" y2="1395.3628"/><line style="stroke:#181818;stroke-width:1.0;" x1="1258.5" x2="620.9375" y1="329.1367" y2="329.1367"/><polygon fill="#181818" points="630.9375,325.1367,620.9375,329.1367,630.9375,333.1367,626.9375,329.1367" style="stroke:#181818;stroke-width:1.0;"/><line style="stroke:#181818;stroke-width:1.0;" x1="608.9375" x2="608.9375" y1="1363.3628" y2="1383.3628"/><polygon fill="#181818" points="604.9375,1373.3628,608.9375,1383.3628,612.9375,1373.3628,608.9375,1377.3628" style="stroke:#181818;stroke-width:1.0;"/><line style="stroke:#181818;stroke-width:1.0;" x1="608.9375" x2="608.9375" y1="297.1367" y2="317.1367"/><polygon fill="#181818" points="604.9375,307.1367,608.9375,317.1367,612.9375,307.1367,608.9375,311.1367" style="stroke:#181818;stroke-width:1.0;"/><line style="stroke:#181818;stroke-width:1.0;" x1="608.9375" x2="608.9375" y1="238.7656" y2="263.168"/><polygon fill="#181818" points="604.9375,253.168,608.9375,263.168,612.9375,253.168,608.9375,257.168" style="stroke:#181818;stroke-width:1.0;"/><line style="stroke:#181818;stroke-width:1.0;" x1="666.4375" x2="705.4375" y1="226.7656" y2="226.7656"/><polygon fill="#181818" points="695.4375,222.7656,705.4375,226.7656,695.4375,230.7656,699.4375,226.7656" style="stroke:#181818;stroke-width:1.0;"/><line style="stroke:#181818;stroke-width:1.0;" x1="608.9375" x2="608.9375" y1="1407.3628" y2="1439.0732"/><polygon fill="#181818" points="604.9375,1429.0732,608.9375,1439.0732,612.9375,1429.0732,608.9375,1433.0732" style="stroke:#181818;stroke-width:1.0;"/><line style="stroke:#181818;stroke-width:1.0;" x1="608.9375" x2="608.9375" y1="194.7656" y2="214.7656"/><polygon fill="#181818" points="604.9375,204.7656,608.9375,214.7656,612.9375,204.7656,608.9375,208.7656" style="stroke:#181818;stroke-width:1.0;"/><!--SRC=[hLRTJzjM57_tN-57HvKgH1ys9Oeqjg89gHy8ihvCrUGIGxoY98fDgxu5L9G40-bO2KiJ5J4e3Hy1EY2mc8y_Phxtsa_x5tPk3h7Zu6Gyr8hYZ_Fr-vrxphbNq-MCBYHJkY9crAc4BeXY52wuETao_UDm9AdfSb8VrsLzHhl_g_nAjixhxCDRK9X9nsLT6PfwXK95Ws_spb-qz3SzNhKkhzdxsdVZ4mabFZEjn456brTOpI3ve_5qHarEYT-dKZmSFIoopoja_SpUMFIYJykQBYfnLG-BWmE33mQ-7Hni2vLaNEI0XJ1T-9qKIqC_FcD6biuR4K6T52N-Ucooqo-0dhpRThARxEn3IDGJIbAKzCoC4W97OT2ohqz8DI_PrtNBt0n9h7902akak4kh1UiyIuf7eGXePfIq8dESO0J1oDKQszzNGGeUa3Whx5XcWnnkMrU61AHfwUAryi8-pj5IsTauP5lDbYEmfvKJMkA6OT6wN6AN1_zaPvsAwUIAy63N5kpoUbjp_HEh6cor0P0iqoH6kKsHYzL9gVCZcskEZWt_CXuR6eln_zZ8qoVTX6_Ca2G6Zw8F-_ICV3RONZd814dJHjxLWbLxgSGZdjokrS5P09xOyDZZaIT3ZzgGsZRAjAQ8qgGCjtOOM59rKd25V1dluF3k7Ddfd6D-_3-EhjRTEFxmzF7ee-7OyCCx4nFydpoQMAhO0sJh2rrT0mL9bxMNM68_V_Cy50GzZEPeOjVoPFuJrXrfxaNSZ8WI-WVCv6gU_7O9BD6GHr4XH3B-uaqCeeLwvGUH-OrTe1sNohr4Mobm1Pq1KDGdOOZNoIr1ez2JArQ-k46A5Ep6l3ExR9qNwFv6C5QEjWKCbQICyb3Lqh8-aOX67uHyQ4b-robleN_hVBihVtvYVVXvLqUi0Qzw0baYpz5CQaBHDEvKkwzgOugUUGEZiStibWsG2qYD7qG_6Xx0U_SYFebl1_0boMooFOCFnAnXvtQ9iKeg7-dx1km1M1NiRANB1C0vivkaKE6_rbg0SY1Mt2Kwim2QQ8xRY4_V7VmTdrgvxQu0hyMwtxe6ZJ_3NgVG-YQfrf2VroaT_JZml4UhV8Lkwr4lDqE8Rsyuu5e-fPz6_0NYb0mOr504x62DrIvWlTXoBY84foQCzSpZz-t9uDZ0aEqqRo4GoMoLrl_i2S5B4UIutNrr54jgdyHybUpYX3XOfFbtNGuYj-eggF_GDC32brWtjRvvryDlZm9rdxnp0-uz_ruimhWYHpbQtOLnO6_be6jG5BW7u156V9rGfo6uC_UsTS8ny91ZcmiXKTLkqiJxoyKd-D5gUYej82g1F_y7]--></g></svg>