<?xml version="1.0" encoding="us-ascii" standalone="no"?><svg xmlns="http://www.w3.org/2000/svg" xmlns:xlink="http://www.w3.org/1999/xlink" contentStyleType="text/css" height="841px" preserveAspectRatio="none" style="width:1396px;height:841px;background:#FFFFFF;" version="1.1" viewBox="0 0 1396 841" width="1396px" zoomAndPan="magnify"><defs/><g><path d="M714.5,10 L714.5,71.3984 L694.5,75.3984 L714.5,79.3984 L714.5,140.7969 A0,0 0 0 0 714.5,140.7969 L903.5,140.7969 A0,0 0 0 0 903.5,140.7969 L903.5,20 L893.5,10 L714.5,10 A0,0 0 0 0 714.5,10 " fill="#FEFFDD" style="stroke:#181818;stroke-width:0.5;"/><path d="M893.5,10 L893.5,20 L903.5,20 L893.5,10 " fill="#FEFFDD" style="stroke:#181818;stroke-width:0.5;"/><line style="stroke:#181818;stroke-width:1.0;" x1="714.5" x2="903.5" y1="20" y2="20"/><line style="stroke:#181818;stroke-width:1.0;" x1="714.5" x2="903.5" y1="22" y2="22"/><text fill="#000000" font-family="sans-serif" font-size="13" lengthAdjust="spacing" textLength="168" x="720.5" y="37.0669">&#36889;&#26159;InstantStatus.java&#20013;&#30340;</text><text fill="#000000" font-family="sans-serif" font-size="13" lengthAdjust="spacing" textLength="146" x="720.5" y="52.1997">updateStationStatuses</text><text fill="#000000" font-family="sans-serif" font-size="13" lengthAdjust="spacing" textLength="144" x="720.5" y="67.3325">&#35442;&#26041;&#27861;&#20351;&#29992;@Scheduled</text><text fill="#000000" font-family="sans-serif" font-size="13" lengthAdjust="spacing" textLength="112" x="720.5" y="82.4653">&#25490;&#31243;&#21040;Spring Boot</text><text fill="#000000" font-family="sans-serif" font-size="13" lengthAdjust="spacing" textLength="52" x="720.5" y="97.5981">&#27599;&#31186;&#22519;&#34892;</text><line style="stroke:#181818;stroke-width:1.0;" x1="714.5" x2="903.5" y1="105.6641" y2="105.6641"/><line style="stroke:#181818;stroke-width:1.0;" x1="714.5" x2="903.5" y1="107.6641" y2="107.6641"/><text fill="#000000" font-family="sans-serif" font-size="13" lengthAdjust="spacing" textLength="124" x="720.5" y="122.731">last edit: 20230822</text><line style="stroke:#181818;stroke-width:1.0;" x1="714.5" x2="903.5" y1="130.7969" y2="130.7969"/><line style="stroke:#181818;stroke-width:1.0;" x1="714.5" x2="903.5" y1="132.7969" y2="132.7969"/><ellipse cx="684.5" cy="75.3984" fill="#222222" rx="10" ry="10" style="stroke:#222222;stroke-width:1.0;"/><rect fill="#F1F1F1" height="33.9688" rx="12.5" ry="12.5" style="stroke:#181818;stroke-width:0.5;" width="254" x="557.5" y="160.7969"/><text fill="#000000" font-family="sans-serif" font-size="12" lengthAdjust="spacing" textLength="234" x="567.5" y="181.9355">&#25235;&#21462;&#31449;&#40670;&#29376;&#24907;&#12289;&#20219;&#21209;&#20295;&#21015;&#30340;BookingStation</text><rect fill="#F1F1F1" height="33.9688" rx="12.5" ry="12.5" style="stroke:#181818;stroke-width:0.5;" width="114" x="627.5" y="263.168"/><text fill="#000000" font-family="sans-serif" font-size="12" lengthAdjust="spacing" textLength="94" x="637.5" y="284.3066">&#31449;&#40670;&#36852;&#22280;(&#36845;&#20195;&#31449;)</text><polygon fill="#F1F1F1" points="622,361.1367,747,361.1367,759,373.1367,747,385.1367,622,385.1367,610,373.1367,622,361.1367" style="stroke:#181818;stroke-width:0.5;"/><text fill="#000000" font-family="sans-serif" font-size="11" lengthAdjust="spacing" textLength="125" x="622" y="376.9448">&#26377;&#28961;&#26855;&#26495;(dataValue[0])</text><text fill="#000000" font-family="sans-serif" font-size="11" lengthAdjust="spacing" textLength="23" x="587" y="370.5425">true</text><text fill="#000000" font-family="sans-serif" font-size="11" lengthAdjust="spacing" textLength="28" x="759" y="370.5425">false</text><rect fill="#F1F1F1" height="47.9375" rx="12.5" ry="12.5" style="stroke:#181818;stroke-width:0.5;" width="140" x="530" y="395.1367"/><text fill="#000000" font-family="sans-serif" font-size="12" lengthAdjust="spacing" textLength="120" x="540" y="416.2754">&#35373;&#23450;&#26410;&#36942;&#28670;&#31449;&#40670;&#36039;&#26009;&#28858;</text><text fill="#000000" font-family="sans-serif" font-size="12" lengthAdjust="spacing" textLength="36" x="584" y="430.2441">&#26377;&#26855;&#26495;</text><rect fill="#F1F1F1" height="47.9375" rx="12.5" ry="12.5" style="stroke:#181818;stroke-width:0.5;" width="140" x="699" y="395.1367"/><text fill="#000000" font-family="sans-serif" font-size="12" lengthAdjust="spacing" textLength="120" x="709" y="416.2754">&#35373;&#23450;&#26410;&#36942;&#28670;&#31449;&#40670;&#36039;&#26009;&#28858;</text><text fill="#000000" font-family="sans-serif" font-size="12" lengthAdjust="spacing" textLength="36" x="753" y="430.2441">&#28961;&#26855;&#26495;</text><polygon fill="#F1F1F1" points="684.5,449.0742,696.5,461.0742,684.5,473.0742,672.5,461.0742,684.5,449.0742" style="stroke:#181818;stroke-width:0.5;"/><polygon fill="#F1F1F1" points="32.5,493.0742,131.5,493.0742,143.5,505.8789,131.5,518.6836,32.5,518.6836,20.5,505.8789,32.5,493.0742" style="stroke:#181818;stroke-width:0.5;"/><text fill="#000000" font-family="sans-serif" font-size="11" lengthAdjust="spacing" textLength="23" x="86" y="528.894">true</text><text fill="#000000" font-family="sans-serif" font-size="11" lengthAdjust="spacing" textLength="99" x="32.5" y="503.2847">&#35442;&#31449;&#34987;&#38928;&#35330;&#28858;&#36215;&#22987;&#31449;</text><text fill="#000000" font-family="sans-serif" font-size="11" lengthAdjust="spacing" textLength="48" x="68.5" y="516.0894">&#19988; &#28961;&#26855;&#26495;</text><rect fill="#F1F1F1" height="47.9375" rx="12.5" ry="12.5" style="stroke:#181818;stroke-width:0.5;" width="142" x="11" y="551.4883"/><text fill="#000000" font-family="sans-serif" font-size="12" lengthAdjust="spacing" textLength="114" x="21" y="572.627">&#35373;&#32622;StationStatus&#28858;</text><text fill="#000000" font-family="sans-serif" font-size="12" lengthAdjust="spacing" textLength="122" x="21" y="586.5957">UNEXPECTED_PALLET</text><rect fill="#F1F1F1" height="33.9688" rx="12.5" ry="12.5" style="stroke:#181818;stroke-width:0.5;" width="92" x="36" y="634.4258"/><text fill="#000000" font-family="sans-serif" font-size="12" lengthAdjust="spacing" textLength="72" x="46" y="655.5645">&#25773;&#22577;&#37679;&#35492;&#35686;&#22577;</text><polygon fill="#F1F1F1" points="185,493.0742,284,493.0742,296,505.8789,284,518.6836,185,518.6836,173,505.8789,185,493.0742" style="stroke:#181818;stroke-width:0.5;"/><text fill="#000000" font-family="sans-serif" font-size="11" lengthAdjust="spacing" textLength="23" x="238.5" y="528.894">true</text><text fill="#000000" font-family="sans-serif" font-size="11" lengthAdjust="spacing" textLength="99" x="185" y="503.2847">&#35442;&#31449;&#34987;&#38928;&#35330;&#28858;&#36215;&#22987;&#31449;</text><text fill="#000000" font-family="sans-serif" font-size="11" lengthAdjust="spacing" textLength="48" x="221" y="516.0894">&#19988; &#26377;&#26855;&#26495;</text><rect fill="#F1F1F1" height="47.9375" rx="12.5" ry="12.5" style="stroke:#181818;stroke-width:0.5;" width="134" x="167.5" y="551.4883"/><text fill="#000000" font-family="sans-serif" font-size="12" lengthAdjust="spacing" textLength="114" x="177.5" y="572.627">&#35373;&#32622;StationStatus&#28858;</text><text fill="#000000" font-family="sans-serif" font-size="12" lengthAdjust="spacing" textLength="56" x="205.5" y="586.5957">BOOKING</text><rect fill="#F1F1F1" height="33.9688" rx="12.5" ry="12.5" style="stroke:#181818;stroke-width:0.5;" width="116" x="176.5" y="634.4258"/><text fill="#000000" font-family="sans-serif" font-size="12" lengthAdjust="spacing" textLength="96" x="186.5" y="655.5645">&#20572;&#27490;&#25773;&#22577;&#37679;&#35492;&#35686;&#22577;</text><polygon fill="#F1F1F1" points="333.5,493.0742,432.5,493.0742,444.5,505.8789,432.5,518.6836,333.5,518.6836,321.5,505.8789,333.5,493.0742" style="stroke:#181818;stroke-width:0.5;"/><text fill="#000000" font-family="sans-serif" font-size="11" lengthAdjust="spacing" textLength="23" x="387" y="528.894">true</text><text fill="#000000" font-family="sans-serif" font-size="11" lengthAdjust="spacing" textLength="99" x="333.5" y="503.2847">&#35442;&#31449;&#34987;&#38928;&#35330;&#28858;&#32066;&#40670;&#31449;</text><text fill="#000000" font-family="sans-serif" font-size="11" lengthAdjust="spacing" textLength="48" x="369.5" y="516.0894">&#19988; &#26377;&#26855;&#26495;</text><rect fill="#F1F1F1" height="47.9375" rx="12.5" ry="12.5" style="stroke:#181818;stroke-width:0.5;" width="142" x="312" y="551.4883"/><text fill="#000000" font-family="sans-serif" font-size="12" lengthAdjust="spacing" textLength="114" x="322" y="572.627">&#35373;&#32622;StationStatus&#28858;</text><text fill="#000000" font-family="sans-serif" font-size="12" lengthAdjust="spacing" textLength="122" x="322" y="586.5957">UNEXPECTED_PALLET</text><rect fill="#F1F1F1" height="33.9688" rx="12.5" ry="12.5" style="stroke:#181818;stroke-width:0.5;" width="92" x="337" y="634.4258"/><text fill="#000000" font-family="sans-serif" font-size="12" lengthAdjust="spacing" textLength="72" x="347" y="655.5645">&#25773;&#22577;&#37679;&#35492;&#35686;&#22577;</text><polygon fill="#F1F1F1" points="486,493.0742,585,493.0742,597,505.8789,585,518.6836,486,518.6836,474,505.8789,486,493.0742" style="stroke:#181818;stroke-width:0.5;"/><text fill="#000000" font-family="sans-serif" font-size="11" lengthAdjust="spacing" textLength="23" x="539.5" y="528.894">true</text><text fill="#000000" font-family="sans-serif" font-size="11" lengthAdjust="spacing" textLength="99" x="486" y="503.2847">&#35442;&#31449;&#34987;&#38928;&#35330;&#28858;&#32066;&#40670;&#31449;</text><text fill="#000000" font-family="sans-serif" font-size="11" lengthAdjust="spacing" textLength="48" x="522" y="516.0894">&#19988; &#28961;&#26855;&#26495;</text><rect fill="#F1F1F1" height="47.9375" rx="12.5" ry="12.5" style="stroke:#181818;stroke-width:0.5;" width="134" x="468.5" y="551.4883"/><text fill="#000000" font-family="sans-serif" font-size="12" lengthAdjust="spacing" textLength="114" x="478.5" y="572.627">&#35373;&#32622;StationStatus&#28858;</text><text fill="#000000" font-family="sans-serif" font-size="12" lengthAdjust="spacing" textLength="56" x="506.5" y="586.5957">BOOKING</text><rect fill="#F1F1F1" height="33.9688" rx="12.5" ry="12.5" style="stroke:#181818;stroke-width:0.5;" width="116" x="477.5" y="634.4258"/><text fill="#000000" font-family="sans-serif" font-size="12" lengthAdjust="spacing" textLength="96" x="487.5" y="655.5645">&#20572;&#27490;&#25773;&#22577;&#37679;&#35492;&#35686;&#22577;</text><polygon fill="#F1F1F1" points="634.5,493.0742,744.5,493.0742,756.5,505.8789,744.5,518.6836,634.5,518.6836,622.5,505.8789,634.5,493.0742" style="stroke:#181818;stroke-width:0.5;"/><text fill="#000000" font-family="sans-serif" font-size="11" lengthAdjust="spacing" textLength="23" x="693.5" y="528.894">true</text><text fill="#000000" font-family="sans-serif" font-size="11" lengthAdjust="spacing" textLength="110" x="634.5" y="503.2847">&#35442;&#31449;&#34987;&#38928;&#35330;&#28858;&#23436;&#25104;&#25918;&#32622;</text><text fill="#000000" font-family="sans-serif" font-size="11" lengthAdjust="spacing" textLength="48" x="670.5" y="516.0894">&#19988; &#26377;&#26855;&#26495;</text><rect fill="#F1F1F1" height="47.9375" rx="12.5" ry="12.5" style="stroke:#181818;stroke-width:0.5;" width="134" x="622.5" y="551.4883"/><text fill="#000000" font-family="sans-serif" font-size="12" lengthAdjust="spacing" textLength="114" x="632.5" y="572.627">&#35373;&#32622;StationStatus&#28858;</text><text fill="#000000" font-family="sans-serif" font-size="12" lengthAdjust="spacing" textLength="70" x="652.5" y="586.5957">COMPLETED</text><rect fill="#F1F1F1" height="33.9688" rx="12.5" ry="12.5" style="stroke:#181818;stroke-width:0.5;" width="104" x="637.5" y="634.4258"/><text fill="#000000" font-family="sans-serif" font-size="12" lengthAdjust="spacing" textLength="84" x="647.5" y="655.5645">&#25773;&#22577;&#36890;&#30693;&#31449;&#35686;&#22577;</text><polygon fill="#F1F1F1" points="791.5,493.0742,901.5,493.0742,913.5,505.8789,901.5,518.6836,791.5,518.6836,779.5,505.8789,791.5,493.0742" style="stroke:#181818;stroke-width:0.5;"/><text fill="#000000" font-family="sans-serif" font-size="11" lengthAdjust="spacing" textLength="23" x="850.5" y="528.894">true</text><text fill="#000000" font-family="sans-serif" font-size="11" lengthAdjust="spacing" textLength="110" x="791.5" y="503.2847">&#35442;&#31449;&#34987;&#38928;&#35330;&#28858;&#23436;&#25104;&#25918;&#32622;</text><text fill="#000000" font-family="sans-serif" font-size="11" lengthAdjust="spacing" textLength="48" x="843.5" y="516.0894">&#19988; &#28961;&#26855;&#26495;</text><text fill="#000000" font-family="sans-serif" font-size="11" lengthAdjust="spacing" textLength="88" x="913.5" y="503.2847">&#27794;&#26377;&#34987;&#38928;&#35330;&#30340;&#36554;&#20301;</text><rect fill="#F1F1F1" height="47.9375" rx="12.5" ry="12.5" style="stroke:#181818;stroke-width:0.5;" width="140" x="776.5" y="551.4883"/><text fill="#000000" font-family="sans-serif" font-size="12" lengthAdjust="spacing" textLength="120" x="786.5" y="572.627">&#28165;&#38500;&#31449;&#40670;&#34987;&#38928;&#35330;&#30340;&#29376;&#24907;</text><text fill="#000000" font-family="sans-serif" font-size="12" lengthAdjust="spacing" textLength="94" x="802.5" y="586.5957">(&#24050;&#23436;&#25104;&#27492;&#27425;&#36681;&#31227;)</text><rect fill="#F1F1F1" height="33.9688" rx="12.5" ry="12.5" style="stroke:#181818;stroke-width:0.5;" width="128" x="782.5" y="634.4258"/><text fill="#000000" font-family="sans-serif" font-size="12" lengthAdjust="spacing" textLength="108" x="792.5" y="655.5645">&#20572;&#27490;&#25773;&#22577;&#36890;&#30693;&#31449;&#35686;&#22577;</text><polygon fill="#F1F1F1" points="1109,532.6777,1186,532.6777,1198,544.6777,1186,556.6777,1109,556.6777,1097,544.6777,1109,532.6777" style="stroke:#181818;stroke-width:0.5;"/><text fill="#000000" font-family="sans-serif" font-size="11" lengthAdjust="spacing" textLength="77" x="1109" y="548.4858">&#26410;&#34987;&#38928;&#35330;&#30340;&#36554;&#31449;</text><rect fill="#F1F1F1" height="47.9375" rx="12.5" ry="12.5" style="stroke:#181818;stroke-width:0.5;" width="134" x="936.5" y="592.2871"/><text fill="#000000" font-family="sans-serif" font-size="12" lengthAdjust="spacing" textLength="114" x="946.5" y="613.4258">&#35373;&#32622;StationStatus&#28858;</text><text fill="#000000" font-family="sans-serif" font-size="12" lengthAdjust="spacing" textLength="107" x="950.5" y="627.3945">NOT_OWN_PALLET</text><rect fill="#F1F1F1" height="47.9375" rx="12.5" ry="12.5" style="stroke:#181818;stroke-width:0.5;" width="134" x="1080.5" y="592.2871"/><text fill="#000000" font-family="sans-serif" font-size="12" lengthAdjust="spacing" textLength="114" x="1090.5" y="613.4258">&#35373;&#32622;StationStatus&#28858;</text><text fill="#000000" font-family="sans-serif" font-size="12" lengthAdjust="spacing" textLength="76" x="1106.5" y="627.3945">OWN_PALLET</text><rect fill="#F1F1F1" height="47.9375" rx="12.5" ry="12.5" style="stroke:#181818;stroke-width:0.5;" width="134" x="1224.5" y="592.2871"/><text fill="#000000" font-family="sans-serif" font-size="12" lengthAdjust="spacing" textLength="114" x="1234.5" y="613.4258">&#35373;&#32622;StationStatus&#28858;</text><text fill="#000000" font-family="sans-serif" font-size="12" lengthAdjust="spacing" textLength="49" x="1266.5" y="627.3945">DISABLE</text><polygon fill="#F1F1F1" points="1147.5,688.3945,1147.5,688.3945,1159.5,700.3945,1147.5,712.3945,1147.5,712.3945,1135.5,700.3945,1147.5,688.3945" style="stroke:#181818;stroke-width:0.5;"/><polygon fill="#F1F1F1" points="684.5,317.1367,696.5,329.1367,684.5,341.1367,672.5,329.1367,684.5,317.1367" style="stroke:#181818;stroke-width:0.5;"/><polygon fill="#F1F1F1" points="657,752.3945,712,752.3945,724,764.3945,712,776.3945,657,776.3945,645,764.3945,657,752.3945" style="stroke:#181818;stroke-width:0.5;"/><text fill="#000000" font-family="sans-serif" font-size="11" lengthAdjust="spacing" textLength="28" x="688.5" y="786.605">false</text><text fill="#000000" font-family="sans-serif" font-size="11" lengthAdjust="spacing" textLength="55" x="657" y="768.2026">&#26377;&#19979;&#20491;&#31449;&#40670;</text><text fill="#000000" font-family="sans-serif" font-size="11" lengthAdjust="spacing" textLength="23" x="724" y="761.8003">true</text><polygon fill="#F1F1F1" points="639,214.7656,730,214.7656,742,226.7656,730,238.7656,639,238.7656,627,226.7656,639,214.7656" style="stroke:#181818;stroke-width:0.5;"/><text fill="#000000" font-family="sans-serif" font-size="11" lengthAdjust="spacing" textLength="23" x="688.5" y="248.9761">true</text><text fill="#000000" font-family="sans-serif" font-size="11" lengthAdjust="spacing" textLength="91" x="639" y="230.5737">AGV&#31995;&#32113;&#26159;&#21542;&#36899;&#32218;</text><text fill="#000000" font-family="sans-serif" font-size="11" lengthAdjust="spacing" textLength="28" x="742" y="224.1714">false</text><ellipse cx="792" cy="226.7656" fill="none" rx="11" ry="11" style="stroke:#222222;stroke-width:1.0;"/><ellipse cx="792" cy="226.7656" fill="#222222" rx="6" ry="6" style="stroke:#111111;stroke-width:1.0;"/><ellipse cx="684.5" cy="819.105" fill="none" rx="11" ry="11" style="stroke:#222222;stroke-width:1.0;"/><ellipse cx="684.5" cy="819.105" fill="#222222" rx="6" ry="6" style="stroke:#111111;stroke-width:1.0;"/><line style="stroke:#181818;stroke-width:1.0;" x1="684.5" x2="684.5" y1="85.3984" y2="160.7969"/><polygon fill="#181818" points="680.5,150.7969,684.5,160.7969,688.5,150.7969,684.5,154.7969" style="stroke:#181818;stroke-width:1.0;"/><line style="stroke:#181818;stroke-width:1.0;" x1="610" x2="600" y1="373.1367" y2="373.1367"/><line style="stroke:#181818;stroke-width:1.0;" x1="600" x2="600" y1="373.1367" y2="395.1367"/><polygon fill="#181818" points="596,385.1367,600,395.1367,604,385.1367,600,389.1367" style="stroke:#181818;stroke-width:1.0;"/><line style="stroke:#181818;stroke-width:1.0;" x1="759" x2="769" y1="373.1367" y2="373.1367"/><line style="stroke:#181818;stroke-width:1.0;" x1="769" x2="769" y1="373.1367" y2="395.1367"/><polygon fill="#181818" points="765,385.1367,769,395.1367,773,385.1367,769,389.1367" style="stroke:#181818;stroke-width:1.0;"/><line style="stroke:#181818;stroke-width:1.0;" x1="600" x2="600" y1="443.0742" y2="461.0742"/><line style="stroke:#181818;stroke-width:1.0;" x1="600" x2="672.5" y1="461.0742" y2="461.0742"/><polygon fill="#181818" points="662.5,457.0742,672.5,461.0742,662.5,465.0742,666.5,461.0742" style="stroke:#181818;stroke-width:1.0;"/><line style="stroke:#181818;stroke-width:1.0;" x1="769" x2="769" y1="443.0742" y2="461.0742"/><line style="stroke:#181818;stroke-width:1.0;" x1="769" x2="696.5" y1="461.0742" y2="461.0742"/><polygon fill="#181818" points="706.5,457.0742,696.5,461.0742,706.5,465.0742,702.5,461.0742" style="stroke:#181818;stroke-width:1.0;"/><line style="stroke:#181818;stroke-width:1.0;" x1="82" x2="82" y1="599.4258" y2="634.4258"/><polygon fill="#181818" points="78,624.4258,82,634.4258,86,624.4258,82,628.4258" style="stroke:#181818;stroke-width:1.0;"/><line style="stroke:#181818;stroke-width:1.0;" x1="234.5" x2="234.5" y1="599.4258" y2="634.4258"/><polygon fill="#181818" points="230.5,624.4258,234.5,634.4258,238.5,624.4258,234.5,628.4258" style="stroke:#181818;stroke-width:1.0;"/><line style="stroke:#181818;stroke-width:1.0;" x1="383" x2="383" y1="599.4258" y2="634.4258"/><polygon fill="#181818" points="379,624.4258,383,634.4258,387,624.4258,383,628.4258" style="stroke:#181818;stroke-width:1.0;"/><line style="stroke:#181818;stroke-width:1.0;" x1="535.5" x2="535.5" y1="599.4258" y2="634.4258"/><polygon fill="#181818" points="531.5,624.4258,535.5,634.4258,539.5,624.4258,535.5,628.4258" style="stroke:#181818;stroke-width:1.0;"/><line style="stroke:#181818;stroke-width:1.0;" x1="689.5" x2="689.5" y1="599.4258" y2="634.4258"/><polygon fill="#181818" points="685.5,624.4258,689.5,634.4258,693.5,624.4258,689.5,628.4258" style="stroke:#181818;stroke-width:1.0;"/><line style="stroke:#181818;stroke-width:1.0;" x1="846.5" x2="846.5" y1="599.4258" y2="634.4258"/><polygon fill="#181818" points="842.5,624.4258,846.5,634.4258,850.5,624.4258,846.5,628.4258" style="stroke:#181818;stroke-width:1.0;"/><line style="stroke:#181818;stroke-width:1.0;" x1="1097" x2="1003.5" y1="544.6777" y2="544.6777"/><line style="stroke:#181818;stroke-width:1.0;" x1="1003.5" x2="1003.5" y1="544.6777" y2="592.2871"/><polygon fill="#181818" points="999.5,582.2871,1003.5,592.2871,1007.5,582.2871,1003.5,586.2871" style="stroke:#181818;stroke-width:1.0;"/><text fill="#000000" font-family="sans-serif" font-size="11" lengthAdjust="spacing" textLength="33" x="1003.5" y="572.2905">&#28961;&#26855;&#26495;</text><line style="stroke:#181818;stroke-width:1.0;" x1="1198" x2="1291.5" y1="544.6777" y2="544.6777"/><line style="stroke:#181818;stroke-width:1.0;" x1="1291.5" x2="1291.5" y1="544.6777" y2="592.2871"/><polygon fill="#181818" points="1287.5,582.2871,1291.5,592.2871,1295.5,582.2871,1291.5,586.2871" style="stroke:#181818;stroke-width:1.0;"/><text fill="#000000" font-family="sans-serif" font-size="11" lengthAdjust="spacing" textLength="22" x="1291.5" y="572.2905">&#31105;&#29992;</text><line style="stroke:#181818;stroke-width:1.0;" x1="1147.5" x2="1147.5" y1="556.6777" y2="568.5475"/><line style="stroke:#181818;stroke-width:1.0;" x1="1147.5" x2="1147.5" y1="568.5475" y2="592.2871"/><polygon fill="#181818" points="1143.5,582.2871,1147.5,592.2871,1151.5,582.2871,1147.5,586.2871" style="stroke:#181818;stroke-width:1.0;"/><text fill="#000000" font-family="sans-serif" font-size="11" lengthAdjust="spacing" textLength="33" x="1147.5" y="573.2905">&#26377;&#26855;&#26495;</text><line style="stroke:#181818;stroke-width:1.0;" x1="1003.5" x2="1003.5" y1="640.2246" y2="700.3945"/><line style="stroke:#181818;stroke-width:1.0;" x1="1003.5" x2="1135.5" y1="700.3945" y2="700.3945"/><polygon fill="#181818" points="1125.5,696.3945,1135.5,700.3945,1125.5,704.3945,1129.5,700.3945" style="stroke:#181818;stroke-width:1.0;"/><line style="stroke:#181818;stroke-width:1.0;" x1="1291.5" x2="1291.5" y1="640.2246" y2="700.3945"/><line style="stroke:#181818;stroke-width:1.0;" x1="1291.5" x2="1159.5" y1="700.3945" y2="700.3945"/><polygon fill="#181818" points="1169.5,696.3945,1159.5,700.3945,1169.5,704.3945,1165.5,700.3945" style="stroke:#181818;stroke-width:1.0;"/><line style="stroke:#181818;stroke-width:1.0;" x1="1147.5" x2="1147.5" y1="640.2246" y2="673.3945"/><line style="stroke:#181818;stroke-width:1.0;" x1="1147.5" x2="1147.5" y1="673.3945" y2="688.3945"/><polygon fill="#181818" points="1143.5,678.3945,1147.5,688.3945,1151.5,678.3945,1147.5,682.3945" style="stroke:#181818;stroke-width:1.0;"/><line style="stroke:#181818;stroke-width:1.0;" x1="82" x2="82" y1="518.6836" y2="551.4883"/><polygon fill="#181818" points="78,541.4883,82,551.4883,86,541.4883,82,545.4883" style="stroke:#181818;stroke-width:1.0;"/><line style="stroke:#181818;stroke-width:1.0;" x1="82" x2="82" y1="668.3945" y2="732.3945"/><polygon fill="#181818" points="78,722.3945,82,732.3945,86,722.3945,82,726.3945" style="stroke:#181818;stroke-width:1.0;"/><line style="stroke:#181818;stroke-width:1.0;" x1="234.5" x2="234.5" y1="518.6836" y2="551.4883"/><polygon fill="#181818" points="230.5,541.4883,234.5,551.4883,238.5,541.4883,234.5,545.4883" style="stroke:#181818;stroke-width:1.0;"/><line style="stroke:#181818;stroke-width:1.0;" x1="234.5" x2="234.5" y1="668.3945" y2="732.3945"/><polygon fill="#181818" points="230.5,722.3945,234.5,732.3945,238.5,722.3945,234.5,726.3945" style="stroke:#181818;stroke-width:1.0;"/><line style="stroke:#181818;stroke-width:1.0;" x1="383" x2="383" y1="518.6836" y2="551.4883"/><polygon fill="#181818" points="379,541.4883,383,551.4883,387,541.4883,383,545.4883" style="stroke:#181818;stroke-width:1.0;"/><line style="stroke:#181818;stroke-width:1.0;" x1="383" x2="383" y1="668.3945" y2="732.3945"/><polygon fill="#181818" points="379,722.3945,383,732.3945,387,722.3945,383,726.3945" style="stroke:#181818;stroke-width:1.0;"/><line style="stroke:#181818;stroke-width:1.0;" x1="535.5" x2="535.5" y1="518.6836" y2="551.4883"/><polygon fill="#181818" points="531.5,541.4883,535.5,551.4883,539.5,541.4883,535.5,545.4883" style="stroke:#181818;stroke-width:1.0;"/><line style="stroke:#181818;stroke-width:1.0;" x1="535.5" x2="535.5" y1="668.3945" y2="732.3945"/><polygon fill="#181818" points="531.5,722.3945,535.5,732.3945,539.5,722.3945,535.5,726.3945" style="stroke:#181818;stroke-width:1.0;"/><line style="stroke:#181818;stroke-width:1.0;" x1="689.5" x2="689.5" y1="518.6836" y2="551.4883"/><polygon fill="#181818" points="685.5,541.4883,689.5,551.4883,693.5,541.4883,689.5,545.4883" style="stroke:#181818;stroke-width:1.0;"/><line style="stroke:#181818;stroke-width:1.0;" x1="689.5" x2="689.5" y1="668.3945" y2="732.3945"/><polygon fill="#181818" points="685.5,722.3945,689.5,732.3945,693.5,722.3945,689.5,726.3945" style="stroke:#181818;stroke-width:1.0;"/><line style="stroke:#181818;stroke-width:1.0;" x1="846.5" x2="846.5" y1="518.6836" y2="551.4883"/><polygon fill="#181818" points="842.5,541.4883,846.5,551.4883,850.5,541.4883,846.5,545.4883" style="stroke:#181818;stroke-width:1.0;"/><line style="stroke:#181818;stroke-width:1.0;" x1="846.5" x2="846.5" y1="668.3945" y2="732.3945"/><polygon fill="#181818" points="842.5,722.3945,846.5,732.3945,850.5,722.3945,846.5,726.3945" style="stroke:#181818;stroke-width:1.0;"/><line style="stroke:#181818;stroke-width:1.0;" x1="143.5" x2="173" y1="505.8789" y2="505.8789"/><polygon fill="#181818" points="163,501.8789,173,505.8789,163,509.8789,167,505.8789" style="stroke:#181818;stroke-width:1.0;"/><line style="stroke:#181818;stroke-width:1.0;" x1="296" x2="321.5" y1="505.8789" y2="505.8789"/><polygon fill="#181818" points="311.5,501.8789,321.5,505.8789,311.5,509.8789,315.5,505.8789" style="stroke:#181818;stroke-width:1.0;"/><line style="stroke:#181818;stroke-width:1.0;" x1="444.5" x2="474" y1="505.8789" y2="505.8789"/><polygon fill="#181818" points="464,501.8789,474,505.8789,464,509.8789,468,505.8789" style="stroke:#181818;stroke-width:1.0;"/><line style="stroke:#181818;stroke-width:1.0;" x1="597" x2="622.5" y1="505.8789" y2="505.8789"/><polygon fill="#181818" points="612.5,501.8789,622.5,505.8789,612.5,509.8789,616.5,505.8789" style="stroke:#181818;stroke-width:1.0;"/><line style="stroke:#181818;stroke-width:1.0;" x1="756.5" x2="779.5" y1="505.8789" y2="505.8789"/><polygon fill="#181818" points="769.5,501.8789,779.5,505.8789,769.5,509.8789,773.5,505.8789" style="stroke:#181818;stroke-width:1.0;"/><line style="stroke:#181818;stroke-width:1.0;" x1="684.5" x2="684.5" y1="473.0742" y2="478.0742"/><line style="stroke:#181818;stroke-width:1.0;" x1="684.5" x2="82" y1="478.0742" y2="478.0742"/><line style="stroke:#181818;stroke-width:1.0;" x1="82" x2="82" y1="478.0742" y2="493.0742"/><polygon fill="#181818" points="78,483.0742,82,493.0742,86,483.0742,82,487.0742" style="stroke:#181818;stroke-width:1.0;"/><line style="stroke:#181818;stroke-width:1.0;" x1="913.5" x2="1147.5" y1="505.8789" y2="505.8789"/><line style="stroke:#181818;stroke-width:1.0;" x1="1147.5" x2="1147.5" y1="505.8789" y2="532.6777"/><polygon fill="#181818" points="1143.5,522.6777,1147.5,532.6777,1151.5,522.6777,1147.5,526.6777" style="stroke:#181818;stroke-width:1.0;"/><line style="stroke:#181818;stroke-width:1.0;" x1="1147.5" x2="1147.5" y1="712.3945" y2="732.3945"/><polygon fill="#181818" points="1143.5,722.3945,1147.5,732.3945,1151.5,722.3945,1147.5,726.3945" style="stroke:#181818;stroke-width:1.0;"/><line style="stroke:#181818;stroke-width:1.0;" x1="82" x2="1147.5" y1="732.3945" y2="732.3945"/><line style="stroke:#181818;stroke-width:1.0;" x1="684.5" x2="684.5" y1="341.1367" y2="361.1367"/><polygon fill="#181818" points="680.5,351.1367,684.5,361.1367,688.5,351.1367,684.5,355.1367" style="stroke:#181818;stroke-width:1.0;"/><line style="stroke:#181818;stroke-width:1.0;" x1="724" x2="1370.5" y1="764.3945" y2="764.3945"/><polygon fill="#181818" points="1366.5,589.9824,1370.5,579.9824,1374.5,589.9824,1370.5,585.9824" style="stroke:#181818;stroke-width:1.0;"/><line style="stroke:#181818;stroke-width:1.0;" x1="1370.5" x2="1370.5" y1="329.1367" y2="764.3945"/><line style="stroke:#181818;stroke-width:1.0;" x1="1370.5" x2="696.5" y1="329.1367" y2="329.1367"/><polygon fill="#181818" points="706.5,325.1367,696.5,329.1367,706.5,333.1367,702.5,329.1367" style="stroke:#181818;stroke-width:1.0;"/><line style="stroke:#181818;stroke-width:1.0;" x1="684.5" x2="684.5" y1="732.3945" y2="752.3945"/><polygon fill="#181818" points="680.5,742.3945,684.5,752.3945,688.5,742.3945,684.5,746.3945" style="stroke:#181818;stroke-width:1.0;"/><line style="stroke:#181818;stroke-width:1.0;" x1="684.5" x2="684.5" y1="297.1367" y2="317.1367"/><polygon fill="#181818" points="680.5,307.1367,684.5,317.1367,688.5,307.1367,684.5,311.1367" style="stroke:#181818;stroke-width:1.0;"/><line style="stroke:#181818;stroke-width:1.0;" x1="684.5" x2="684.5" y1="238.7656" y2="263.168"/><polygon fill="#181818" points="680.5,253.168,684.5,263.168,688.5,253.168,684.5,257.168" style="stroke:#181818;stroke-width:1.0;"/><line style="stroke:#181818;stroke-width:1.0;" x1="742" x2="781" y1="226.7656" y2="226.7656"/><polygon fill="#181818" points="771,222.7656,781,226.7656,771,230.7656,775,226.7656" style="stroke:#181818;stroke-width:1.0;"/><line style="stroke:#181818;stroke-width:1.0;" x1="684.5" x2="684.5" y1="776.3945" y2="808.105"/><polygon fill="#181818" points="680.5,798.105,684.5,808.105,688.5,798.105,684.5,802.105" style="stroke:#181818;stroke-width:1.0;"/><line style="stroke:#181818;stroke-width:1.0;" x1="684.5" x2="684.5" y1="194.7656" y2="214.7656"/><polygon fill="#181818" points="680.5,204.7656,684.5,214.7656,688.5,204.7656,684.5,208.7656" style="stroke:#181818;stroke-width:1.0;"/><!--SRC=[hPLTJnf158RlzrVC9TmqXjuqa2RrWnXJ2oPOswHfp4P6sPOiX1tgBHYDw5errDf2QFsiKErgrHfeDyYFwSxCxh_eJ7TPA2c9AETcDpF3SzxpdkMCWiGK4kG4WY0bpSMG0C135knXPGhauzcOh21HHX4aehHoxvNuHZHg6YqkiWFfP5H4aEz82Ta-01MsRdwz8Di_oULxezwWMvL7aPaOZARZCChso7gULbIS-nv9fYHv3Wmb4ZmbETkWvJpUgPfxQoq5SL5104Obv0U-0T_zWGS-NtCJob70HGj-ileERspJauAbVwPgXYoflpDPGzUnMZ3gopZtWObbMLwpR8xKW23D0i_Ww1IzrEdLEIiIRnvPcGDQBNe1Ya4PU50g3Rqibz_cceqVk9Jpc0tDq0_OaZV0zb8m2KKk7W3E8wKLkhX73ihaKyF3Z16dn7WQlXXuwUs4yl2R5GsV5adfsCgkayQra-TocMmNwC8lvrHRCBpD3lpTWt450i-io1wtHhfo7QGSbMO5jnxMHKOmzq-itKspii08vbKLbrMss48PjQqMfbkTj7xwpqVI4lCq57m-4HoU38vCJmoEZmSd0ysVaRo6Ty-jjJFp-D3KZjXxMzqzoNEDwrsU4qFXyEEnqAYh3MTBHDk_XK9wjS0_qZugxAk1NUJTeR_zDX2Vhf7S9jcwPYdxs-NXy9C9PbzmfDF0J97kVE4oxgBmPbQIsf9LE7J-jYwpk6XFjJQQ1rSld4JQ8VcsPzPNQ5dt_j_VhWLuo4MUsTQUoTHNZVhRfY1bNa8pCJxPZZiEyH7ewfaHEQnLMflG6nWV2azEXv-5EZxV9hNLrjweBBf3wL6MNKkz4tcCZ4K6XyQ3JIIRcRPBRHEqUJE0-PWKjsimQYhEg7PdlK1IdCRp6ymTuaB7I5TG8Ya8DfA__m40]--></g></svg>